<?xml version="1.0" encoding="UTF-8" standalone="no"?>
<!DOCTYPE svg PUBLIC "-//W3C//DTD SVG 1.1//EN"
 "http://www.w3.org/Graphics/SVG/1.1/DTD/svg11.dtd">
<!-- Generated by graphviz version 2.40.1 (20161225.0304)
 -->
<!-- Title: g Pages: 1 -->
<svg width="756pt" height="154pt"
 viewBox="0.00 0.00 755.51 154.00" xmlns="http://www.w3.org/2000/svg" xmlns:xlink="http://www.w3.org/1999/xlink">
<g id="graph0" class="graph" transform="scale(1 1) rotate(0) translate(4 150)">
<title>g</title>
<polygon fill="#ffffff" stroke="transparent" points="-4,4 -4,-150 751.5084,-150 751.5084,4 -4,4"/>
<!-- T0 -->
<g id="node1" class="node">
<title>T0</title>
<path fill="#3f51b5" stroke="#ffffff" d="M181.2146,-90.5C181.2146,-90.5 151.2146,-90.5 151.2146,-90.5 145.2146,-90.5 139.2146,-84.5 139.2146,-78.5 139.2146,-78.5 139.2146,-66.5 139.2146,-66.5 139.2146,-60.5 145.2146,-54.5 151.2146,-54.5 151.2146,-54.5 181.2146,-54.5 181.2146,-54.5 187.2146,-54.5 193.2146,-60.5 193.2146,-66.5 193.2146,-66.5 193.2146,-78.5 193.2146,-78.5 193.2146,-84.5 187.2146,-90.5 181.2146,-90.5"/>
<text text-anchor="middle" x="166.2146" y="-68.3" font-family="Times,serif" font-size="14.00" fill="#ffffff">a 0 &gt;=</text>
</g>
<!-- 1 -->
<g id="node5" class="node">
<title>1</title>
<path fill="none" stroke="#000000" d="M352.3596,-109.5C352.3596,-109.5 382.3596,-109.5 382.3596,-109.5 388.3596,-109.5 394.3596,-115.5 394.3596,-121.5 394.3596,-121.5 394.3596,-133.5 394.3596,-133.5 394.3596,-139.5 388.3596,-145.5 382.3596,-145.5 382.3596,-145.5 352.3596,-145.5 352.3596,-145.5 346.3596,-145.5 340.3596,-139.5 340.3596,-133.5 340.3596,-133.5 340.3596,-121.5 340.3596,-121.5 340.3596,-115.5 346.3596,-109.5 352.3596,-109.5"/>
<text text-anchor="middle" x="356.2509" y="-123.4" font-family="Times,serif" font-size="14.00" fill="#000000">P1</text>
<polyline fill="none" stroke="#000000" points="372.1422,-109.7 372.1422,-145.5 "/>
<text text-anchor="middle" x="382.8922" y="-123.4" font-family="Times,serif" font-size="14.00" fill="#000000"> </text>
</g>
<!-- T0&#45;&gt;1 -->
<g id="edge4" class="edge">
<title>T0&#45;&gt;1</title>
<path fill="none" stroke="#000000" d="M193.3419,-79.9175C228.7563,-89.6011 290.8854,-106.5893 330.5317,-117.43"/>
<polygon fill="#000000" stroke="#000000" points="329.7726,-120.8508 340.3416,-120.1123 331.6189,-114.0987 329.7726,-120.8508"/>
<text text-anchor="middle" x="266.7871" y="-114.7" font-family="Times,serif" font-size="14.00" fill="#000000"> [ a ] </text>
</g>
<!-- 2 -->
<g id="node6" class="node">
<title>2</title>
<path fill="none" stroke="#000000" d="M352.3596,-.5C352.3596,-.5 382.3596,-.5 382.3596,-.5 388.3596,-.5 394.3596,-6.5 394.3596,-12.5 394.3596,-12.5 394.3596,-24.5 394.3596,-24.5 394.3596,-30.5 388.3596,-36.5 382.3596,-36.5 382.3596,-36.5 352.3596,-36.5 352.3596,-36.5 346.3596,-36.5 340.3596,-30.5 340.3596,-24.5 340.3596,-24.5 340.3596,-12.5 340.3596,-12.5 340.3596,-6.5 346.3596,-.5 352.3596,-.5"/>
<text text-anchor="middle" x="356.2509" y="-14.4" font-family="Times,serif" font-size="14.00" fill="#000000">P2</text>
<polyline fill="none" stroke="#000000" points="372.1422,-.7 372.1422,-36.5 "/>
<text text-anchor="middle" x="382.8922" y="-14.4" font-family="Times,serif" font-size="14.00" fill="#000000"> </text>
</g>
<!-- T0&#45;&gt;2 -->
<g id="edge5" class="edge">
<title>T0&#45;&gt;2</title>
<path fill="none" stroke="#000000" d="M180.9266,-54.4757C192.5262,-41.7834 209.9231,-25.8322 229.2146,-18.7 261.7714,-6.6636 301.6691,-8.1725 330.2022,-11.7584"/>
<polygon fill="#000000" stroke="#000000" points="329.777,-15.2329 340.1656,-13.1522 330.7469,-8.3004 329.777,-15.2329"/>
<text text-anchor="middle" x="266.7871" y="-23.7" font-family="Times,serif" font-size="14.00" fill="#000000"> [ a , a + 10 ] </text>
</g>
<!-- T1 -->
<g id="node2" class="node">
<title>T1</title>
<path fill="#3f51b5" stroke="#ffffff" d="M548.5761,-145.5C548.5761,-145.5 518.5761,-145.5 518.5761,-145.5 512.5761,-145.5 506.5761,-139.5 506.5761,-133.5 506.5761,-133.5 506.5761,-121.5 506.5761,-121.5 506.5761,-115.5 512.5761,-109.5 518.5761,-109.5 518.5761,-109.5 548.5761,-109.5 548.5761,-109.5 554.5761,-109.5 560.5761,-115.5 560.5761,-121.5 560.5761,-121.5 560.5761,-133.5 560.5761,-133.5 560.5761,-139.5 554.5761,-145.5 548.5761,-145.5"/>
<text text-anchor="middle" x="533.5761" y="-123.3" font-family="Times,serif" font-size="14.00" fill="#ffffff">a 0 &gt;</text>
</g>
<!-- 3 -->
<g id="node7" class="node">
<title>3</title>
<path fill="none" stroke="#000000" d="M705.5084,-109.5C705.5084,-109.5 735.5084,-109.5 735.5084,-109.5 741.5084,-109.5 747.5084,-115.5 747.5084,-121.5 747.5084,-121.5 747.5084,-133.5 747.5084,-133.5 747.5084,-139.5 741.5084,-145.5 735.5084,-145.5 735.5084,-145.5 705.5084,-145.5 705.5084,-145.5 699.5084,-145.5 693.5084,-139.5 693.5084,-133.5 693.5084,-133.5 693.5084,-121.5 693.5084,-121.5 693.5084,-115.5 699.5084,-109.5 705.5084,-109.5"/>
<text text-anchor="middle" x="709.3997" y="-123.4" font-family="Times,serif" font-size="14.00" fill="#000000">P3</text>
<polyline fill="none" stroke="#000000" points="725.291,-109.7 725.291,-145.5 "/>
<text text-anchor="middle" x="736.041" y="-123.4" font-family="Times,serif" font-size="14.00" fill="#000000"> </text>
</g>
<!-- T1&#45;&gt;3 -->
<g id="edge6" class="edge">
<title>T1&#45;&gt;3</title>
<path fill="none" stroke="#000000" d="M560.7577,-127.5C593.0146,-127.5 646.9727,-127.5 683.1412,-127.5"/>
<polygon fill="#000000" stroke="#000000" points="683.2941,-131.0001 693.294,-127.5 683.294,-124.0001 683.2941,-131.0001"/>
<text text-anchor="middle" x="631.7932" y="-131.7" font-family="Times,serif" font-size="14.00" fill="#000000"> [ a 1 + ] </text>
</g>
<!-- T2 -->
<g id="node3" class="node">
<title>T2</title>
<path fill="#3f51b5" stroke="#ffffff" d="M558.0799,-36.5C558.0799,-36.5 509.0723,-36.5 509.0723,-36.5 503.0723,-36.5 497.0723,-30.5 497.0723,-24.5 497.0723,-24.5 497.0723,-12.5 497.0723,-12.5 497.0723,-6.5 503.0723,-.5 509.0723,-.5 509.0723,-.5 558.0799,-.5 558.0799,-.5 564.0799,-.5 570.0799,-6.5 570.0799,-12.5 570.0799,-12.5 570.0799,-24.5 570.0799,-24.5 570.0799,-30.5 564.0799,-36.5 558.0799,-36.5"/>
<text text-anchor="middle" x="533.5761" y="-14.3" font-family="Times,serif" font-size="14.00" fill="#ffffff">a b + 10 &gt;</text>
</g>
<!-- 4 -->
<g id="node8" class="node">
<title>4</title>
<path fill="none" stroke="#000000" d="M705.5084,-.5C705.5084,-.5 735.5084,-.5 735.5084,-.5 741.5084,-.5 747.5084,-6.5 747.5084,-12.5 747.5084,-12.5 747.5084,-24.5 747.5084,-24.5 747.5084,-30.5 741.5084,-36.5 735.5084,-36.5 735.5084,-36.5 705.5084,-36.5 705.5084,-36.5 699.5084,-36.5 693.5084,-30.5 693.5084,-24.5 693.5084,-24.5 693.5084,-12.5 693.5084,-12.5 693.5084,-6.5 699.5084,-.5 705.5084,-.5"/>
<text text-anchor="middle" x="709.3997" y="-14.4" font-family="Times,serif" font-size="14.00" fill="#000000">P4</text>
<polyline fill="none" stroke="#000000" points="725.291,-.7 725.291,-36.5 "/>
<text text-anchor="middle" x="736.041" y="-14.4" font-family="Times,serif" font-size="14.00" fill="#000000"> </text>
</g>
<!-- T2&#45;&gt;4 -->
<g id="edge7" class="edge">
<title>T2&#45;&gt;4</title>
<path fill="none" stroke="#000000" d="M570.5079,-18.5C603.1517,-18.5 650.5329,-18.5 683.2689,-18.5"/>
<polygon fill="#000000" stroke="#000000" points="683.3456,-22.0001 693.3456,-18.5 683.3455,-15.0001 683.3456,-22.0001"/>
<text text-anchor="middle" x="631.7932" y="-22.7" font-family="Times,serif" font-size="14.00" fill="#000000"> [ a ] </text>
</g>
<!-- 0 -->
<g id="node4" class="node">
<title>0</title>
<path fill="none" stroke="#000000" d="M12,-54.5C12,-54.5 42,-54.5 42,-54.5 48,-54.5 54,-60.5 54,-66.5 54,-66.5 54,-78.5 54,-78.5 54,-84.5 48,-90.5 42,-90.5 42,-90.5 12,-90.5 12,-90.5 6,-90.5 0,-84.5 0,-78.5 0,-78.5 0,-66.5 0,-66.5 0,-60.5 6,-54.5 12,-54.5"/>
<text text-anchor="middle" x="15.8913" y="-68.4" font-family="Times,serif" font-size="14.00" fill="#000000">P0</text>
<polyline fill="none" stroke="#000000" points="31.7826,-54.7 31.7826,-90.5 "/>
<text text-anchor="middle" x="42.5326" y="-68.4" font-family="Times,serif" font-size="14.00" fill="#000000"> </text>
</g>
<!-- 0&#45;&gt;T0 -->
<g id="edge1" class="edge">
<title>0&#45;&gt;T0</title>
<path fill="none" stroke="#000000" d="M54.1725,-72.5C75.4445,-72.5 105.2667,-72.5 128.796,-72.5"/>
<polygon fill="#000000" stroke="#000000" points="129.1107,-76.0001 139.1107,-72.5 129.1106,-69.0001 129.1107,-76.0001"/>
<text text-anchor="middle" x="96.6073" y="-76.7" font-family="Times,serif" font-size="14.00" fill="#000000"> a </text>
</g>
<!-- 1&#45;&gt;T1 -->
<g id="edge2" class="edge">
<title>1&#45;&gt;T1</title>
<path fill="none" stroke="#000000" d="M394.4351,-127.5C422.0841,-127.5 465.2208,-127.5 496.1333,-127.5"/>
<polygon fill="#000000" stroke="#000000" points="496.5122,-131.0001 506.5122,-127.5 496.5122,-124.0001 496.5122,-131.0001"/>
<text text-anchor="middle" x="445.7169" y="-131.7" font-family="Times,serif" font-size="14.00" fill="#000000"> a </text>
</g>
<!-- 2&#45;&gt;T2 -->
<g id="edge3" class="edge">
<title>2&#45;&gt;T2</title>
<path fill="none" stroke="#000000" d="M394.4351,-18.5C419.3686,-18.5 456.8969,-18.5 486.6977,-18.5"/>
<polygon fill="#000000" stroke="#000000" points="486.883,-22.0001 496.883,-18.5 486.8829,-15.0001 486.883,-22.0001"/>
<text text-anchor="middle" x="445.7169" y="-22.7" font-family="Times,serif" font-size="14.00" fill="#000000"> a , b </text>
</g>
</g>
</svg>
