<?xml version="1.0" encoding="UTF-8" standalone="no"?>
<!DOCTYPE svg PUBLIC "-//W3C//DTD SVG 1.1//EN"
 "http://www.w3.org/Graphics/SVG/1.1/DTD/svg11.dtd">
<!-- Generated by graphviz version 2.40.1 (20161225.0304)
 -->
<!-- Title: g Pages: 1 -->
<svg width="673pt" height="233pt"
 viewBox="0.00 0.00 673.40 233.00" xmlns="http://www.w3.org/2000/svg" xmlns:xlink="http://www.w3.org/1999/xlink">
<g id="graph0" class="graph" transform="scale(1 1) rotate(0) translate(4 229)">
<title>g</title>
<polygon fill="#ffffff" stroke="transparent" points="-4,4 -4,-229 669.3954,-229 669.3954,4 -4,4"/>
<!-- T0 -->
<g id="node1" class="node">
<title>T0</title>
<path fill="#3f51b5" stroke="#ffffff" d="M181.2146,-36.5C181.2146,-36.5 151.2146,-36.5 151.2146,-36.5 145.2146,-36.5 139.2146,-30.5 139.2146,-24.5 139.2146,-24.5 139.2146,-12.5 139.2146,-12.5 139.2146,-6.5 145.2146,-.5 151.2146,-.5 151.2146,-.5 181.2146,-.5 181.2146,-.5 187.2146,-.5 193.2146,-6.5 193.2146,-12.5 193.2146,-12.5 193.2146,-24.5 193.2146,-24.5 193.2146,-30.5 187.2146,-36.5 181.2146,-36.5"/>
<text text-anchor="middle" x="166.2146" y="-14.3" font-family="Times,serif" font-size="14.00" fill="#ffffff">a 0 ==</text>
</g>
<!-- 1 -->
<g id="node5" class="node">
<title>1</title>
<path fill="none" stroke="#000000" d="M328.645,-40.5C328.645,-40.5 358.645,-40.5 358.645,-40.5 364.645,-40.5 370.645,-46.5 370.645,-52.5 370.645,-52.5 370.645,-64.5 370.645,-64.5 370.645,-70.5 364.645,-76.5 358.645,-76.5 358.645,-76.5 328.645,-76.5 328.645,-76.5 322.645,-76.5 316.645,-70.5 316.645,-64.5 316.645,-64.5 316.645,-52.5 316.645,-52.5 316.645,-46.5 322.645,-40.5 328.645,-40.5"/>
<text text-anchor="middle" x="332.5363" y="-54.4" font-family="Times,serif" font-size="14.00" fill="#000000">P1</text>
<polyline fill="none" stroke="#000000" points="348.4276,-40.7 348.4276,-76.5 "/>
<text text-anchor="middle" x="359.1776" y="-54.4" font-family="Times,serif" font-size="14.00" fill="#000000"> </text>
</g>
<!-- T0&#45;&gt;1 -->
<g id="edge4" class="edge">
<title>T0&#45;&gt;1</title>
<path fill="none" stroke="#000000" d="M193.307,-11.3414C216.9691,-6.3784 251.9253,-2.1999 280.645,-11.7 294.3549,-16.2351 307.511,-25.0365 318.222,-33.7944"/>
<polygon fill="#000000" stroke="#000000" points="316.0437,-36.5375 325.9048,-40.4117 320.6121,-31.2336 316.0437,-36.5375"/>
<text text-anchor="middle" x="254.9298" y="-16.7" font-family="Times,serif" font-size="14.00" fill="#000000"> [ a ] </text>
</g>
<!-- T1 -->
<g id="node2" class="node">
<title>T1</title>
<path fill="#3f51b5" stroke="#ffffff" d="M181.2146,-184.5C181.2146,-184.5 151.2146,-184.5 151.2146,-184.5 145.2146,-184.5 139.2146,-178.5 139.2146,-172.5 139.2146,-172.5 139.2146,-160.5 139.2146,-160.5 139.2146,-154.5 145.2146,-148.5 151.2146,-148.5 151.2146,-148.5 181.2146,-148.5 181.2146,-148.5 187.2146,-148.5 193.2146,-154.5 193.2146,-160.5 193.2146,-160.5 193.2146,-172.5 193.2146,-172.5 193.2146,-178.5 187.2146,-184.5 181.2146,-184.5"/>
<text text-anchor="middle" x="166.2146" y="-162.3" font-family="Times,serif" font-size="14.00" fill="#ffffff">a 0 &lt;=</text>
</g>
<!-- T1&#45;&gt;1 -->
<g id="edge5" class="edge">
<title>T1&#45;&gt;1</title>
<path fill="none" stroke="#000000" d="M193.5493,-149.8617C224.2458,-131.177 274.1729,-100.7869 307.9326,-80.2378"/>
<polygon fill="#000000" stroke="#000000" points="309.8482,-83.1692 316.5704,-74.98 306.2086,-77.1898 309.8482,-83.1692"/>
<text text-anchor="middle" x="254.9298" y="-128.7" font-family="Times,serif" font-size="14.00" fill="#000000"> [ a ] </text>
</g>
<!-- 3 -->
<g id="node7" class="node">
<title>3</title>
<path fill="none" stroke="#000000" d="M328.645,-188.5C328.645,-188.5 358.645,-188.5 358.645,-188.5 364.645,-188.5 370.645,-194.5 370.645,-200.5 370.645,-200.5 370.645,-212.5 370.645,-212.5 370.645,-218.5 364.645,-224.5 358.645,-224.5 358.645,-224.5 328.645,-224.5 328.645,-224.5 322.645,-224.5 316.645,-218.5 316.645,-212.5 316.645,-212.5 316.645,-200.5 316.645,-200.5 316.645,-194.5 322.645,-188.5 328.645,-188.5"/>
<text text-anchor="middle" x="332.5363" y="-202.4" font-family="Times,serif" font-size="14.00" fill="#000000">P3</text>
<polyline fill="none" stroke="#000000" points="348.4276,-188.7 348.4276,-224.5 "/>
<text text-anchor="middle" x="359.1776" y="-202.4" font-family="Times,serif" font-size="14.00" fill="#000000"> </text>
</g>
<!-- T1&#45;&gt;3 -->
<g id="edge6" class="edge">
<title>T1&#45;&gt;3</title>
<path fill="none" stroke="#000000" d="M193.5493,-172.6623C223.8539,-179.4942 272.9013,-190.5515 306.6318,-198.1557"/>
<polygon fill="#000000" stroke="#000000" points="306.0455,-201.6113 316.5704,-200.3963 307.585,-194.7827 306.0455,-201.6113"/>
<text text-anchor="middle" x="254.9298" y="-194.7" font-family="Times,serif" font-size="14.00" fill="#000000"> [ a 1 + ] </text>
</g>
<!-- T2 -->
<g id="node3" class="node">
<title>T2</title>
<path fill="#3f51b5" stroke="#ffffff" d="M497.8596,-224.5C497.8596,-224.5 467.8596,-224.5 467.8596,-224.5 461.8596,-224.5 455.8596,-218.5 455.8596,-212.5 455.8596,-212.5 455.8596,-200.5 455.8596,-200.5 455.8596,-194.5 461.8596,-188.5 467.8596,-188.5 467.8596,-188.5 497.8596,-188.5 497.8596,-188.5 503.8596,-188.5 509.8596,-194.5 509.8596,-200.5 509.8596,-200.5 509.8596,-212.5 509.8596,-212.5 509.8596,-218.5 503.8596,-224.5 497.8596,-224.5"/>
<text text-anchor="middle" x="482.8596" y="-202.3" font-family="Times,serif" font-size="14.00" fill="#ffffff">a 0 &gt;</text>
</g>
<!-- 4 -->
<g id="node8" class="node">
<title>4</title>
<path fill="none" stroke="#000000" d="M623.3954,-188.5C623.3954,-188.5 653.3954,-188.5 653.3954,-188.5 659.3954,-188.5 665.3954,-194.5 665.3954,-200.5 665.3954,-200.5 665.3954,-212.5 665.3954,-212.5 665.3954,-218.5 659.3954,-224.5 653.3954,-224.5 653.3954,-224.5 623.3954,-224.5 623.3954,-224.5 617.3954,-224.5 611.3954,-218.5 611.3954,-212.5 611.3954,-212.5 611.3954,-200.5 611.3954,-200.5 611.3954,-194.5 617.3954,-188.5 623.3954,-188.5"/>
<text text-anchor="middle" x="627.2867" y="-202.4" font-family="Times,serif" font-size="14.00" fill="#000000">P4</text>
<polyline fill="none" stroke="#000000" points="643.178,-188.7 643.178,-224.5 "/>
<text text-anchor="middle" x="653.928" y="-202.4" font-family="Times,serif" font-size="14.00" fill="#000000"> </text>
</g>
<!-- T2&#45;&gt;4 -->
<g id="edge7" class="edge">
<title>T2&#45;&gt;4</title>
<path fill="none" stroke="#000000" d="M509.9519,-206.5C535.1883,-206.5 573.0354,-206.5 601.1159,-206.5"/>
<polygon fill="#000000" stroke="#000000" points="601.3531,-210.0001 611.3531,-206.5 601.3531,-203.0001 601.3531,-210.0001"/>
<text text-anchor="middle" x="560.6275" y="-210.7" font-family="Times,serif" font-size="14.00" fill="#000000"> [ a ] </text>
</g>
<!-- 0 -->
<g id="node4" class="node">
<title>0</title>
<path fill="#4caf50" stroke="#ffffff" d="M12,-.5C12,-.5 42,-.5 42,-.5 48,-.5 54,-6.5 54,-12.5 54,-12.5 54,-24.5 54,-24.5 54,-30.5 48,-36.5 42,-36.5 42,-36.5 12,-36.5 12,-36.5 6,-36.5 0,-30.5 0,-24.5 0,-24.5 0,-12.5 0,-12.5 0,-6.5 6,-.5 12,-.5"/>
<text text-anchor="middle" x="15.8913" y="-14.4" font-family="Times,serif" font-size="14.00" fill="#ffffff">P0</text>
<polyline fill="none" stroke="#ffffff" points="31.7826,-.7 31.7826,-36.5 "/>
<text text-anchor="middle" x="42.5326" y="-14.4" font-family="Times,serif" font-size="14.00" fill="#ffffff"> </text>
</g>
<!-- 0&#45;&gt;T0 -->
<g id="edge1" class="edge">
<title>0&#45;&gt;T0</title>
<path fill="none" stroke="#000000" d="M54.1725,-18.5C75.4445,-18.5 105.2667,-18.5 128.796,-18.5"/>
<polygon fill="#000000" stroke="#000000" points="129.1107,-22.0001 139.1107,-18.5 129.1106,-15.0001 129.1107,-22.0001"/>
<text text-anchor="middle" x="96.6073" y="-22.7" font-family="Times,serif" font-size="14.00" fill="#000000"> a </text>
</g>
<!-- 2 -->
<g id="node6" class="node">
<title>2</title>
<path fill="#4caf50" stroke="#ffffff" d="M12,-148.5C12,-148.5 42,-148.5 42,-148.5 48,-148.5 54,-154.5 54,-160.5 54,-160.5 54,-172.5 54,-172.5 54,-178.5 48,-184.5 42,-184.5 42,-184.5 12,-184.5 12,-184.5 6,-184.5 0,-178.5 0,-172.5 0,-172.5 0,-160.5 0,-160.5 0,-154.5 6,-148.5 12,-148.5"/>
<text text-anchor="middle" x="15.8913" y="-162.4" font-family="Times,serif" font-size="14.00" fill="#ffffff">P2</text>
<polyline fill="none" stroke="#ffffff" points="31.7826,-148.7 31.7826,-184.5 "/>
<text text-anchor="middle" x="42.5326" y="-162.4" font-family="Times,serif" font-size="14.00" fill="#ffffff"> </text>
</g>
<!-- 2&#45;&gt;T1 -->
<g id="edge2" class="edge">
<title>2&#45;&gt;T1</title>
<path fill="none" stroke="#000000" d="M54.1725,-166.5C75.4445,-166.5 105.2667,-166.5 128.796,-166.5"/>
<polygon fill="#000000" stroke="#000000" points="129.1107,-170.0001 139.1107,-166.5 129.1106,-163.0001 129.1107,-170.0001"/>
<text text-anchor="middle" x="96.6073" y="-170.7" font-family="Times,serif" font-size="14.00" fill="#000000"> a </text>
</g>
<!-- 3&#45;&gt;T2 -->
<g id="edge3" class="edge">
<title>3&#45;&gt;T2</title>
<path fill="none" stroke="#000000" d="M370.8175,-206.5C392.0895,-206.5 421.9117,-206.5 445.441,-206.5"/>
<polygon fill="#000000" stroke="#000000" points="445.7557,-210.0001 455.7557,-206.5 445.7556,-203.0001 445.7557,-210.0001"/>
<text text-anchor="middle" x="413.2523" y="-210.7" font-family="Times,serif" font-size="14.00" fill="#000000"> a </text>
</g>
</g>
</svg>
