<?xml version="1.0" encoding="UTF-8" standalone="no"?>
<!DOCTYPE svg PUBLIC "-//W3C//DTD SVG 1.1//EN"
 "http://www.w3.org/Graphics/SVG/1.1/DTD/svg11.dtd">
<!-- Generated by graphviz version 2.40.1 (20161225.0304)
 -->
<!-- Title: g Pages: 1 -->
<svg width="742pt" height="590pt"
 viewBox="0.00 0.00 741.73 590.00" xmlns="http://www.w3.org/2000/svg" xmlns:xlink="http://www.w3.org/1999/xlink">
<g id="graph0" class="graph" transform="scale(1 1) rotate(0) translate(4 586)">
<title>g</title>
<polygon fill="#ffffff" stroke="transparent" points="-4,4 -4,-586 737.7284,-586 737.7284,4 -4,4"/>
<!-- T0 -->
<g id="node1" class="node">
<title>T0</title>
<path fill="#3f51b5" stroke="#ffffff" d="M191.9492,-145.5C191.9492,-145.5 161.9492,-145.5 161.9492,-145.5 155.9492,-145.5 149.9492,-139.5 149.9492,-133.5 149.9492,-133.5 149.9492,-121.5 149.9492,-121.5 149.9492,-115.5 155.9492,-109.5 161.9492,-109.5 161.9492,-109.5 191.9492,-109.5 191.9492,-109.5 197.9492,-109.5 203.9492,-115.5 203.9492,-121.5 203.9492,-121.5 203.9492,-133.5 203.9492,-133.5 203.9492,-139.5 197.9492,-145.5 191.9492,-145.5"/>
<text text-anchor="middle" x="176.9492" y="-123.3" font-family="Times,serif" font-size="14.00" fill="#ffffff">a 0 &gt;=</text>
</g>
<!-- 6 -->
<g id="node11" class="node">
<title>6</title>
<path fill="none" stroke="#000000" d="M342.3288,-249.5C342.3288,-249.5 372.3288,-249.5 372.3288,-249.5 378.3288,-249.5 384.3288,-255.5 384.3288,-261.5 384.3288,-261.5 384.3288,-273.5 384.3288,-273.5 384.3288,-279.5 378.3288,-285.5 372.3288,-285.5 372.3288,-285.5 342.3288,-285.5 342.3288,-285.5 336.3288,-285.5 330.3288,-279.5 330.3288,-273.5 330.3288,-273.5 330.3288,-261.5 330.3288,-261.5 330.3288,-255.5 336.3288,-249.5 342.3288,-249.5"/>
<text text-anchor="middle" x="346.2201" y="-263.4" font-family="Times,serif" font-size="14.00" fill="#000000">P6</text>
<polyline fill="none" stroke="#000000" points="362.1114,-249.7 362.1114,-285.5 "/>
<text text-anchor="middle" x="372.8614" y="-263.4" font-family="Times,serif" font-size="14.00" fill="#000000"> </text>
</g>
<!-- T0&#45;&gt;6 -->
<g id="edge8" class="edge">
<title>T0&#45;&gt;6</title>
<path fill="none" stroke="#000000" d="M200.1614,-145.5159C232.1379,-170.3342 289.8479,-215.1253 325.7343,-242.9783"/>
<polygon fill="#000000" stroke="#000000" points="323.8742,-245.965 333.92,-249.3315 328.1662,-240.4351 323.8742,-245.965"/>
<text text-anchor="middle" x="272.1136" y="-221.7" font-family="Times,serif" font-size="14.00" fill="#000000">[ a b + ]</text>
</g>
<!-- T1 -->
<g id="node2" class="node">
<title>T1</title>
<path fill="#3f51b5" stroke="#ffffff" d="M201.8477,-472.5C201.8477,-472.5 152.0507,-472.5 152.0507,-472.5 146.0507,-472.5 140.0507,-466.5 140.0507,-460.5 140.0507,-460.5 140.0507,-448.5 140.0507,-448.5 140.0507,-442.5 146.0507,-436.5 152.0507,-436.5 152.0507,-436.5 201.8477,-436.5 201.8477,-436.5 207.8477,-436.5 213.8477,-442.5 213.8477,-448.5 213.8477,-448.5 213.8477,-460.5 213.8477,-460.5 213.8477,-466.5 207.8477,-472.5 201.8477,-472.5"/>
<text text-anchor="middle" x="176.9492" y="-450.3" font-family="Times,serif" font-size="14.00" fill="#ffffff">c d + 0 &gt;=</text>
</g>
<!-- T1&#45;&gt;6 -->
<g id="edge9" class="edge">
<title>T1&#45;&gt;6</title>
<path fill="none" stroke="#000000" d="M194.5732,-436.2292C226.8503,-402.7673 295.5284,-331.5686 332.5124,-293.2272"/>
<polygon fill="#000000" stroke="#000000" points="335.4754,-295.1969 339.8988,-285.5697 330.4372,-290.3371 335.4754,-295.1969"/>
<text text-anchor="middle" x="272.1136" y="-381.7" font-family="Times,serif" font-size="14.00" fill="#000000">[ c d &#45; ]</text>
</g>
<!-- T2 -->
<g id="node3" class="node">
<title>T2</title>
<path fill="#3f51b5" stroke="#ffffff" d="M197.953,-285.5C197.953,-285.5 155.9454,-285.5 155.9454,-285.5 149.9454,-285.5 143.9454,-279.5 143.9454,-273.5 143.9454,-273.5 143.9454,-261.5 143.9454,-261.5 143.9454,-255.5 149.9454,-249.5 155.9454,-249.5 155.9454,-249.5 197.953,-249.5 197.953,-249.5 203.953,-249.5 209.953,-255.5 209.953,-261.5 209.953,-261.5 209.953,-273.5 209.953,-273.5 209.953,-279.5 203.953,-285.5 197.953,-285.5"/>
<text text-anchor="middle" x="176.9492" y="-263.3" font-family="Times,serif" font-size="14.00" fill="#ffffff">c 4.3 &lt;= </text>
</g>
<!-- T2&#45;&gt;6 -->
<g id="edge10" class="edge">
<title>T2&#45;&gt;6</title>
<path fill="none" stroke="#000000" d="M210.0336,-267.5C241.0106,-267.5 287.2557,-267.5 319.6424,-267.5"/>
<polygon fill="#000000" stroke="#000000" points="320.0525,-271.0001 330.0524,-267.5 320.0524,-264.0001 320.0525,-271.0001"/>
<text text-anchor="middle" x="272.1136" y="-271.7" font-family="Times,serif" font-size="14.00" fill="#000000">[ e f * ]</text>
</g>
<!-- T3 -->
<g id="node4" class="node">
<title>T3</title>
<path fill="#3f51b5" stroke="#ffffff" d="M550.6047,-285.5C550.6047,-285.5 482.2367,-285.5 482.2367,-285.5 476.2367,-285.5 470.2367,-279.5 470.2367,-273.5 470.2367,-273.5 470.2367,-261.5 470.2367,-261.5 470.2367,-255.5 476.2367,-249.5 482.2367,-249.5 482.2367,-249.5 550.6047,-249.5 550.6047,-249.5 556.6047,-249.5 562.6047,-255.5 562.6047,-261.5 562.6047,-261.5 562.6047,-273.5 562.6047,-273.5 562.6047,-279.5 556.6047,-285.5 550.6047,-285.5"/>
<text text-anchor="middle" x="516.4207" y="-263.3" font-family="Times,serif" font-size="14.00" fill="#ffffff">x 3.5 + 10 &gt;=</text>
</g>
<!-- 7 -->
<g id="node12" class="node">
<title>7</title>
<path fill="none" stroke="#000000" d="M691.7284,-249.5C691.7284,-249.5 721.7284,-249.5 721.7284,-249.5 727.7284,-249.5 733.7284,-255.5 733.7284,-261.5 733.7284,-261.5 733.7284,-273.5 733.7284,-273.5 733.7284,-279.5 727.7284,-285.5 721.7284,-285.5 721.7284,-285.5 691.7284,-285.5 691.7284,-285.5 685.7284,-285.5 679.7284,-279.5 679.7284,-273.5 679.7284,-273.5 679.7284,-261.5 679.7284,-261.5 679.7284,-255.5 685.7284,-249.5 691.7284,-249.5"/>
<text text-anchor="middle" x="695.6197" y="-263.4" font-family="Times,serif" font-size="14.00" fill="#000000">P7</text>
<polyline fill="none" stroke="#000000" points="711.511,-249.7 711.511,-285.5 "/>
<text text-anchor="middle" x="722.261" y="-263.4" font-family="Times,serif" font-size="14.00" fill="#000000"> </text>
</g>
<!-- T3&#45;&gt;7 -->
<g id="edge11" class="edge">
<title>T3&#45;&gt;7</title>
<path fill="none" stroke="#000000" d="M562.9752,-267.5C595.6553,-267.5 638.7899,-267.5 669.2554,-267.5"/>
<polygon fill="#000000" stroke="#000000" points="669.4651,-271.0001 679.4651,-267.5 669.4651,-264.0001 669.4651,-271.0001"/>
<text text-anchor="middle" x="621.1205" y="-271.7" font-family="Times,serif" font-size="14.00" fill="#000000">[ x 1 + ]</text>
</g>
<!-- 0 -->
<g id="node5" class="node">
<title>0</title>
<path fill="none" stroke="#000000" d="M12,-109.5C12,-109.5 42,-109.5 42,-109.5 48,-109.5 54,-115.5 54,-121.5 54,-121.5 54,-133.5 54,-133.5 54,-139.5 48,-145.5 42,-145.5 42,-145.5 12,-145.5 12,-145.5 6,-145.5 0,-139.5 0,-133.5 0,-133.5 0,-121.5 0,-121.5 0,-115.5 6,-109.5 12,-109.5"/>
<text text-anchor="middle" x="15.8913" y="-123.4" font-family="Times,serif" font-size="14.00" fill="#000000">P0</text>
<polyline fill="none" stroke="#000000" points="31.7826,-109.7 31.7826,-145.5 "/>
<text text-anchor="middle" x="42.5326" y="-123.4" font-family="Times,serif" font-size="14.00" fill="#000000"> </text>
</g>
<!-- 0&#45;&gt;T0 -->
<g id="edge1" class="edge">
<title>0&#45;&gt;T0</title>
<path fill="none" stroke="#000000" d="M54.1547,-127.5C78.0713,-127.5 113.1303,-127.5 139.6707,-127.5"/>
<polygon fill="#000000" stroke="#000000" points="139.7436,-131.0001 149.7436,-127.5 139.7436,-124.0001 139.7436,-131.0001"/>
<text text-anchor="middle" x="97" y="-131.7" font-family="Times,serif" font-size="14.00" fill="#000000"> a </text>
</g>
<!-- 1 -->
<g id="node6" class="node">
<title>1</title>
<path fill="none" stroke="#000000" d="M12,-.5C12,-.5 42,-.5 42,-.5 48,-.5 54,-6.5 54,-12.5 54,-12.5 54,-24.5 54,-24.5 54,-30.5 48,-36.5 42,-36.5 42,-36.5 12,-36.5 12,-36.5 6,-36.5 0,-30.5 0,-24.5 0,-24.5 0,-12.5 0,-12.5 0,-6.5 6,-.5 12,-.5"/>
<text text-anchor="middle" x="15.8913" y="-14.4" font-family="Times,serif" font-size="14.00" fill="#000000">P1</text>
<polyline fill="none" stroke="#000000" points="31.7826,-.7 31.7826,-36.5 "/>
<text text-anchor="middle" x="42.5326" y="-14.4" font-family="Times,serif" font-size="14.00" fill="#000000"> </text>
</g>
<!-- 1&#45;&gt;T0 -->
<g id="edge2" class="edge">
<title>1&#45;&gt;T0</title>
<path fill="none" stroke="#000000" d="M52.0981,-36.7441C77.1829,-54.9786 115.9003,-83.1228 143.5656,-103.233"/>
<polygon fill="#000000" stroke="#000000" points="141.6225,-106.1475 151.7692,-109.1963 145.7384,-100.4854 141.6225,-106.1475"/>
<text text-anchor="middle" x="97" y="-77.7" font-family="Times,serif" font-size="14.00" fill="#000000"> b </text>
</g>
<!-- 2 -->
<g id="node7" class="node">
<title>2</title>
<path fill="none" stroke="#000000" d="M12,-545.5C12,-545.5 42,-545.5 42,-545.5 48,-545.5 54,-551.5 54,-557.5 54,-557.5 54,-569.5 54,-569.5 54,-575.5 48,-581.5 42,-581.5 42,-581.5 12,-581.5 12,-581.5 6,-581.5 0,-575.5 0,-569.5 0,-569.5 0,-557.5 0,-557.5 0,-551.5 6,-545.5 12,-545.5"/>
<text text-anchor="middle" x="15.8913" y="-559.4" font-family="Times,serif" font-size="14.00" fill="#000000">P2</text>
<polyline fill="none" stroke="#000000" points="31.7826,-545.7 31.7826,-581.5 "/>
<text text-anchor="middle" x="42.5326" y="-559.4" font-family="Times,serif" font-size="14.00" fill="#000000"> </text>
</g>
<!-- 2&#45;&gt;T1 -->
<g id="edge3" class="edge">
<title>2&#45;&gt;T1</title>
<path fill="none" stroke="#000000" d="M52.0981,-545.2559C77.1829,-527.0214 115.9003,-498.8772 143.5656,-478.767"/>
<polygon fill="#000000" stroke="#000000" points="145.7384,-481.5146 151.7692,-472.8037 141.6225,-475.8525 145.7384,-481.5146"/>
<text text-anchor="middle" x="97" y="-519.7" font-family="Times,serif" font-size="14.00" fill="#000000"> c </text>
</g>
<!-- 3 -->
<g id="node8" class="node">
<title>3</title>
<path fill="none" stroke="#000000" d="M12,-436.5C12,-436.5 42,-436.5 42,-436.5 48,-436.5 54,-442.5 54,-448.5 54,-448.5 54,-460.5 54,-460.5 54,-466.5 48,-472.5 42,-472.5 42,-472.5 12,-472.5 12,-472.5 6,-472.5 0,-466.5 0,-460.5 0,-460.5 0,-448.5 0,-448.5 0,-442.5 6,-436.5 12,-436.5"/>
<text text-anchor="middle" x="15.8913" y="-450.4" font-family="Times,serif" font-size="14.00" fill="#000000">P3</text>
<polyline fill="none" stroke="#000000" points="31.7826,-436.7 31.7826,-472.5 "/>
<text text-anchor="middle" x="42.5326" y="-450.4" font-family="Times,serif" font-size="14.00" fill="#000000"> </text>
</g>
<!-- 3&#45;&gt;T1 -->
<g id="edge4" class="edge">
<title>3&#45;&gt;T1</title>
<path fill="none" stroke="#000000" d="M54.1547,-454.5C75.1273,-454.5 104.668,-454.5 129.5192,-454.5"/>
<polygon fill="#000000" stroke="#000000" points="129.844,-458.0001 139.844,-454.5 129.844,-451.0001 129.844,-458.0001"/>
<text text-anchor="middle" x="97" y="-458.7" font-family="Times,serif" font-size="14.00" fill="#000000"> d </text>
</g>
<!-- 4 -->
<g id="node9" class="node">
<title>4</title>
<path fill="none" stroke="#000000" d="M12,-327.5C12,-327.5 42,-327.5 42,-327.5 48,-327.5 54,-333.5 54,-339.5 54,-339.5 54,-351.5 54,-351.5 54,-357.5 48,-363.5 42,-363.5 42,-363.5 12,-363.5 12,-363.5 6,-363.5 0,-357.5 0,-351.5 0,-351.5 0,-339.5 0,-339.5 0,-333.5 6,-327.5 12,-327.5"/>
<text text-anchor="middle" x="15.8913" y="-341.4" font-family="Times,serif" font-size="14.00" fill="#000000">P4</text>
<polyline fill="none" stroke="#000000" points="31.7826,-327.7 31.7826,-363.5 "/>
<text text-anchor="middle" x="42.5326" y="-341.4" font-family="Times,serif" font-size="14.00" fill="#000000"> </text>
</g>
<!-- 4&#45;&gt;T2 -->
<g id="edge5" class="edge">
<title>4&#45;&gt;T2</title>
<path fill="none" stroke="#000000" d="M54.1547,-331.3748C76.5541,-319.7231 108.7271,-302.9875 134.5221,-289.5696"/>
<polygon fill="#000000" stroke="#000000" points="136.4506,-292.5117 143.707,-284.7918 133.2202,-286.3016 136.4506,-292.5117"/>
<text text-anchor="middle" x="97" y="-314.7" font-family="Times,serif" font-size="14.00" fill="#000000"> e </text>
</g>
<!-- 5 -->
<g id="node10" class="node">
<title>5</title>
<path fill="none" stroke="#000000" d="M12,-218.5C12,-218.5 42,-218.5 42,-218.5 48,-218.5 54,-224.5 54,-230.5 54,-230.5 54,-242.5 54,-242.5 54,-248.5 48,-254.5 42,-254.5 42,-254.5 12,-254.5 12,-254.5 6,-254.5 0,-248.5 0,-242.5 0,-242.5 0,-230.5 0,-230.5 0,-224.5 6,-218.5 12,-218.5"/>
<text text-anchor="middle" x="15.8913" y="-232.4" font-family="Times,serif" font-size="14.00" fill="#000000">P5</text>
<polyline fill="none" stroke="#000000" points="31.7826,-218.7 31.7826,-254.5 "/>
<text text-anchor="middle" x="42.5326" y="-232.4" font-family="Times,serif" font-size="14.00" fill="#000000"> </text>
</g>
<!-- 5&#45;&gt;T2 -->
<g id="edge6" class="edge">
<title>5&#45;&gt;T2</title>
<path fill="none" stroke="#000000" d="M54.347,-234.9941C69.1817,-234.748 87.755,-235.3683 104,-238.7 114.1039,-240.7722 124.6154,-244.1397 134.4087,-247.8545"/>
<polygon fill="#000000" stroke="#000000" points="133.3359,-251.1947 143.921,-251.65 135.9301,-244.6932 133.3359,-251.1947"/>
<text text-anchor="middle" x="97" y="-242.7" font-family="Times,serif" font-size="14.00" fill="#000000"> f </text>
</g>
<!-- 6&#45;&gt;T3 -->
<g id="edge7" class="edge">
<title>6&#45;&gt;T3</title>
<path fill="none" stroke="#000000" d="M384.6777,-267.5C405.2916,-267.5 434.2787,-267.5 459.8162,-267.5"/>
<polygon fill="#000000" stroke="#000000" points="460.1443,-271.0001 470.1442,-267.5 460.1442,-264.0001 460.1443,-271.0001"/>
<text text-anchor="middle" x="427.3288" y="-271.7" font-family="Times,serif" font-size="14.00" fill="#000000"> x </text>
</g>
</g>
</svg>
