<?xml version="1.0" encoding="UTF-8" standalone="no"?>
<!DOCTYPE svg PUBLIC "-//W3C//DTD SVG 1.1//EN"
 "http://www.w3.org/Graphics/SVG/1.1/DTD/svg11.dtd">
<!-- Generated by graphviz version 2.40.1 (20161225.0304)
 -->
<!-- Title: g Pages: 1 -->
<svg width="1261pt" height="45pt"
 viewBox="0.00 0.00 1260.96 45.00" xmlns="http://www.w3.org/2000/svg" xmlns:xlink="http://www.w3.org/1999/xlink">
<g id="graph0" class="graph" transform="scale(1 1) rotate(0) translate(4 41)">
<title>g</title>
<polygon fill="#ffffff" stroke="transparent" points="-4,4 -4,-41 1256.9576,-41 1256.9576,4 -4,4"/>
<!-- T0 -->
<g id="node1" class="node">
<title>T0</title>
<path fill="#3f51b5" stroke="#ffffff" d="M198.7146,-36.5C198.7146,-36.5 168.7146,-36.5 168.7146,-36.5 162.7146,-36.5 156.7146,-30.5 156.7146,-24.5 156.7146,-24.5 156.7146,-12.5 156.7146,-12.5 156.7146,-6.5 162.7146,-.5 168.7146,-.5 168.7146,-.5 198.7146,-.5 198.7146,-.5 204.7146,-.5 210.7146,-6.5 210.7146,-12.5 210.7146,-12.5 210.7146,-24.5 210.7146,-24.5 210.7146,-30.5 204.7146,-36.5 198.7146,-36.5"/>
</g>
<!-- 1 -->
<g id="node5" class="node">
<title>1</title>
<path fill="none" stroke="#000000" d="M374.5202,-.5C374.5202,-.5 404.5202,-.5 404.5202,-.5 410.5202,-.5 416.5202,-6.5 416.5202,-12.5 416.5202,-12.5 416.5202,-24.5 416.5202,-24.5 416.5202,-30.5 410.5202,-36.5 404.5202,-36.5 404.5202,-36.5 374.5202,-36.5 374.5202,-36.5 368.5202,-36.5 362.5202,-30.5 362.5202,-24.5 362.5202,-24.5 362.5202,-12.5 362.5202,-12.5 362.5202,-6.5 368.5202,-.5 374.5202,-.5"/>
<text text-anchor="middle" x="378.4115" y="-14.4" font-family="Times,serif" font-size="14.00" fill="#000000">P1</text>
<polyline fill="none" stroke="#000000" points="394.3028,-.7 394.3028,-36.5 "/>
<text text-anchor="middle" x="405.0528" y="-14.4" font-family="Times,serif" font-size="14.00" fill="#000000"> </text>
</g>
<!-- T0&#45;&gt;1 -->
<g id="edge4" class="edge">
<title>T0&#45;&gt;1</title>
<path fill="none" stroke="#000000" d="M211.044,-18.5C247.3556,-18.5 311.6482,-18.5 352.3474,-18.5"/>
<polygon fill="#000000" stroke="#000000" points="352.4056,-22.0001 362.4056,-18.5 352.4055,-15.0001 352.4056,-22.0001"/>
<text text-anchor="middle" x="286.6174" y="-22.7" font-family="Times,serif" font-size="14.00" fill="#000000">[ a b + , a b &#45; ]</text>
</g>
<!-- T1 -->
<g id="node2" class="node">
<title>T1</title>
<path fill="#3f51b5" stroke="#ffffff" d="M662.0277,-36.5C662.0277,-36.5 532.0177,-36.5 532.0177,-36.5 526.0177,-36.5 520.0177,-30.5 520.0177,-24.5 520.0177,-24.5 520.0177,-12.5 520.0177,-12.5 520.0177,-6.5 526.0177,-.5 532.0177,-.5 532.0177,-.5 662.0277,-.5 662.0277,-.5 668.0277,-.5 674.0277,-6.5 674.0277,-12.5 674.0277,-12.5 674.0277,-24.5 674.0277,-24.5 674.0277,-30.5 668.0277,-36.5 662.0277,-36.5"/>
<text text-anchor="middle" x="597.0227" y="-14.3" font-family="Times,serif" font-size="14.00" fill="#ffffff">x 2 y * &#45; 3 * 3 y &#45; + 0 &gt;=</text>
</g>
<!-- 2 -->
<g id="node6" class="node">
<title>2</title>
<path fill="none" stroke="#000000" d="M849.007,-.5C849.007,-.5 879.007,-.5 879.007,-.5 885.007,-.5 891.007,-6.5 891.007,-12.5 891.007,-12.5 891.007,-24.5 891.007,-24.5 891.007,-30.5 885.007,-36.5 879.007,-36.5 879.007,-36.5 849.007,-36.5 849.007,-36.5 843.007,-36.5 837.007,-30.5 837.007,-24.5 837.007,-24.5 837.007,-12.5 837.007,-12.5 837.007,-6.5 843.007,-.5 849.007,-.5"/>
<text text-anchor="middle" x="852.8983" y="-14.4" font-family="Times,serif" font-size="14.00" fill="#000000">P2</text>
<polyline fill="none" stroke="#000000" points="868.7896,-.7 868.7896,-36.5 "/>
<text text-anchor="middle" x="879.5396" y="-14.4" font-family="Times,serif" font-size="14.00" fill="#000000"> </text>
</g>
<!-- T1&#45;&gt;2 -->
<g id="edge5" class="edge">
<title>T1&#45;&gt;2</title>
<path fill="none" stroke="#000000" d="M674.2456,-18.5C724.3259,-18.5 787.3388,-18.5 826.6548,-18.5"/>
<polygon fill="#000000" stroke="#000000" points="826.843,-22.0001 836.843,-18.5 826.8429,-15.0001 826.843,-22.0001"/>
<text text-anchor="middle" x="755.5161" y="-22.7" font-family="Times,serif" font-size="14.00" fill="#000000">[ x 5 * 10 y * &#45; ]</text>
</g>
<!-- T2 -->
<g id="node3" class="node">
<title>T2</title>
<path fill="#3f51b5" stroke="#ffffff" d="M1092.5221,-36.5C1092.5221,-36.5 988.1213,-36.5 988.1213,-36.5 982.1213,-36.5 976.1213,-30.5 976.1213,-24.5 976.1213,-24.5 976.1213,-12.5 976.1213,-12.5 976.1213,-6.5 982.1213,-.5 988.1213,-.5 988.1213,-.5 1092.5221,-.5 1092.5221,-.5 1098.5221,-.5 1104.5221,-6.5 1104.5221,-12.5 1104.5221,-12.5 1104.5221,-24.5 1104.5221,-24.5 1104.5221,-30.5 1098.5221,-36.5 1092.5221,-36.5"/>
<text text-anchor="middle" x="1040.3217" y="-14.3" font-family="Times,serif" font-size="14.00" fill="#ffffff">c 2 * 3 &#45; c 3 &#45; &#45; 0 &gt;=</text>
</g>
<!-- 3 -->
<g id="node7" class="node">
<title>3</title>
<path fill="none" stroke="#000000" d="M1210.9576,-.5C1210.9576,-.5 1240.9576,-.5 1240.9576,-.5 1246.9576,-.5 1252.9576,-6.5 1252.9576,-12.5 1252.9576,-12.5 1252.9576,-24.5 1252.9576,-24.5 1252.9576,-30.5 1246.9576,-36.5 1240.9576,-36.5 1240.9576,-36.5 1210.9576,-36.5 1210.9576,-36.5 1204.9576,-36.5 1198.9576,-30.5 1198.9576,-24.5 1198.9576,-24.5 1198.9576,-12.5 1198.9576,-12.5 1198.9576,-6.5 1204.9576,-.5 1210.9576,-.5"/>
<text text-anchor="middle" x="1214.8489" y="-14.4" font-family="Times,serif" font-size="14.00" fill="#000000">P3</text>
<polyline fill="none" stroke="#000000" points="1230.7402,-.7 1230.7402,-36.5 "/>
<text text-anchor="middle" x="1241.4902" y="-14.4" font-family="Times,serif" font-size="14.00" fill="#000000"> </text>
</g>
<!-- T2&#45;&gt;3 -->
<g id="edge6" class="edge">
<title>T2&#45;&gt;3</title>
<path fill="none" stroke="#000000" d="M1104.467,-18.5C1132.5843,-18.5 1164.5943,-18.5 1188.6965,-18.5"/>
<polygon fill="#000000" stroke="#000000" points="1188.8388,-22.0001 1198.8388,-18.5 1188.8388,-15.0001 1188.8388,-22.0001"/>
<text text-anchor="middle" x="1151.6897" y="-22.7" font-family="Times,serif" font-size="14.00" fill="#000000">[ c ]</text>
</g>
<!-- 0 -->
<g id="node4" class="node">
<title>0</title>
<path fill="none" stroke="#000000" d="M12,-.5C12,-.5 42,-.5 42,-.5 48,-.5 54,-6.5 54,-12.5 54,-12.5 54,-24.5 54,-24.5 54,-30.5 48,-36.5 42,-36.5 42,-36.5 12,-36.5 12,-36.5 6,-36.5 0,-30.5 0,-24.5 0,-24.5 0,-12.5 0,-12.5 0,-6.5 6,-.5 12,-.5"/>
<text text-anchor="middle" x="15.8913" y="-14.4" font-family="Times,serif" font-size="14.00" fill="#000000">P0</text>
<polyline fill="none" stroke="#000000" points="31.7826,-.7 31.7826,-36.5 "/>
<text text-anchor="middle" x="42.5326" y="-14.4" font-family="Times,serif" font-size="14.00" fill="#000000"> </text>
</g>
<!-- 0&#45;&gt;T0 -->
<g id="edge1" class="edge">
<title>0&#45;&gt;T0</title>
<path fill="none" stroke="#000000" d="M54.2976,-18.5C79.7253,-18.5 117.8592,-18.5 146.1525,-18.5"/>
<polygon fill="#000000" stroke="#000000" points="146.4674,-22.0001 156.4674,-18.5 146.4673,-15.0001 146.4674,-22.0001"/>
<text text-anchor="middle" x="105.3573" y="-22.7" font-family="Times,serif" font-size="14.00" fill="#000000"> a , b </text>
</g>
<!-- 1&#45;&gt;T1 -->
<g id="edge2" class="edge">
<title>1&#45;&gt;T1</title>
<path fill="none" stroke="#000000" d="M416.6475,-18.5C440.342,-18.5 476.0833,-18.5 509.5166,-18.5"/>
<polygon fill="#000000" stroke="#000000" points="509.8025,-22.0001 519.8025,-18.5 509.8025,-15.0001 509.8025,-22.0001"/>
<text text-anchor="middle" x="468.2702" y="-22.7" font-family="Times,serif" font-size="14.00" fill="#000000"> x , y </text>
</g>
<!-- 2&#45;&gt;T2 -->
<g id="edge3" class="edge">
<title>2&#45;&gt;T2</title>
<path fill="none" stroke="#000000" d="M891.1698,-18.5C911.2129,-18.5 939.5066,-18.5 966.0719,-18.5"/>
<polygon fill="#000000" stroke="#000000" points="966.1479,-22.0001 976.1478,-18.5 966.1478,-15.0001 966.1479,-22.0001"/>
<text text-anchor="middle" x="933.6143" y="-22.7" font-family="Times,serif" font-size="14.00" fill="#000000"> c </text>
</g>
</g>
</svg>
