<?xml version="1.0" encoding="UTF-8" standalone="no"?>
<!DOCTYPE svg PUBLIC "-//W3C//DTD SVG 1.1//EN"
 "http://www.w3.org/Graphics/SVG/1.1/DTD/svg11.dtd">
<!-- Generated by graphviz version 2.40.1 (20161225.0304)
 -->
<!-- Title: g Pages: 1 -->
<svg width="882pt" height="45pt"
 viewBox="0.00 0.00 882.04 45.00" xmlns="http://www.w3.org/2000/svg" xmlns:xlink="http://www.w3.org/1999/xlink">
<g id="graph0" class="graph" transform="scale(1 1) rotate(0) translate(4 41)">
<title>g</title>
<polygon fill="#ffffff" stroke="transparent" points="-4,4 -4,-41 878.039,-41 878.039,4 -4,4"/>
<!-- T0 -->
<g id="node1" class="node">
<title>T0</title>
<path fill="#3f51b5" stroke="#ffffff" d="M181.2146,-36.5C181.2146,-36.5 151.2146,-36.5 151.2146,-36.5 145.2146,-36.5 139.2146,-30.5 139.2146,-24.5 139.2146,-24.5 139.2146,-12.5 139.2146,-12.5 139.2146,-6.5 145.2146,-.5 151.2146,-.5 151.2146,-.5 181.2146,-.5 181.2146,-.5 187.2146,-.5 193.2146,-6.5 193.2146,-12.5 193.2146,-12.5 193.2146,-24.5 193.2146,-24.5 193.2146,-30.5 187.2146,-36.5 181.2146,-36.5"/>
</g>
<!-- 1 -->
<g id="node4" class="node">
<title>1</title>
<path fill="none" stroke="#000000" d="M426.1074,-.5C426.1074,-.5 456.1074,-.5 456.1074,-.5 462.1074,-.5 468.1074,-6.5 468.1074,-12.5 468.1074,-12.5 468.1074,-24.5 468.1074,-24.5 468.1074,-30.5 462.1074,-36.5 456.1074,-36.5 456.1074,-36.5 426.1074,-36.5 426.1074,-36.5 420.1074,-36.5 414.1074,-30.5 414.1074,-24.5 414.1074,-24.5 414.1074,-12.5 414.1074,-12.5 414.1074,-6.5 420.1074,-.5 426.1074,-.5"/>
<text text-anchor="middle" x="429.9987" y="-14.4" font-family="Times,serif" font-size="14.00" fill="#000000">P1</text>
<polyline fill="none" stroke="#000000" points="445.89,-.7 445.89,-36.5 "/>
<text text-anchor="middle" x="456.64" y="-14.4" font-family="Times,serif" font-size="14.00" fill="#000000"> </text>
</g>
<!-- T0&#45;&gt;1 -->
<g id="edge3" class="edge">
<title>T0&#45;&gt;1</title>
<path fill="none" stroke="#000000" d="M193.3247,-18.5C242.6979,-18.5 347.3577,-18.5 403.5593,-18.5"/>
<polygon fill="#000000" stroke="#000000" points="403.7941,-22.0001 413.7941,-18.5 403.794,-15.0001 403.7941,-22.0001"/>
<text text-anchor="middle" x="303.661" y="-22.7" font-family="Times,serif" font-size="14.00" fill="#000000">[ &#45;10 a * &#45;1 * &#45;1 * , a &#45;1 * ]</text>
</g>
<!-- T1 -->
<g id="node2" class="node">
<title>T1</title>
<path fill="#3f51b5" stroke="#ffffff" d="M712.773,-36.5C712.773,-36.5 583.5522,-36.5 583.5522,-36.5 577.5522,-36.5 571.5522,-30.5 571.5522,-24.5 571.5522,-24.5 571.5522,-12.5 571.5522,-12.5 571.5522,-6.5 577.5522,-.5 583.5522,-.5 583.5522,-.5 712.773,-.5 712.773,-.5 718.773,-.5 724.773,-6.5 724.773,-12.5 724.773,-12.5 724.773,-24.5 724.773,-24.5 724.773,-30.5 718.773,-36.5 712.773,-36.5"/>
<text text-anchor="middle" x="648.1626" y="-14.3" font-family="Times,serif" font-size="14.00" fill="#ffffff">5 y * 1 3 &#45; x * &#45; 4 * 0 &gt;=</text>
</g>
<!-- 2 -->
<g id="node5" class="node">
<title>2</title>
<path fill="none" stroke="#000000" d="M832.039,-.5C832.039,-.5 862.039,-.5 862.039,-.5 868.039,-.5 874.039,-6.5 874.039,-12.5 874.039,-12.5 874.039,-24.5 874.039,-24.5 874.039,-30.5 868.039,-36.5 862.039,-36.5 862.039,-36.5 832.039,-36.5 832.039,-36.5 826.039,-36.5 820.039,-30.5 820.039,-24.5 820.039,-24.5 820.039,-12.5 820.039,-12.5 820.039,-6.5 826.039,-.5 832.039,-.5"/>
<text text-anchor="middle" x="835.9303" y="-14.4" font-family="Times,serif" font-size="14.00" fill="#000000">P2</text>
<polyline fill="none" stroke="#000000" points="851.8216,-.7 851.8216,-36.5 "/>
<text text-anchor="middle" x="862.5716" y="-14.4" font-family="Times,serif" font-size="14.00" fill="#000000"> </text>
</g>
<!-- T1&#45;&gt;2 -->
<g id="edge4" class="edge">
<title>T1&#45;&gt;2</title>
<path fill="none" stroke="#000000" d="M724.7689,-18.5C753.936,-18.5 785.8735,-18.5 809.7913,-18.5"/>
<polygon fill="#000000" stroke="#000000" points="809.8478,-22.0001 819.8477,-18.5 809.8477,-15.0001 809.8478,-22.0001"/>
<text text-anchor="middle" x="772.3784" y="-22.7" font-family="Times,serif" font-size="14.00" fill="#000000">[ x ]</text>
</g>
<!-- 0 -->
<g id="node3" class="node">
<title>0</title>
<path fill="none" stroke="#000000" d="M12,-.5C12,-.5 42,-.5 42,-.5 48,-.5 54,-6.5 54,-12.5 54,-12.5 54,-24.5 54,-24.5 54,-30.5 48,-36.5 42,-36.5 42,-36.5 12,-36.5 12,-36.5 6,-36.5 0,-30.5 0,-24.5 0,-24.5 0,-12.5 0,-12.5 0,-6.5 6,-.5 12,-.5"/>
<text text-anchor="middle" x="15.8913" y="-14.4" font-family="Times,serif" font-size="14.00" fill="#000000">P0</text>
<polyline fill="none" stroke="#000000" points="31.7826,-.7 31.7826,-36.5 "/>
<text text-anchor="middle" x="42.5326" y="-14.4" font-family="Times,serif" font-size="14.00" fill="#000000"> </text>
</g>
<!-- 0&#45;&gt;T0 -->
<g id="edge1" class="edge">
<title>0&#45;&gt;T0</title>
<path fill="none" stroke="#000000" d="M54.1725,-18.5C75.4445,-18.5 105.2667,-18.5 128.796,-18.5"/>
<polygon fill="#000000" stroke="#000000" points="129.1107,-22.0001 139.1107,-18.5 129.1106,-15.0001 129.1107,-22.0001"/>
<text text-anchor="middle" x="96.6073" y="-22.7" font-family="Times,serif" font-size="14.00" fill="#000000"> a </text>
</g>
<!-- 1&#45;&gt;T1 -->
<g id="edge2" class="edge">
<title>1&#45;&gt;T1</title>
<path fill="none" stroke="#000000" d="M468.1763,-18.5C491.919,-18.5 527.7838,-18.5 561.2656,-18.5"/>
<polygon fill="#000000" stroke="#000000" points="561.5639,-22.0001 571.5639,-18.5 561.5639,-15.0001 561.5639,-22.0001"/>
<text text-anchor="middle" x="519.8574" y="-22.7" font-family="Times,serif" font-size="14.00" fill="#000000"> x , y </text>
</g>
</g>
</svg>
