<?xml version="1.0" encoding="UTF-8" standalone="no"?>
<!DOCTYPE svg PUBLIC "-//W3C//DTD SVG 1.1//EN"
 "http://www.w3.org/Graphics/SVG/1.1/DTD/svg11.dtd">
<!-- Generated by graphviz version 2.40.1 (20161225.0304)
 -->
<!-- Title: g Pages: 1 -->
<svg width="2182pt" height="483pt"
 viewBox="0.00 0.00 2182.06 483.00" xmlns="http://www.w3.org/2000/svg" xmlns:xlink="http://www.w3.org/1999/xlink">
<g id="graph0" class="graph" transform="scale(1 1) rotate(0) translate(4 479)">
<title>g</title>
<polygon fill="#ffffff" stroke="transparent" points="-4,4 -4,-479 2178.0554,-479 2178.0554,4 -4,4"/>
<!-- T0 -->
<g id="node1" class="node">
<title>T0</title>
<path fill="#3f51b5" stroke="#ffffff" d="M487.6976,-434.5C487.6976,-434.5 374.4162,-434.5 374.4162,-434.5 368.4162,-434.5 362.4162,-428.5 362.4162,-422.5 362.4162,-422.5 362.4162,-410.5 362.4162,-410.5 362.4162,-404.5 368.4162,-398.5 374.4162,-398.5 374.4162,-398.5 487.6976,-398.5 487.6976,-398.5 493.6976,-398.5 499.6976,-404.5 499.6976,-410.5 499.6976,-410.5 499.6976,-422.5 499.6976,-422.5 499.6976,-428.5 493.6976,-434.5 487.6976,-434.5"/>
<text text-anchor="middle" x="431.0569" y="-412.3" font-family="Times,serif" font-size="14.00" fill="#ffffff">msg.sender owner ==</text>
</g>
<!-- T1 -->
<g id="node2" class="node">
<title>T1</title>
<path fill="#3f51b5" stroke="#ffffff" d="M587.7632,-286.5C587.7632,-286.5 274.3506,-286.5 274.3506,-286.5 268.3506,-286.5 262.3506,-280.5 262.3506,-274.5 262.3506,-274.5 262.3506,-262.5 262.3506,-262.5 262.3506,-256.5 268.3506,-250.5 274.3506,-250.5 274.3506,-250.5 587.7632,-250.5 587.7632,-250.5 593.7632,-250.5 599.7632,-256.5 599.7632,-262.5 599.7632,-262.5 599.7632,-274.5 599.7632,-274.5 599.7632,-280.5 593.7632,-286.5 587.7632,-286.5"/>
<text text-anchor="middle" x="431.0569" y="-264.3" font-family="Times,serif" font-size="14.00" fill="#ffffff">msg.sender owner == now date warranty 1Day * + &gt; &amp;&amp;</text>
</g>
<!-- 2 -->
<g id="node7" class="node">
<title>2</title>
<path fill="none" stroke="#000000" d="M763.3676,-250.5C763.3676,-250.5 793.3676,-250.5 793.3676,-250.5 799.3676,-250.5 805.3676,-256.5 805.3676,-262.5 805.3676,-262.5 805.3676,-274.5 805.3676,-274.5 805.3676,-280.5 799.3676,-286.5 793.3676,-286.5 793.3676,-286.5 763.3676,-286.5 763.3676,-286.5 757.3676,-286.5 751.3676,-280.5 751.3676,-274.5 751.3676,-274.5 751.3676,-262.5 751.3676,-262.5 751.3676,-256.5 757.3676,-250.5 763.3676,-250.5"/>
<text text-anchor="middle" x="767.2589" y="-264.4" font-family="Times,serif" font-size="14.00" fill="#000000">P2</text>
<polyline fill="none" stroke="#000000" points="783.1502,-250.7 783.1502,-286.5 "/>
<text text-anchor="middle" x="793.9002" y="-264.4" font-family="Times,serif" font-size="14.00" fill="#000000"> </text>
</g>
<!-- T1&#45;&gt;2 -->
<g id="edge9" class="edge">
<title>T1&#45;&gt;2</title>
<path fill="none" stroke="#000000" d="M599.8796,-268.5C653.0843,-268.5 706.8943,-268.5 741.3119,-268.5"/>
<polygon fill="#000000" stroke="#000000" points="741.3485,-272.0001 751.3485,-268.5 741.3485,-265.0001 741.3485,-272.0001"/>
<text text-anchor="middle" x="675.5138" y="-272.7" font-family="Times,serif" font-size="14.00" fill="#000000">[ id , amount ]</text>
</g>
<!-- T2 -->
<g id="node3" class="node">
<title>T2</title>
<path fill="#3f51b5" stroke="#ffffff" d="M975.754,-286.5C975.754,-286.5 945.754,-286.5 945.754,-286.5 939.754,-286.5 933.754,-280.5 933.754,-274.5 933.754,-274.5 933.754,-262.5 933.754,-262.5 933.754,-256.5 939.754,-250.5 945.754,-250.5 945.754,-250.5 975.754,-250.5 975.754,-250.5 981.754,-250.5 987.754,-256.5 987.754,-262.5 987.754,-262.5 987.754,-274.5 987.754,-274.5 987.754,-280.5 981.754,-286.5 975.754,-286.5"/>
</g>
<!-- 3 -->
<g id="node8" class="node">
<title>3</title>
<path fill="#4caf50" stroke="#ffffff" d="M1201.723,-414.5C1201.723,-414.5 1231.723,-414.5 1231.723,-414.5 1237.723,-414.5 1243.723,-420.5 1243.723,-426.5 1243.723,-426.5 1243.723,-438.5 1243.723,-438.5 1243.723,-444.5 1237.723,-450.5 1231.723,-450.5 1231.723,-450.5 1201.723,-450.5 1201.723,-450.5 1195.723,-450.5 1189.723,-444.5 1189.723,-438.5 1189.723,-438.5 1189.723,-426.5 1189.723,-426.5 1189.723,-420.5 1195.723,-414.5 1201.723,-414.5"/>
<text text-anchor="middle" x="1205.6143" y="-428.4" font-family="Times,serif" font-size="14.00" fill="#ffffff">P3</text>
<polyline fill="none" stroke="#ffffff" points="1221.5056,-414.7 1221.5056,-450.5 "/>
<text text-anchor="middle" x="1232.2556" y="-428.4" font-family="Times,serif" font-size="14.00" fill="#ffffff"> </text>
</g>
<!-- T2&#45;&gt;3 -->
<g id="edge10" class="edge">
<title>T2&#45;&gt;3</title>
<path fill="none" stroke="#000000" d="M961.7868,-286.6865C964.8237,-320.977 976.7745,-394.6843 1023.754,-427.5 1069.694,-459.5896 1137.9482,-451.8921 1179.7666,-442.6928"/>
<polygon fill="#000000" stroke="#000000" points="1180.6029,-446.0917 1189.5442,-440.4081 1179.0101,-439.2754 1180.6029,-446.0917"/>
<text text-anchor="middle" x="1088.7385" y="-454.7" font-family="Times,serif" font-size="14.00" fill="#000000">[ id , rate ]</text>
</g>
<!-- 4 -->
<g id="node9" class="node">
<title>4</title>
<path fill="#4caf50" stroke="#ffffff" d="M1201.723,-273.5C1201.723,-273.5 1231.723,-273.5 1231.723,-273.5 1237.723,-273.5 1243.723,-279.5 1243.723,-285.5 1243.723,-285.5 1243.723,-297.5 1243.723,-297.5 1243.723,-303.5 1237.723,-309.5 1231.723,-309.5 1231.723,-309.5 1201.723,-309.5 1201.723,-309.5 1195.723,-309.5 1189.723,-303.5 1189.723,-297.5 1189.723,-297.5 1189.723,-285.5 1189.723,-285.5 1189.723,-279.5 1195.723,-273.5 1201.723,-273.5"/>
<text text-anchor="middle" x="1205.6143" y="-287.4" font-family="Times,serif" font-size="14.00" fill="#ffffff">P4</text>
<polyline fill="none" stroke="#ffffff" points="1221.5056,-273.7 1221.5056,-309.5 "/>
<text text-anchor="middle" x="1232.2556" y="-287.4" font-family="Times,serif" font-size="14.00" fill="#ffffff"> </text>
</g>
<!-- T2&#45;&gt;4 -->
<g id="edge11" class="edge">
<title>T2&#45;&gt;4</title>
<path fill="none" stroke="#000000" d="M988.1472,-270.9614C1034.2386,-275.1029 1127.3507,-283.4695 1179.3858,-288.1451"/>
<polygon fill="#000000" stroke="#000000" points="1179.2537,-291.6472 1189.5268,-289.0563 1179.8802,-284.6753 1179.2537,-291.6472"/>
<text text-anchor="middle" x="1088.7385" y="-288.7" font-family="Times,serif" font-size="14.00" fill="#000000">[ total amount rate / + ]</text>
</g>
<!-- 6 -->
<g id="node11" class="node">
<title>6</title>
<path fill="none" stroke="#000000" d="M1201.723,-109.5C1201.723,-109.5 1231.723,-109.5 1231.723,-109.5 1237.723,-109.5 1243.723,-115.5 1243.723,-121.5 1243.723,-121.5 1243.723,-133.5 1243.723,-133.5 1243.723,-139.5 1237.723,-145.5 1231.723,-145.5 1231.723,-145.5 1201.723,-145.5 1201.723,-145.5 1195.723,-145.5 1189.723,-139.5 1189.723,-133.5 1189.723,-133.5 1189.723,-121.5 1189.723,-121.5 1189.723,-115.5 1195.723,-109.5 1201.723,-109.5"/>
<text text-anchor="middle" x="1205.6143" y="-123.4" font-family="Times,serif" font-size="14.00" fill="#000000">P6</text>
<polyline fill="none" stroke="#000000" points="1221.5056,-109.7 1221.5056,-145.5 "/>
<text text-anchor="middle" x="1232.2556" y="-123.4" font-family="Times,serif" font-size="14.00" fill="#000000"> </text>
</g>
<!-- T2&#45;&gt;6 -->
<g id="edge12" class="edge">
<title>T2&#45;&gt;6</title>
<path fill="none" stroke="#000000" d="M966.3781,-250.4415C974.8028,-226.5637 993.0759,-185.027 1023.754,-163.7 1070.226,-131.3933 1137.5958,-125.7665 1179.203,-125.801"/>
<polygon fill="#000000" stroke="#000000" points="1179.4106,-129.3037 1189.4522,-125.9249 1179.4953,-122.3042 1179.4106,-129.3037"/>
<text text-anchor="middle" x="1088.7385" y="-168.7" font-family="Times,serif" font-size="14.00" fill="#000000">[ id , amount rate / ]</text>
</g>
<!-- 7 -->
<g id="node12" class="node">
<title>7</title>
<path fill="none" stroke="#000000" d="M1201.723,-.5C1201.723,-.5 1231.723,-.5 1231.723,-.5 1237.723,-.5 1243.723,-6.5 1243.723,-12.5 1243.723,-12.5 1243.723,-24.5 1243.723,-24.5 1243.723,-30.5 1237.723,-36.5 1231.723,-36.5 1231.723,-36.5 1201.723,-36.5 1201.723,-36.5 1195.723,-36.5 1189.723,-30.5 1189.723,-24.5 1189.723,-24.5 1189.723,-12.5 1189.723,-12.5 1189.723,-6.5 1195.723,-.5 1201.723,-.5"/>
<text text-anchor="middle" x="1205.6143" y="-14.4" font-family="Times,serif" font-size="14.00" fill="#000000">P7</text>
<polyline fill="none" stroke="#000000" points="1221.5056,-.7 1221.5056,-36.5 "/>
<text text-anchor="middle" x="1232.2556" y="-14.4" font-family="Times,serif" font-size="14.00" fill="#000000"> </text>
</g>
<!-- T2&#45;&gt;7 -->
<g id="edge13" class="edge">
<title>T2&#45;&gt;7</title>
<path fill="none" stroke="#000000" d="M962.3142,-250.4756C966.2806,-215.4473 979.7927,-137.6835 1023.754,-92.7 1066.0499,-49.4206 1136.3328,-30.9644 1179.3934,-23.4068"/>
<polygon fill="#000000" stroke="#000000" points="1180.159,-26.828 1189.4586,-21.7519 1179.0232,-19.9208 1180.159,-26.828"/>
<text text-anchor="middle" x="1088.7385" y="-97.7" font-family="Times,serif" font-size="14.00" fill="#000000">[ id , amount rate / ]</text>
</g>
<!-- T3 -->
<g id="node4" class="node">
<title>T3</title>
<path fill="#3f51b5" stroke="#ffffff" d="M1698.46,-309.5C1698.46,-309.5 1352.6592,-309.5 1352.6592,-309.5 1346.6592,-309.5 1340.6592,-303.5 1340.6592,-297.5 1340.6592,-297.5 1340.6592,-285.5 1340.6592,-285.5 1340.6592,-279.5 1346.6592,-273.5 1352.6592,-273.5 1352.6592,-273.5 1698.46,-273.5 1698.46,-273.5 1704.46,-273.5 1710.46,-279.5 1710.46,-285.5 1710.46,-285.5 1710.46,-297.5 1710.46,-297.5 1710.46,-303.5 1704.46,-309.5 1698.46,-309.5"/>
<text text-anchor="middle" x="1525.5596" y="-287.3" font-family="Times,serif" font-size="14.00" fill="#ffffff">msg.sender address == total 0 &gt; &amp;&amp; now withdrawTime &gt; &amp;&amp;</text>
</g>
<!-- T3&#45;&gt;4 -->
<g id="edge14" class="edge">
<title>T3&#45;&gt;4</title>
<path fill="none" stroke="#000000" d="M1476.4191,-273.3732C1426.3374,-257.4916 1346.7164,-239.4271 1279.723,-256.7 1270.0245,-259.2006 1260.223,-263.547 1251.3338,-268.3381"/>
<polygon fill="#000000" stroke="#000000" points="1249.379,-265.4243 1242.4431,-273.4333 1252.8597,-271.4976 1249.379,-265.4243"/>
<text text-anchor="middle" x="1292.1662" y="-260.7" font-family="Times,serif" font-size="14.00" fill="#000000">[ 0 ]</text>
</g>
<!-- 5 -->
<g id="node10" class="node">
<title>5</title>
<path fill="#4caf50" stroke="#ffffff" d="M2132.0554,-273.5C2132.0554,-273.5 2162.0554,-273.5 2162.0554,-273.5 2168.0554,-273.5 2174.0554,-279.5 2174.0554,-285.5 2174.0554,-285.5 2174.0554,-297.5 2174.0554,-297.5 2174.0554,-303.5 2168.0554,-309.5 2162.0554,-309.5 2162.0554,-309.5 2132.0554,-309.5 2132.0554,-309.5 2126.0554,-309.5 2120.0554,-303.5 2120.0554,-297.5 2120.0554,-297.5 2120.0554,-285.5 2120.0554,-285.5 2120.0554,-279.5 2126.0554,-273.5 2132.0554,-273.5"/>
<text text-anchor="middle" x="2135.9467" y="-287.4" font-family="Times,serif" font-size="14.00" fill="#ffffff">P5</text>
<polyline fill="none" stroke="#ffffff" points="2151.838,-273.7 2151.838,-309.5 "/>
<text text-anchor="middle" x="2162.588" y="-287.4" font-family="Times,serif" font-size="14.00" fill="#ffffff"> </text>
</g>
<!-- T3&#45;&gt;5 -->
<g id="edge15" class="edge">
<title>T3&#45;&gt;5</title>
<path fill="none" stroke="#000000" d="M1710.7664,-291.5C1851.196,-291.5 2032.744,-291.5 2109.8187,-291.5"/>
<polygon fill="#000000" stroke="#000000" points="2109.9857,-295.0001 2119.9857,-291.5 2109.9857,-288.0001 2109.9857,-295.0001"/>
<text text-anchor="middle" x="1915.2826" y="-295.7" font-family="Times,serif" font-size="14.00" fill="#000000">address total transfer [ address , withdrawTime 1Day 7 * + ]</text>
</g>
<!-- 0 -->
<g id="node5" class="node">
<title>0</title>
<path fill="none" stroke="#000000" d="M12,-438.5C12,-438.5 42,-438.5 42,-438.5 48,-438.5 54,-444.5 54,-450.5 54,-450.5 54,-462.5 54,-462.5 54,-468.5 48,-474.5 42,-474.5 42,-474.5 12,-474.5 12,-474.5 6,-474.5 0,-468.5 0,-462.5 0,-462.5 0,-450.5 0,-450.5 0,-444.5 6,-438.5 12,-438.5"/>
<text text-anchor="middle" x="15.8913" y="-452.4" font-family="Times,serif" font-size="14.00" fill="#000000">P0</text>
<polyline fill="none" stroke="#000000" points="31.7826,-438.7 31.7826,-474.5 "/>
<text text-anchor="middle" x="42.5326" y="-452.4" font-family="Times,serif" font-size="14.00" fill="#000000"> </text>
</g>
<!-- 0&#45;&gt;T0 -->
<g id="edge1" class="edge">
<title>0&#45;&gt;T0</title>
<path fill="none" stroke="#000000" d="M54.1387,-453.8134C114.2573,-447.8619 260.568,-433.3777 352.2026,-424.3063"/>
<polygon fill="#000000" stroke="#000000" points="352.6636,-427.7778 362.2701,-423.3096 351.9739,-420.8119 352.6636,-427.7778"/>
<text text-anchor="middle" x="158.2269" y="-453.7" font-family="Times,serif" font-size="14.00" fill="#000000">id</text>
</g>
<!-- 1 -->
<g id="node6" class="node">
<title>1</title>
<path fill="#4caf50" stroke="#ffffff" d="M12,-290.5C12,-290.5 42,-290.5 42,-290.5 48,-290.5 54,-296.5 54,-302.5 54,-302.5 54,-314.5 54,-314.5 54,-320.5 48,-326.5 42,-326.5 42,-326.5 12,-326.5 12,-326.5 6,-326.5 0,-320.5 0,-314.5 0,-314.5 0,-302.5 0,-302.5 0,-296.5 6,-290.5 12,-290.5"/>
<text text-anchor="middle" x="15.8913" y="-304.4" font-family="Times,serif" font-size="14.00" fill="#ffffff">P1</text>
<polyline fill="none" stroke="#ffffff" points="31.7826,-290.7 31.7826,-326.5 "/>
<text text-anchor="middle" x="42.5326" y="-304.4" font-family="Times,serif" font-size="14.00" fill="#ffffff"> </text>
</g>
<!-- 1&#45;&gt;T0 -->
<g id="edge2" class="edge">
<title>1&#45;&gt;T0</title>
<path fill="none" stroke="#000000" d="M54.1387,-315.7539C114.5743,-331.9076 262.1134,-371.3432 353.6475,-395.8093"/>
<polygon fill="#000000" stroke="#000000" points="352.8586,-399.2213 363.4233,-398.4223 354.6663,-392.4587 352.8586,-399.2213"/>
<text text-anchor="middle" x="158.2269" y="-362.7" font-family="Times,serif" font-size="14.00" fill="#000000">id,amount,date,warranty</text>
</g>
<!-- 1&#45;&gt;T1 -->
<g id="edge3" class="edge">
<title>1&#45;&gt;T1</title>
<path fill="none" stroke="#000000" d="M44.7402,-290.4117C56.4629,-279.8007 72.7954,-267.3911 90,-261.7 167.4391,-236.0842 260.2694,-239.9989 329.5164,-249.0838"/>
<polygon fill="#000000" stroke="#000000" points="329.1749,-252.5696 339.5574,-250.4588 330.1247,-245.6343 329.1749,-252.5696"/>
<text text-anchor="middle" x="158.2269" y="-265.7" font-family="Times,serif" font-size="14.00" fill="#000000">id,amount,date,warranty</text>
</g>
<!-- 2&#45;&gt;T2 -->
<g id="edge4" class="edge">
<title>2&#45;&gt;T2</title>
<path fill="none" stroke="#000000" d="M805.6727,-268.5C836.9228,-268.5 888.288,-268.5 923.2703,-268.5"/>
<polygon fill="#000000" stroke="#000000" points="923.5606,-272.0001 933.5605,-268.5 923.5605,-265.0001 923.5606,-272.0001"/>
<text text-anchor="middle" x="869.5608" y="-272.7" font-family="Times,serif" font-size="14.00" fill="#000000">id,amount</text>
</g>
<!-- 3&#45;&gt;T2 -->
<g id="edge5" class="edge">
<title>3&#45;&gt;T2</title>
<path fill="none" stroke="#000000" d="M1189.4039,-418.1988C1151.2803,-397.8661 1080.4279,-358.7016 1023.754,-319.5 1012.0415,-311.3984 999.7437,-301.732 989.1539,-293.0041"/>
<polygon fill="#000000" stroke="#000000" points="991.3466,-290.2752 981.4267,-286.5542 986.861,-295.6492 991.3466,-290.2752"/>
<text text-anchor="middle" x="1088.7385" y="-400.7" font-family="Times,serif" font-size="14.00" fill="#000000">id,rate</text>
</g>
<!-- 4&#45;&gt;T2 -->
<g id="edge6" class="edge">
<title>4&#45;&gt;T2</title>
<path fill="none" stroke="#000000" d="M1207.8812,-273.217C1197.7258,-254.5699 1179.1329,-226.7214 1153.723,-214.7 1101.5077,-189.997 1077.9483,-194.7087 1023.754,-214.7 1008.0755,-220.4835 993.6515,-232.0993 982.5727,-243.0621"/>
<polygon fill="#000000" stroke="#000000" points="979.8638,-240.8299 975.463,-250.4676 984.9134,-245.6778 979.8638,-240.8299"/>
<text text-anchor="middle" x="1088.7385" y="-219.7" font-family="Times,serif" font-size="14.00" fill="#000000">total</text>
</g>
<!-- 4&#45;&gt;T3 -->
<g id="edge7" class="edge">
<title>4&#45;&gt;T3</title>
<path fill="none" stroke="#000000" d="M1243.8595,-291.5C1264.8923,-291.5 1296.1271,-291.5 1330.231,-291.5"/>
<polygon fill="#000000" stroke="#000000" points="1330.4073,-295.0001 1340.4073,-291.5 1330.4072,-288.0001 1330.4073,-295.0001"/>
<text text-anchor="middle" x="1292.1662" y="-295.7" font-family="Times,serif" font-size="14.00" fill="#000000">total</text>
</g>
<!-- 5&#45;&gt;T3 -->
<g id="edge8" class="edge">
<title>5&#45;&gt;T3</title>
<path fill="none" stroke="#000000" d="M2132.3464,-273.4676C2120.7484,-260.7711 2103.352,-244.8182 2084.0554,-237.7 1943.306,-185.78 1895.4616,-219.8267 1746.5098,-237.7 1694.3242,-243.962 1636.6619,-258.2607 1593.3321,-270.5438"/>
<polygon fill="#000000" stroke="#000000" points="1592.123,-267.2495 1583.4769,-273.3728 1594.0544,-273.9778 1592.123,-267.2495"/>
<text text-anchor="middle" x="1915.2826" y="-241.7" font-family="Times,serif" font-size="14.00" fill="#000000">address,withdrawTime</text>
</g>
</g>
</svg>
