<?xml version="1.0" encoding="UTF-8" standalone="no"?>
<!DOCTYPE svg PUBLIC "-//W3C//DTD SVG 1.1//EN"
 "http://www.w3.org/Graphics/SVG/1.1/DTD/svg11.dtd">
<!-- Generated by graphviz version 2.40.1 (20161225.0304)
 -->
<!-- Title: g Pages: 1 -->
<svg width="1059pt" height="736pt"
 viewBox="0.00 0.00 1059.43 736.00" xmlns="http://www.w3.org/2000/svg" xmlns:xlink="http://www.w3.org/1999/xlink">
<g id="graph0" class="graph" transform="scale(1 1) rotate(0) translate(4 732)">
<title>g</title>
<polygon fill="#ffffff" stroke="transparent" points="-4,4 -4,-732 1055.4306,-732 1055.4306,4 -4,4"/>
<!-- T0 -->
<g id="node1" class="node">
<title>T0</title>
<path fill="#3f51b5" stroke="#ffffff" d="M232.1148,-145.5C232.1148,-145.5 202.1148,-145.5 202.1148,-145.5 196.1148,-145.5 190.1148,-139.5 190.1148,-133.5 190.1148,-133.5 190.1148,-121.5 190.1148,-121.5 190.1148,-115.5 196.1148,-109.5 202.1148,-109.5 202.1148,-109.5 232.1148,-109.5 232.1148,-109.5 238.1148,-109.5 244.1148,-115.5 244.1148,-121.5 244.1148,-121.5 244.1148,-133.5 244.1148,-133.5 244.1148,-139.5 238.1148,-145.5 232.1148,-145.5"/>
<text text-anchor="middle" x="217.1148" y="-123.3" font-family="Times,serif" font-size="14.00" fill="#ffffff">e 0 &gt;=</text>
</g>
<!-- 0 -->
<g id="node11" class="node">
<title>0</title>
<path fill="none" stroke="#000000" d="M483.6253,-164.5C483.6253,-164.5 513.6253,-164.5 513.6253,-164.5 519.6253,-164.5 525.6253,-170.5 525.6253,-176.5 525.6253,-176.5 525.6253,-188.5 525.6253,-188.5 525.6253,-194.5 519.6253,-200.5 513.6253,-200.5 513.6253,-200.5 483.6253,-200.5 483.6253,-200.5 477.6253,-200.5 471.6253,-194.5 471.6253,-188.5 471.6253,-188.5 471.6253,-176.5 471.6253,-176.5 471.6253,-170.5 477.6253,-164.5 483.6253,-164.5"/>
<text text-anchor="middle" x="487.5166" y="-178.4" font-family="Times,serif" font-size="14.00" fill="#000000">P0</text>
<polyline fill="none" stroke="#000000" points="503.4079,-164.7 503.4079,-200.5 "/>
<text text-anchor="middle" x="514.1579" y="-178.4" font-family="Times,serif" font-size="14.00" fill="#000000"> </text>
</g>
<!-- T0&#45;&gt;0 -->
<g id="edge13" class="edge">
<title>T0&#45;&gt;0</title>
<path fill="none" stroke="#000000" d="M244.4422,-118.8572C286.8817,-107.0013 370.3666,-90.0172 433.984,-116.7 453.1183,-124.7254 469.4428,-141.4831 480.9001,-156.0777"/>
<polygon fill="#000000" stroke="#000000" points="478.2807,-158.4196 487.0681,-164.3385 483.8897,-154.2316 478.2807,-158.4196"/>
<text text-anchor="middle" x="371.7155" y="-121.7" font-family="Times,serif" font-size="14.00" fill="#000000">[ &#45;10 &#45;e &#45; ]</text>
</g>
<!-- T1 -->
<g id="node2" class="node">
<title>T1</title>
<path fill="#3f51b5" stroke="#ffffff" d="M233.2802,-727.5C233.2802,-727.5 200.9494,-727.5 200.9494,-727.5 194.9494,-727.5 188.9494,-721.5 188.9494,-715.5 188.9494,-715.5 188.9494,-703.5 188.9494,-703.5 188.9494,-697.5 194.9494,-691.5 200.9494,-691.5 200.9494,-691.5 233.2802,-691.5 233.2802,-691.5 239.2802,-691.5 245.2802,-697.5 245.2802,-703.5 245.2802,-703.5 245.2802,-715.5 245.2802,-715.5 245.2802,-721.5 239.2802,-727.5 233.2802,-727.5"/>
<text text-anchor="middle" x="217.1148" y="-705.3" font-family="Times,serif" font-size="14.00" fill="#ffffff">a &#45;5 &gt;=</text>
</g>
<!-- 2 -->
<g id="node13" class="node">
<title>2</title>
<path fill="none" stroke="#000000" d="M483.6253,-617.5C483.6253,-617.5 513.6253,-617.5 513.6253,-617.5 519.6253,-617.5 525.6253,-623.5 525.6253,-629.5 525.6253,-629.5 525.6253,-641.5 525.6253,-641.5 525.6253,-647.5 519.6253,-653.5 513.6253,-653.5 513.6253,-653.5 483.6253,-653.5 483.6253,-653.5 477.6253,-653.5 471.6253,-647.5 471.6253,-641.5 471.6253,-641.5 471.6253,-629.5 471.6253,-629.5 471.6253,-623.5 477.6253,-617.5 483.6253,-617.5"/>
<text text-anchor="middle" x="487.5166" y="-631.4" font-family="Times,serif" font-size="14.00" fill="#000000">P2</text>
<polyline fill="none" stroke="#000000" points="503.4079,-617.7 503.4079,-653.5 "/>
<text text-anchor="middle" x="514.1579" y="-631.4" font-family="Times,serif" font-size="14.00" fill="#000000"> </text>
</g>
<!-- T1&#45;&gt;2 -->
<g id="edge14" class="edge">
<title>T1&#45;&gt;2</title>
<path fill="none" stroke="#000000" d="M245.396,-702.0658C296.6931,-688.5815 405.0234,-660.1049 461.9345,-645.1448"/>
<polygon fill="#000000" stroke="#000000" points="462.8244,-648.5299 471.606,-642.6025 461.0447,-641.7599 462.8244,-648.5299"/>
<text text-anchor="middle" x="371.7155" y="-686.7" font-family="Times,serif" font-size="14.00" fill="#000000">[ a 1 + ]</text>
</g>
<!-- T2 -->
<g id="node3" class="node">
<title>T2</title>
<path fill="#3f51b5" stroke="#ffffff" d="M261.2797,-579.5C261.2797,-579.5 172.9499,-579.5 172.9499,-579.5 166.9499,-579.5 160.9499,-573.5 160.9499,-567.5 160.9499,-567.5 160.9499,-555.5 160.9499,-555.5 160.9499,-549.5 166.9499,-543.5 172.9499,-543.5 172.9499,-543.5 261.2797,-543.5 261.2797,-543.5 267.2797,-543.5 273.2797,-549.5 273.2797,-555.5 273.2797,-555.5 273.2797,-567.5 273.2797,-567.5 273.2797,-573.5 267.2797,-579.5 261.2797,-579.5"/>
<text text-anchor="middle" x="217.1148" y="-557.3" font-family="Times,serif" font-size="14.00" fill="#ffffff">3 b * 4 c * &#45; 1 &gt;=</text>
</g>
<!-- T2&#45;&gt;2 -->
<g id="edge15" class="edge">
<title>T2&#45;&gt;2</title>
<path fill="none" stroke="#000000" d="M273.344,-575.8226C317.1601,-587.0435 379.4989,-603.1395 433.984,-617.7 442.9716,-620.1018 452.6478,-622.7389 461.7066,-625.2302"/>
<polygon fill="#000000" stroke="#000000" points="461.0315,-628.6746 471.6023,-627.9607 462.8935,-621.9268 461.0315,-628.6746"/>
<text text-anchor="middle" x="371.7155" y="-621.7" font-family="Times,serif" font-size="14.00" fill="#000000">[ 3 b * 4 c * &#45; ]</text>
</g>
<!-- 3 -->
<g id="node14" class="node">
<title>3</title>
<path fill="none" stroke="#000000" d="M483.6253,-503.5C483.6253,-503.5 513.6253,-503.5 513.6253,-503.5 519.6253,-503.5 525.6253,-509.5 525.6253,-515.5 525.6253,-515.5 525.6253,-527.5 525.6253,-527.5 525.6253,-533.5 519.6253,-539.5 513.6253,-539.5 513.6253,-539.5 483.6253,-539.5 483.6253,-539.5 477.6253,-539.5 471.6253,-533.5 471.6253,-527.5 471.6253,-527.5 471.6253,-515.5 471.6253,-515.5 471.6253,-509.5 477.6253,-503.5 483.6253,-503.5"/>
<text text-anchor="middle" x="487.5166" y="-517.4" font-family="Times,serif" font-size="14.00" fill="#000000">P3</text>
<polyline fill="none" stroke="#000000" points="503.4079,-503.7 503.4079,-539.5 "/>
<text text-anchor="middle" x="514.1579" y="-517.4" font-family="Times,serif" font-size="14.00" fill="#000000"> </text>
</g>
<!-- T2&#45;&gt;3 -->
<g id="edge16" class="edge">
<title>T2&#45;&gt;3</title>
<path fill="none" stroke="#000000" d="M244.4772,-543.3177C262.186,-532.6702 286.1995,-520.2552 309.447,-514.7 361.0163,-502.3769 422.7206,-508.2866 461.3047,-514.3425"/>
<polygon fill="#000000" stroke="#000000" points="461.109,-517.8577 471.5466,-516.0395 462.2533,-510.9519 461.109,-517.8577"/>
<text text-anchor="middle" x="371.7155" y="-518.7" font-family="Times,serif" font-size="14.00" fill="#000000">[ b 1 &#45; 2 * ]</text>
</g>
<!-- T3 -->
<g id="node4" class="node">
<title>T3</title>
<path fill="#3f51b5" stroke="#ffffff" d="M232.1148,-36.5C232.1148,-36.5 202.1148,-36.5 202.1148,-36.5 196.1148,-36.5 190.1148,-30.5 190.1148,-24.5 190.1148,-24.5 190.1148,-12.5 190.1148,-12.5 190.1148,-6.5 196.1148,-.5 202.1148,-.5 202.1148,-.5 232.1148,-.5 232.1148,-.5 238.1148,-.5 244.1148,-6.5 244.1148,-12.5 244.1148,-12.5 244.1148,-24.5 244.1148,-24.5 244.1148,-30.5 238.1148,-36.5 232.1148,-36.5"/>
<text text-anchor="middle" x="217.1148" y="-14.3" font-family="Times,serif" font-size="14.00" fill="#ffffff">d 0 &gt;=</text>
</g>
<!-- 7 -->
<g id="node18" class="node">
<title>7</title>
<path fill="none" stroke="#000000" d="M483.6253,-31.5C483.6253,-31.5 513.6253,-31.5 513.6253,-31.5 519.6253,-31.5 525.6253,-37.5 525.6253,-43.5 525.6253,-43.5 525.6253,-55.5 525.6253,-55.5 525.6253,-61.5 519.6253,-67.5 513.6253,-67.5 513.6253,-67.5 483.6253,-67.5 483.6253,-67.5 477.6253,-67.5 471.6253,-61.5 471.6253,-55.5 471.6253,-55.5 471.6253,-43.5 471.6253,-43.5 471.6253,-37.5 477.6253,-31.5 483.6253,-31.5"/>
<text text-anchor="middle" x="487.5166" y="-45.4" font-family="Times,serif" font-size="14.00" fill="#000000">P7</text>
<polyline fill="none" stroke="#000000" points="503.4079,-31.7 503.4079,-67.5 "/>
<text text-anchor="middle" x="514.1579" y="-45.4" font-family="Times,serif" font-size="14.00" fill="#000000"> </text>
</g>
<!-- T3&#45;&gt;7 -->
<g id="edge17" class="edge">
<title>T3&#45;&gt;7</title>
<path fill="none" stroke="#000000" d="M244.2489,-14.7452C285.7346,-9.8459 367.1529,-3.5596 433.984,-18.7 443.6122,-20.8812 453.4873,-24.6731 462.5297,-28.8664"/>
<polygon fill="#000000" stroke="#000000" points="461.088,-32.0577 471.606,-33.3309 464.1776,-25.7765 461.088,-32.0577"/>
<text text-anchor="middle" x="371.7155" y="-23.7" font-family="Times,serif" font-size="14.00" fill="#000000">[ 1 2 &#45; d * ]</text>
</g>
<!-- T4 -->
<g id="node5" class="node">
<title>T4</title>
<path fill="#3f51b5" stroke="#ffffff" d="M232.7253,-297.5C232.7253,-297.5 201.5043,-297.5 201.5043,-297.5 195.5043,-297.5 189.5043,-291.5 189.5043,-285.5 189.5043,-285.5 189.5043,-273.5 189.5043,-273.5 189.5043,-267.5 195.5043,-261.5 201.5043,-261.5 201.5043,-261.5 232.7253,-261.5 232.7253,-261.5 238.7253,-261.5 244.7253,-267.5 244.7253,-273.5 244.7253,-273.5 244.7253,-285.5 244.7253,-285.5 244.7253,-291.5 238.7253,-297.5 232.7253,-297.5"/>
<text text-anchor="middle" x="217.1148" y="-275.3" font-family="Times,serif" font-size="14.00" fill="#ffffff">f &#45;1 &lt;=</text>
</g>
<!-- T4&#45;&gt;0 -->
<g id="edge18" class="edge">
<title>T4&#45;&gt;0</title>
<path fill="none" stroke="#000000" d="M244.8775,-269.9338C295.9113,-252.3491 404.6244,-214.8899 461.7718,-195.1986"/>
<polygon fill="#000000" stroke="#000000" points="463.1699,-198.4189 471.4841,-191.852 460.8894,-191.8007 463.1699,-198.4189"/>
<text text-anchor="middle" x="371.7155" y="-248.7" font-family="Times,serif" font-size="14.00" fill="#000000">[ 2 f * ]</text>
</g>
<!-- 9 -->
<g id="node20" class="node">
<title>9</title>
<path fill="none" stroke="#000000" d="M483.6253,-285.5C483.6253,-285.5 513.6253,-285.5 513.6253,-285.5 519.6253,-285.5 525.6253,-291.5 525.6253,-297.5 525.6253,-297.5 525.6253,-309.5 525.6253,-309.5 525.6253,-315.5 519.6253,-321.5 513.6253,-321.5 513.6253,-321.5 483.6253,-321.5 483.6253,-321.5 477.6253,-321.5 471.6253,-315.5 471.6253,-309.5 471.6253,-309.5 471.6253,-297.5 471.6253,-297.5 471.6253,-291.5 477.6253,-285.5 483.6253,-285.5"/>
<text text-anchor="middle" x="487.5166" y="-299.4" font-family="Times,serif" font-size="14.00" fill="#000000">P9</text>
<polyline fill="none" stroke="#000000" points="503.4079,-285.7 503.4079,-321.5 "/>
<text text-anchor="middle" x="514.1579" y="-299.4" font-family="Times,serif" font-size="14.00" fill="#000000"> </text>
</g>
<!-- T4&#45;&gt;9 -->
<g id="edge19" class="edge">
<title>T4&#45;&gt;9</title>
<path fill="none" stroke="#000000" d="M244.8775,-281.8669C295.8056,-286.2087 404.1745,-295.4477 461.4162,-300.3278"/>
<polygon fill="#000000" stroke="#000000" points="461.2229,-303.8239 471.4841,-301.1861 461.8176,-296.8492 461.2229,-303.8239"/>
<text text-anchor="middle" x="371.7155" y="-301.7" font-family="Times,serif" font-size="14.00" fill="#000000">[ f 2 &#45; 4 * f 1 &#45; 3 * &#45; ]</text>
</g>
<!-- T5 -->
<g id="node6" class="node">
<title>T5</title>
<path fill="#3f51b5" stroke="#ffffff" d="M242.2993,-430.5C242.2993,-430.5 191.9303,-430.5 191.9303,-430.5 185.9303,-430.5 179.9303,-424.5 179.9303,-418.5 179.9303,-418.5 179.9303,-406.5 179.9303,-406.5 179.9303,-400.5 185.9303,-394.5 191.9303,-394.5 191.9303,-394.5 242.2993,-394.5 242.2993,-394.5 248.2993,-394.5 254.2993,-400.5 254.2993,-406.5 254.2993,-406.5 254.2993,-418.5 254.2993,-418.5 254.2993,-424.5 248.2993,-430.5 242.2993,-430.5"/>
<text text-anchor="middle" x="217.1148" y="-408.3" font-family="Times,serif" font-size="14.00" fill="#ffffff">g 3 + h &lt;=</text>
</g>
<!-- 11 -->
<g id="node22" class="node">
<title>11</title>
<path fill="none" stroke="#000000" d="M481.984,-394.5C481.984,-394.5 515.2666,-394.5 515.2666,-394.5 521.2666,-394.5 527.2666,-400.5 527.2666,-406.5 527.2666,-406.5 527.2666,-418.5 527.2666,-418.5 527.2666,-424.5 521.2666,-430.5 515.2666,-430.5 515.2666,-430.5 481.984,-430.5 481.984,-430.5 475.984,-430.5 469.984,-424.5 469.984,-418.5 469.984,-418.5 469.984,-406.5 469.984,-406.5 469.984,-400.5 475.984,-394.5 481.984,-394.5"/>
<text text-anchor="middle" x="488.8753" y="-408.4" font-family="Times,serif" font-size="14.00" fill="#000000">P11</text>
<polyline fill="none" stroke="#000000" points="507.7666,-394.7 507.7666,-430.5 "/>
<text text-anchor="middle" x="517.5166" y="-408.4" font-family="Times,serif" font-size="14.00" fill="#000000"> </text>
</g>
<!-- T5&#45;&gt;11 -->
<g id="edge20" class="edge">
<title>T5&#45;&gt;11</title>
<path fill="none" stroke="#000000" d="M254.4972,-412.5C307.7791,-412.5 405.1057,-412.5 459.3885,-412.5"/>
<polygon fill="#000000" stroke="#000000" points="459.6454,-416.0001 469.6453,-412.5 459.6453,-409.0001 459.6454,-416.0001"/>
<text text-anchor="middle" x="371.7155" y="-416.7" font-family="Times,serif" font-size="14.00" fill="#000000">[ g h &#45; 2 * h g &#45; 3 * + ]</text>
</g>
<!-- T6 -->
<g id="node7" class="node">
<title>T6</title>
<path fill="#3f51b5" stroke="#ffffff" d="M771.0467,-653.5C771.0467,-653.5 741.0467,-653.5 741.0467,-653.5 735.0467,-653.5 729.0467,-647.5 729.0467,-641.5 729.0467,-641.5 729.0467,-629.5 729.0467,-629.5 729.0467,-623.5 735.0467,-617.5 741.0467,-617.5 741.0467,-617.5 771.0467,-617.5 771.0467,-617.5 777.0467,-617.5 783.0467,-623.5 783.0467,-629.5 783.0467,-629.5 783.0467,-641.5 783.0467,-641.5 783.0467,-647.5 777.0467,-653.5 771.0467,-653.5"/>
<text text-anchor="middle" x="756.0467" y="-631.3" font-family="Times,serif" font-size="14.00" fill="#ffffff">x 0 &lt;=</text>
</g>
<!-- 12 -->
<g id="node23" class="node">
<title>12</title>
<path fill="none" stroke="#000000" d="M1006.148,-649.5C1006.148,-649.5 1039.4306,-649.5 1039.4306,-649.5 1045.4306,-649.5 1051.4306,-655.5 1051.4306,-661.5 1051.4306,-661.5 1051.4306,-673.5 1051.4306,-673.5 1051.4306,-679.5 1045.4306,-685.5 1039.4306,-685.5 1039.4306,-685.5 1006.148,-685.5 1006.148,-685.5 1000.148,-685.5 994.148,-679.5 994.148,-673.5 994.148,-673.5 994.148,-661.5 994.148,-661.5 994.148,-655.5 1000.148,-649.5 1006.148,-649.5"/>
<text text-anchor="middle" x="1013.0393" y="-663.4" font-family="Times,serif" font-size="14.00" fill="#000000">P12</text>
<polyline fill="none" stroke="#000000" points="1031.9306,-649.7 1031.9306,-685.5 "/>
<text text-anchor="middle" x="1041.6806" y="-663.4" font-family="Times,serif" font-size="14.00" fill="#000000"> </text>
</g>
<!-- T6&#45;&gt;12 -->
<g id="edge21" class="edge">
<title>T6&#45;&gt;12</title>
<path fill="none" stroke="#000000" d="M783.0913,-638.7444C830.6233,-644.4466 929.284,-656.2826 984.0472,-662.8523"/>
<polygon fill="#000000" stroke="#000000" points="983.7174,-666.3377 994.0631,-664.0538 984.5512,-659.3875 983.7174,-666.3377"/>
<text text-anchor="middle" x="946.4874" y="-662.7" font-family="Times,serif" font-size="14.00" fill="#000000">[ x ]</text>
</g>
<!-- 13 -->
<g id="node24" class="node">
<title>13</title>
<path fill="none" stroke="#000000" d="M1006.148,-414.5C1006.148,-414.5 1039.4306,-414.5 1039.4306,-414.5 1045.4306,-414.5 1051.4306,-420.5 1051.4306,-426.5 1051.4306,-426.5 1051.4306,-438.5 1051.4306,-438.5 1051.4306,-444.5 1045.4306,-450.5 1039.4306,-450.5 1039.4306,-450.5 1006.148,-450.5 1006.148,-450.5 1000.148,-450.5 994.148,-444.5 994.148,-438.5 994.148,-438.5 994.148,-426.5 994.148,-426.5 994.148,-420.5 1000.148,-414.5 1006.148,-414.5"/>
<text text-anchor="middle" x="1013.0393" y="-428.4" font-family="Times,serif" font-size="14.00" fill="#000000">P13</text>
<polyline fill="none" stroke="#000000" points="1031.9306,-414.7 1031.9306,-450.5 "/>
<text text-anchor="middle" x="1041.6806" y="-428.4" font-family="Times,serif" font-size="14.00" fill="#000000"> </text>
</g>
<!-- T6&#45;&gt;13 -->
<g id="edge22" class="edge">
<title>T6&#45;&gt;13</title>
<path fill="none" stroke="#000000" d="M783.0821,-622.5642C812.7643,-607.7857 861.2022,-581.943 898.8268,-553.5 937.309,-524.4087 976.2354,-484.2679 999.9407,-458.3461"/>
<polygon fill="#000000" stroke="#000000" points="1002.6702,-460.5463 1006.7916,-450.7859 997.4831,-455.8459 1002.6702,-460.5463"/>
<text text-anchor="middle" x="946.4874" y="-526.7" font-family="Times,serif" font-size="14.00" fill="#000000">[ x ]</text>
</g>
<!-- T7 -->
<g id="node8" class="node">
<title>T7</title>
<path fill="#3f51b5" stroke="#ffffff" d="M771.0467,-517.5C771.0467,-517.5 741.0467,-517.5 741.0467,-517.5 735.0467,-517.5 729.0467,-511.5 729.0467,-505.5 729.0467,-505.5 729.0467,-493.5 729.0467,-493.5 729.0467,-487.5 735.0467,-481.5 741.0467,-481.5 741.0467,-481.5 771.0467,-481.5 771.0467,-481.5 777.0467,-481.5 783.0467,-487.5 783.0467,-493.5 783.0467,-493.5 783.0467,-505.5 783.0467,-505.5 783.0467,-511.5 777.0467,-517.5 771.0467,-517.5"/>
<text text-anchor="middle" x="756.0467" y="-495.3" font-family="Times,serif" font-size="14.00" fill="#ffffff">x 6 &gt;=</text>
</g>
<!-- T7&#45;&gt;13 -->
<g id="edge23" class="edge">
<title>T7&#45;&gt;13</title>
<path fill="none" stroke="#000000" d="M783.0913,-492.707C830.6233,-480.768 929.284,-455.9865 984.0472,-442.2312"/>
<polygon fill="#000000" stroke="#000000" points="985.217,-445.5461 994.0631,-439.7154 983.5117,-438.757 985.217,-445.5461"/>
<text text-anchor="middle" x="946.4874" y="-457.7" font-family="Times,serif" font-size="14.00" fill="#000000">[ x ]</text>
</g>
<!-- T8 -->
<g id="node9" class="node">
<title>T8</title>
<path fill="#3f51b5" stroke="#ffffff" d="M771.0467,-200.5C771.0467,-200.5 741.0467,-200.5 741.0467,-200.5 735.0467,-200.5 729.0467,-194.5 729.0467,-188.5 729.0467,-188.5 729.0467,-176.5 729.0467,-176.5 729.0467,-170.5 735.0467,-164.5 741.0467,-164.5 741.0467,-164.5 771.0467,-164.5 771.0467,-164.5 777.0467,-164.5 783.0467,-170.5 783.0467,-176.5 783.0467,-176.5 783.0467,-188.5 783.0467,-188.5 783.0467,-194.5 777.0467,-200.5 771.0467,-200.5"/>
<text text-anchor="middle" x="756.0467" y="-178.3" font-family="Times,serif" font-size="14.00" fill="#ffffff">x y &gt;=</text>
</g>
<!-- T8&#45;&gt;13 -->
<g id="edge24" class="edge">
<title>T8&#45;&gt;13</title>
<path fill="none" stroke="#000000" d="M783.0817,-199.2387C824.0267,-225.4272 902.8438,-279.1838 958.148,-337.7 977.7562,-358.447 995.6675,-385.6727 1007.6374,-405.6225"/>
<polygon fill="#000000" stroke="#000000" points="1004.7725,-407.6552 1012.8605,-414.4988 1010.8055,-404.1051 1004.7725,-407.6552"/>
<text text-anchor="middle" x="946.4874" y="-341.7" font-family="Times,serif" font-size="14.00" fill="#000000">[ x ]</text>
</g>
<!-- T9 -->
<g id="node10" class="node">
<title>T9</title>
<path fill="#3f51b5" stroke="#ffffff" d="M886.6072,-403.5C886.6072,-403.5 625.4862,-403.5 625.4862,-403.5 619.4862,-403.5 613.4862,-397.5 613.4862,-391.5 613.4862,-391.5 613.4862,-379.5 613.4862,-379.5 613.4862,-373.5 619.4862,-367.5 625.4862,-367.5 625.4862,-367.5 886.6072,-367.5 886.6072,-367.5 892.6072,-367.5 898.6072,-373.5 898.6072,-379.5 898.6072,-379.5 898.6072,-391.5 898.6072,-391.5 898.6072,-397.5 892.6072,-403.5 886.6072,-403.5"/>
<text text-anchor="middle" x="756.0467" y="-381.3" font-family="Times,serif" font-size="14.00" fill="#ffffff">3 x * 1 3 y * &#45; 4 * + 5 * 10 &#45; x 3 &#45; 2 * 4 y * + &gt;=</text>
</g>
<!-- T9&#45;&gt;13 -->
<g id="edge25" class="edge">
<title>T9&#45;&gt;13</title>
<path fill="none" stroke="#000000" d="M856.0298,-367.4845C889.3534,-365.2882 926.1247,-367.1172 958.148,-378.7 974.1009,-384.4702 988.8883,-396.0847 1000.2821,-407.0501"/>
<polygon fill="#000000" stroke="#000000" points="998.0827,-409.8039 1007.6006,-414.458 1003.0624,-404.8843 998.0827,-409.8039"/>
<text text-anchor="middle" x="946.4874" y="-382.7" font-family="Times,serif" font-size="14.00" fill="#000000">[ x ]</text>
</g>
<!-- 0&#45;&gt;T8 -->
<g id="edge10" class="edge">
<title>0&#45;&gt;T8</title>
<path fill="none" stroke="#000000" d="M525.6874,-182.5C571.9407,-182.5 666.277,-182.5 718.7429,-182.5"/>
<polygon fill="#000000" stroke="#000000" points="718.961,-186.0001 728.961,-182.5 718.9609,-179.0001 718.961,-186.0001"/>
<text text-anchor="middle" x="570.2666" y="-186.7" font-family="Times,serif" font-size="14.00" fill="#000000"> y </text>
</g>
<!-- 1 -->
<g id="node12" class="node">
<title>1</title>
<path fill="none" stroke="#000000" d="M13.6413,-691.5C13.6413,-691.5 43.6413,-691.5 43.6413,-691.5 49.6413,-691.5 55.6413,-697.5 55.6413,-703.5 55.6413,-703.5 55.6413,-715.5 55.6413,-715.5 55.6413,-721.5 49.6413,-727.5 43.6413,-727.5 43.6413,-727.5 13.6413,-727.5 13.6413,-727.5 7.6413,-727.5 1.6413,-721.5 1.6413,-715.5 1.6413,-715.5 1.6413,-703.5 1.6413,-703.5 1.6413,-697.5 7.6413,-691.5 13.6413,-691.5"/>
<text text-anchor="middle" x="17.5326" y="-705.4" font-family="Times,serif" font-size="14.00" fill="#000000">P1</text>
<polyline fill="none" stroke="#000000" points="33.4239,-691.7 33.4239,-727.5 "/>
<text text-anchor="middle" x="44.1739" y="-705.4" font-family="Times,serif" font-size="14.00" fill="#000000"> </text>
</g>
<!-- 1&#45;&gt;T1 -->
<g id="edge2" class="edge">
<title>1&#45;&gt;T1</title>
<path fill="none" stroke="#000000" d="M55.645,-709.5C87.8842,-709.5 142.029,-709.5 178.6391,-709.5"/>
<polygon fill="#000000" stroke="#000000" points="178.9303,-713.0001 188.9302,-709.5 178.9302,-706.0001 178.9303,-713.0001"/>
<text text-anchor="middle" x="109.0326" y="-713.7" font-family="Times,serif" font-size="14.00" fill="#000000"> a </text>
</g>
<!-- 2&#45;&gt;T6 -->
<g id="edge7" class="edge">
<title>2&#45;&gt;T6</title>
<path fill="none" stroke="#000000" d="M525.6874,-635.5C571.9407,-635.5 666.277,-635.5 718.7429,-635.5"/>
<polygon fill="#000000" stroke="#000000" points="718.961,-639.0001 728.961,-635.5 718.9609,-632.0001 718.961,-639.0001"/>
<text text-anchor="middle" x="570.2666" y="-639.7" font-family="Times,serif" font-size="14.00" fill="#000000"> x </text>
</g>
<!-- 3&#45;&gt;T7 -->
<g id="edge8" class="edge">
<title>3&#45;&gt;T7</title>
<path fill="none" stroke="#000000" d="M525.6874,-519.1872C571.9407,-515.2342 666.277,-507.172 718.7429,-502.6881"/>
<polygon fill="#000000" stroke="#000000" points="719.2954,-506.1537 728.961,-501.8148 718.6992,-499.1792 719.2954,-506.1537"/>
<text text-anchor="middle" x="570.2666" y="-519.7" font-family="Times,serif" font-size="14.00" fill="#000000"> x </text>
</g>
<!-- 4 -->
<g id="node15" class="node">
<title>4</title>
<path fill="none" stroke="#000000" d="M13.6413,-543.5C13.6413,-543.5 43.6413,-543.5 43.6413,-543.5 49.6413,-543.5 55.6413,-549.5 55.6413,-555.5 55.6413,-555.5 55.6413,-567.5 55.6413,-567.5 55.6413,-573.5 49.6413,-579.5 43.6413,-579.5 43.6413,-579.5 13.6413,-579.5 13.6413,-579.5 7.6413,-579.5 1.6413,-573.5 1.6413,-567.5 1.6413,-567.5 1.6413,-555.5 1.6413,-555.5 1.6413,-549.5 7.6413,-543.5 13.6413,-543.5"/>
<text text-anchor="middle" x="17.5326" y="-557.4" font-family="Times,serif" font-size="14.00" fill="#000000">P4</text>
<polyline fill="none" stroke="#000000" points="33.4239,-543.7 33.4239,-579.5 "/>
<text text-anchor="middle" x="44.1739" y="-557.4" font-family="Times,serif" font-size="14.00" fill="#000000"> </text>
</g>
<!-- 4&#45;&gt;T2 -->
<g id="edge3" class="edge">
<title>4&#45;&gt;T2</title>
<path fill="none" stroke="#000000" d="M55.645,-561.5C80.2598,-561.5 117.6442,-561.5 150.2443,-561.5"/>
<polygon fill="#000000" stroke="#000000" points="150.6384,-565.0001 160.6384,-561.5 150.6383,-558.0001 150.6384,-565.0001"/>
<text text-anchor="middle" x="109.0326" y="-565.7" font-family="Times,serif" font-size="14.00" fill="#000000"> b , c </text>
</g>
<!-- 5 -->
<g id="node16" class="node">
<title>5</title>
<path fill="none" stroke="#000000" d="M13.6413,-109.5C13.6413,-109.5 43.6413,-109.5 43.6413,-109.5 49.6413,-109.5 55.6413,-115.5 55.6413,-121.5 55.6413,-121.5 55.6413,-133.5 55.6413,-133.5 55.6413,-139.5 49.6413,-145.5 43.6413,-145.5 43.6413,-145.5 13.6413,-145.5 13.6413,-145.5 7.6413,-145.5 1.6413,-139.5 1.6413,-133.5 1.6413,-133.5 1.6413,-121.5 1.6413,-121.5 1.6413,-115.5 7.6413,-109.5 13.6413,-109.5"/>
<text text-anchor="middle" x="17.5326" y="-123.4" font-family="Times,serif" font-size="14.00" fill="#000000">P5</text>
<polyline fill="none" stroke="#000000" points="33.4239,-109.7 33.4239,-145.5 "/>
<text text-anchor="middle" x="44.1739" y="-123.4" font-family="Times,serif" font-size="14.00" fill="#000000"> </text>
</g>
<!-- 5&#45;&gt;T0 -->
<g id="edge1" class="edge">
<title>5&#45;&gt;T0</title>
<path fill="none" stroke="#000000" d="M55.645,-127.5C88.1621,-127.5 142.9642,-127.5 179.582,-127.5"/>
<polygon fill="#000000" stroke="#000000" points="179.8555,-131.0001 189.8554,-127.5 179.8554,-124.0001 179.8555,-131.0001"/>
<text text-anchor="middle" x="109.0326" y="-131.7" font-family="Times,serif" font-size="14.00" fill="#000000"> e </text>
</g>
<!-- 6 -->
<g id="node17" class="node">
<title>6</title>
<path fill="none" stroke="#000000" d="M13.6413,-.5C13.6413,-.5 43.6413,-.5 43.6413,-.5 49.6413,-.5 55.6413,-6.5 55.6413,-12.5 55.6413,-12.5 55.6413,-24.5 55.6413,-24.5 55.6413,-30.5 49.6413,-36.5 43.6413,-36.5 43.6413,-36.5 13.6413,-36.5 13.6413,-36.5 7.6413,-36.5 1.6413,-30.5 1.6413,-24.5 1.6413,-24.5 1.6413,-12.5 1.6413,-12.5 1.6413,-6.5 7.6413,-.5 13.6413,-.5"/>
<text text-anchor="middle" x="17.5326" y="-14.4" font-family="Times,serif" font-size="14.00" fill="#000000">P6</text>
<polyline fill="none" stroke="#000000" points="33.4239,-.7 33.4239,-36.5 "/>
<text text-anchor="middle" x="44.1739" y="-14.4" font-family="Times,serif" font-size="14.00" fill="#000000"> </text>
</g>
<!-- 6&#45;&gt;T3 -->
<g id="edge4" class="edge">
<title>6&#45;&gt;T3</title>
<path fill="none" stroke="#000000" d="M55.645,-18.5C88.1621,-18.5 142.9642,-18.5 179.582,-18.5"/>
<polygon fill="#000000" stroke="#000000" points="179.8555,-22.0001 189.8554,-18.5 179.8554,-15.0001 179.8555,-22.0001"/>
<text text-anchor="middle" x="109.0326" y="-22.7" font-family="Times,serif" font-size="14.00" fill="#000000"> d </text>
</g>
<!-- 7&#45;&gt;T8 -->
<g id="edge9" class="edge">
<title>7&#45;&gt;T8</title>
<path fill="none" stroke="#000000" d="M525.6874,-63.482C572.3269,-87.5789 667.8559,-136.9351 720.0485,-163.9011"/>
<polygon fill="#000000" stroke="#000000" points="718.4701,-167.0251 728.961,-168.5058 721.6833,-160.8061 718.4701,-167.0251"/>
<text text-anchor="middle" x="570.2666" y="-93.7" font-family="Times,serif" font-size="14.00" fill="#000000"> x </text>
</g>
<!-- 8 -->
<g id="node19" class="node">
<title>8</title>
<path fill="none" stroke="#000000" d="M13.6413,-261.5C13.6413,-261.5 43.6413,-261.5 43.6413,-261.5 49.6413,-261.5 55.6413,-267.5 55.6413,-273.5 55.6413,-273.5 55.6413,-285.5 55.6413,-285.5 55.6413,-291.5 49.6413,-297.5 43.6413,-297.5 43.6413,-297.5 13.6413,-297.5 13.6413,-297.5 7.6413,-297.5 1.6413,-291.5 1.6413,-285.5 1.6413,-285.5 1.6413,-273.5 1.6413,-273.5 1.6413,-267.5 7.6413,-261.5 13.6413,-261.5"/>
<text text-anchor="middle" x="17.5326" y="-275.4" font-family="Times,serif" font-size="14.00" fill="#000000">P8</text>
<polyline fill="none" stroke="#000000" points="33.4239,-261.7 33.4239,-297.5 "/>
<text text-anchor="middle" x="44.1739" y="-275.4" font-family="Times,serif" font-size="14.00" fill="#000000"> </text>
</g>
<!-- 8&#45;&gt;T4 -->
<g id="edge5" class="edge">
<title>8&#45;&gt;T4</title>
<path fill="none" stroke="#000000" d="M55.645,-279.5C88.0695,-279.5 142.6521,-279.5 179.2686,-279.5"/>
<polygon fill="#000000" stroke="#000000" points="179.5484,-283.0001 189.5483,-279.5 179.5483,-276.0001 179.5484,-283.0001"/>
<text text-anchor="middle" x="109.0326" y="-283.7" font-family="Times,serif" font-size="14.00" fill="#000000"> f </text>
</g>
<!-- 9&#45;&gt;T9 -->
<g id="edge11" class="edge">
<title>9&#45;&gt;T9</title>
<path fill="none" stroke="#000000" d="M525.6874,-312.1205C564.2707,-324.4109 636.3123,-347.3594 689.5983,-364.3333"/>
<polygon fill="#000000" stroke="#000000" points="688.7268,-367.7289 699.3174,-367.4292 690.8515,-361.0591 688.7268,-367.7289"/>
<text text-anchor="middle" x="570.2666" y="-331.7" font-family="Times,serif" font-size="14.00" fill="#000000"> x </text>
</g>
<!-- 10 -->
<g id="node21" class="node">
<title>10</title>
<path fill="none" stroke="#000000" d="M12,-394.5C12,-394.5 45.2826,-394.5 45.2826,-394.5 51.2826,-394.5 57.2826,-400.5 57.2826,-406.5 57.2826,-406.5 57.2826,-418.5 57.2826,-418.5 57.2826,-424.5 51.2826,-430.5 45.2826,-430.5 45.2826,-430.5 12,-430.5 12,-430.5 6,-430.5 0,-424.5 0,-418.5 0,-418.5 0,-406.5 0,-406.5 0,-400.5 6,-394.5 12,-394.5"/>
<text text-anchor="middle" x="18.8913" y="-408.4" font-family="Times,serif" font-size="14.00" fill="#000000">P10</text>
<polyline fill="none" stroke="#000000" points="37.7826,-394.7 37.7826,-430.5 "/>
<text text-anchor="middle" x="47.5326" y="-408.4" font-family="Times,serif" font-size="14.00" fill="#000000"> </text>
</g>
<!-- 10&#45;&gt;T5 -->
<g id="edge6" class="edge">
<title>10&#45;&gt;T5</title>
<path fill="none" stroke="#000000" d="M57.6772,-412.5C87.4693,-412.5 134.3141,-412.5 169.5322,-412.5"/>
<polygon fill="#000000" stroke="#000000" points="169.5941,-416.0001 179.5941,-412.5 169.5941,-409.0001 169.5941,-416.0001"/>
<text text-anchor="middle" x="109.0326" y="-416.7" font-family="Times,serif" font-size="14.00" fill="#000000"> g , h </text>
</g>
<!-- 11&#45;&gt;T9 -->
<g id="edge12" class="edge">
<title>11&#45;&gt;T9</title>
<path fill="none" stroke="#000000" d="M527.6544,-409.4552C547.0618,-407.4197 574.26,-404.5669 603.1444,-401.5374"/>
<polygon fill="#000000" stroke="#000000" points="603.8411,-404.9836 613.4214,-400.4594 603.1109,-398.0218 603.8411,-404.9836"/>
<text text-anchor="middle" x="570.2666" y="-408.7" font-family="Times,serif" font-size="14.00" fill="#000000"> y </text>
</g>
</g>
</svg>
