<?xml version="1.0" encoding="UTF-8" standalone="no"?>
<!DOCTYPE svg PUBLIC "-//W3C//DTD SVG 1.1//EN"
 "http://www.w3.org/Graphics/SVG/1.1/DTD/svg11.dtd">
<!-- Generated by graphviz version 2.40.1 (20161225.0304)
 -->
<!-- Title: g Pages: 1 -->
<svg width="746pt" height="372pt"
 viewBox="0.00 0.00 746.28 372.00" xmlns="http://www.w3.org/2000/svg" xmlns:xlink="http://www.w3.org/1999/xlink">
<g id="graph0" class="graph" transform="scale(1 1) rotate(0) translate(4 368)">
<title>g</title>
<polygon fill="#ffffff" stroke="transparent" points="-4,4 -4,-368 742.2798,-368 742.2798,4 -4,4"/>
<!-- T0 -->
<g id="node1" class="node">
<title>T0</title>
<path fill="#3f51b5" stroke="#ffffff" d="M222.7059,-37.5C222.7059,-37.5 168.9071,-37.5 168.9071,-37.5 162.9071,-37.5 156.9071,-31.5 156.9071,-25.5 156.9071,-25.5 156.9071,-13.5 156.9071,-13.5 156.9071,-7.5 162.9071,-1.5 168.9071,-1.5 168.9071,-1.5 222.7059,-1.5 222.7059,-1.5 228.7059,-1.5 234.7059,-7.5 234.7059,-13.5 234.7059,-13.5 234.7059,-25.5 234.7059,-25.5 234.7059,-31.5 228.7059,-37.5 222.7059,-37.5"/>
<text text-anchor="middle" x="195.8065" y="-15.3" font-family="Times,serif" font-size="14.00" fill="#ffffff"> a b + 0 &gt;=</text>
</g>
<!-- 4 -->
<g id="node10" class="node">
<title>4</title>
<path fill="none" stroke="#000000" d="M364.1142,-109.5C364.1142,-109.5 394.1142,-109.5 394.1142,-109.5 400.1142,-109.5 406.1142,-115.5 406.1142,-121.5 406.1142,-121.5 406.1142,-133.5 406.1142,-133.5 406.1142,-139.5 400.1142,-145.5 394.1142,-145.5 394.1142,-145.5 364.1142,-145.5 364.1142,-145.5 358.1142,-145.5 352.1142,-139.5 352.1142,-133.5 352.1142,-133.5 352.1142,-121.5 352.1142,-121.5 352.1142,-115.5 358.1142,-109.5 364.1142,-109.5"/>
<text text-anchor="middle" x="368.0055" y="-123.4" font-family="Times,serif" font-size="14.00" fill="#000000">P4</text>
<polyline fill="none" stroke="#000000" points="383.8968,-109.7 383.8968,-145.5 "/>
<text text-anchor="middle" x="394.6468" y="-123.4" font-family="Times,serif" font-size="14.00" fill="#000000"> </text>
</g>
<!-- T0&#45;&gt;4 -->
<g id="edge7" class="edge">
<title>T0&#45;&gt;4</title>
<path fill="none" stroke="#000000" d="M226.4881,-37.5768C258.6726,-56.539 309.2148,-86.3171 343.2273,-106.3564"/>
<polygon fill="#000000" stroke="#000000" points="341.5322,-109.42 351.9247,-111.4807 345.0856,-103.3889 341.5322,-109.42"/>
<text text-anchor="middle" x="293.5063" y="-93.7" font-family="Times,serif" font-size="14.00" fill="#000000">[ a b + ]</text>
</g>
<!-- T1 -->
<g id="node2" class="node">
<title>T1</title>
<path fill="#3f51b5" stroke="#ffffff" d="M211.3125,-145.5C211.3125,-145.5 180.3005,-145.5 180.3005,-145.5 174.3005,-145.5 168.3005,-139.5 168.3005,-133.5 168.3005,-133.5 168.3005,-121.5 168.3005,-121.5 168.3005,-115.5 174.3005,-109.5 180.3005,-109.5 180.3005,-109.5 211.3125,-109.5 211.3125,-109.5 217.3125,-109.5 223.3125,-115.5 223.3125,-121.5 223.3125,-121.5 223.3125,-133.5 223.3125,-133.5 223.3125,-139.5 217.3125,-145.5 211.3125,-145.5"/>
<text text-anchor="middle" x="195.8065" y="-123.3" font-family="Times,serif" font-size="14.00" fill="#ffffff"> c 0 &gt;=</text>
</g>
<!-- T1&#45;&gt;4 -->
<g id="edge8" class="edge">
<title>T1&#45;&gt;4</title>
<path fill="none" stroke="#000000" d="M223.647,-127.5C255.1429,-127.5 306.5975,-127.5 341.6122,-127.5"/>
<polygon fill="#000000" stroke="#000000" points="341.9108,-131.0001 351.9108,-127.5 341.9108,-124.0001 341.9108,-131.0001"/>
<text text-anchor="middle" x="293.5063" y="-131.7" font-family="Times,serif" font-size="14.00" fill="#000000">[ c ] </text>
</g>
<!-- T2 -->
<g id="node3" class="node">
<title>T2</title>
<path fill="#3f51b5" stroke="#ffffff" d="M222.9905,-363.5C222.9905,-363.5 168.6225,-363.5 168.6225,-363.5 162.6225,-363.5 156.6225,-357.5 156.6225,-351.5 156.6225,-351.5 156.6225,-339.5 156.6225,-339.5 156.6225,-333.5 162.6225,-327.5 168.6225,-327.5 168.6225,-327.5 222.9905,-327.5 222.9905,-327.5 228.9905,-327.5 234.9905,-333.5 234.9905,-339.5 234.9905,-339.5 234.9905,-351.5 234.9905,-351.5 234.9905,-357.5 228.9905,-363.5 222.9905,-363.5"/>
<text text-anchor="middle" x="195.8065" y="-341.3" font-family="Times,serif" font-size="14.00" fill="#ffffff"> d 1 + 0 &gt;=</text>
</g>
<!-- 5 -->
<g id="node11" class="node">
<title>5</title>
<path fill="none" stroke="#000000" d="M364.1142,-218.5C364.1142,-218.5 394.1142,-218.5 394.1142,-218.5 400.1142,-218.5 406.1142,-224.5 406.1142,-230.5 406.1142,-230.5 406.1142,-242.5 406.1142,-242.5 406.1142,-248.5 400.1142,-254.5 394.1142,-254.5 394.1142,-254.5 364.1142,-254.5 364.1142,-254.5 358.1142,-254.5 352.1142,-248.5 352.1142,-242.5 352.1142,-242.5 352.1142,-230.5 352.1142,-230.5 352.1142,-224.5 358.1142,-218.5 364.1142,-218.5"/>
<text text-anchor="middle" x="368.0055" y="-232.4" font-family="Times,serif" font-size="14.00" fill="#000000">P5</text>
<polyline fill="none" stroke="#000000" points="383.8968,-218.7 383.8968,-254.5 "/>
<text text-anchor="middle" x="394.6468" y="-232.4" font-family="Times,serif" font-size="14.00" fill="#000000"> </text>
</g>
<!-- T2&#45;&gt;5 -->
<g id="edge9" class="edge">
<title>T2&#45;&gt;5</title>
<path fill="none" stroke="#000000" d="M226.4881,-327.2559C258.6726,-308.118 309.2148,-278.0642 343.2273,-257.8394"/>
<polygon fill="#000000" stroke="#000000" points="345.1183,-260.787 351.9247,-252.6677 341.5406,-254.7703 345.1183,-260.787"/>
<text text-anchor="middle" x="293.5063" y="-304.7" font-family="Times,serif" font-size="14.00" fill="#000000">[ d 1 + ]</text>
</g>
<!-- T3 -->
<g id="node4" class="node">
<title>T3</title>
<path fill="#3f51b5" stroke="#ffffff" d="M222.2937,-254.5C222.2937,-254.5 169.3193,-254.5 169.3193,-254.5 163.3193,-254.5 157.3193,-248.5 157.3193,-242.5 157.3193,-242.5 157.3193,-230.5 157.3193,-230.5 157.3193,-224.5 163.3193,-218.5 169.3193,-218.5 169.3193,-218.5 222.2937,-218.5 222.2937,-218.5 228.2937,-218.5 234.2937,-224.5 234.2937,-230.5 234.2937,-230.5 234.2937,-242.5 234.2937,-242.5 234.2937,-248.5 228.2937,-254.5 222.2937,-254.5"/>
<text text-anchor="middle" x="195.8065" y="-232.3" font-family="Times,serif" font-size="14.00" fill="#ffffff"> e f &#45; &#45;1 &lt;=</text>
</g>
<!-- T3&#45;&gt;5 -->
<g id="edge10" class="edge">
<title>T3&#45;&gt;5</title>
<path fill="none" stroke="#000000" d="M234.2733,-232.8029C257.8877,-230.9912 288.7496,-229.443 316.1142,-230.7 324.4608,-231.0834 333.4098,-231.7511 341.8661,-232.5002"/>
<polygon fill="#000000" stroke="#000000" points="341.5793,-235.9886 351.8632,-233.4408 342.235,-229.0194 341.5793,-235.9886"/>
<text text-anchor="middle" x="293.5063" y="-234.7" font-family="Times,serif" font-size="14.00" fill="#000000">[ e f + ]</text>
</g>
<!-- T4 -->
<g id="node5" class="node">
<title>T4</title>
<path fill="#3f51b5" stroke="#ffffff" d="M555.0389,-199.5C555.0389,-199.5 504.1393,-199.5 504.1393,-199.5 498.1393,-199.5 492.1393,-193.5 492.1393,-187.5 492.1393,-187.5 492.1393,-175.5 492.1393,-175.5 492.1393,-169.5 498.1393,-163.5 504.1393,-163.5 504.1393,-163.5 555.0389,-163.5 555.0389,-163.5 561.0389,-163.5 567.0389,-169.5 567.0389,-175.5 567.0389,-175.5 567.0389,-187.5 567.0389,-187.5 567.0389,-193.5 561.0389,-199.5 555.0389,-199.5"/>
<text text-anchor="middle" x="529.5891" y="-177.3" font-family="Times,serif" font-size="14.00" fill="#ffffff"> x y &#45; 0 &gt;=</text>
</g>
<!-- 6 -->
<g id="node12" class="node">
<title>6</title>
<path fill="none" stroke="#000000" d="M696.2798,-163.5C696.2798,-163.5 726.2798,-163.5 726.2798,-163.5 732.2798,-163.5 738.2798,-169.5 738.2798,-175.5 738.2798,-175.5 738.2798,-187.5 738.2798,-187.5 738.2798,-193.5 732.2798,-199.5 726.2798,-199.5 726.2798,-199.5 696.2798,-199.5 696.2798,-199.5 690.2798,-199.5 684.2798,-193.5 684.2798,-187.5 684.2798,-187.5 684.2798,-175.5 684.2798,-175.5 684.2798,-169.5 690.2798,-163.5 696.2798,-163.5"/>
<text text-anchor="middle" x="700.1711" y="-177.4" font-family="Times,serif" font-size="14.00" fill="#000000">P6</text>
<polyline fill="none" stroke="#000000" points="716.0624,-163.7 716.0624,-199.5 "/>
<text text-anchor="middle" x="726.8124" y="-177.4" font-family="Times,serif" font-size="14.00" fill="#000000"> </text>
</g>
<!-- T4&#45;&gt;6 -->
<g id="edge11" class="edge">
<title>T4&#45;&gt;6</title>
<path fill="none" stroke="#000000" d="M567.2355,-181.5C598.5196,-181.5 642.7995,-181.5 673.9856,-181.5"/>
<polygon fill="#000000" stroke="#000000" points="674.0221,-185.0001 684.0221,-181.5 674.022,-178.0001 674.0221,-185.0001"/>
<text text-anchor="middle" x="625.6719" y="-185.7" font-family="Times,serif" font-size="14.00" fill="#000000">[ x y + ]</text>
</g>
<!-- 0 -->
<g id="node6" class="node">
<title>0</title>
<path fill="none" stroke="#000000" d="M12,-.5C12,-.5 42,-.5 42,-.5 48,-.5 54,-6.5 54,-12.5 54,-12.5 54,-24.5 54,-24.5 54,-30.5 48,-36.5 42,-36.5 42,-36.5 12,-36.5 12,-36.5 6,-36.5 0,-30.5 0,-24.5 0,-24.5 0,-12.5 0,-12.5 0,-6.5 6,-.5 12,-.5"/>
<text text-anchor="middle" x="15.8913" y="-14.4" font-family="Times,serif" font-size="14.00" fill="#000000">P0</text>
<polyline fill="none" stroke="#000000" points="31.7826,-.7 31.7826,-36.5 "/>
<text text-anchor="middle" x="42.5326" y="-14.4" font-family="Times,serif" font-size="14.00" fill="#000000"> </text>
</g>
<!-- 0&#45;&gt;T0 -->
<g id="edge1" class="edge">
<title>0&#45;&gt;T0</title>
<path fill="none" stroke="#000000" d="M54.1217,-18.6607C78.9657,-18.8078 116.3465,-19.0293 146.4753,-19.2078"/>
<polygon fill="#000000" stroke="#000000" points="146.7767,-22.7095 156.7973,-19.2689 146.8182,-15.7096 146.7767,-22.7095"/>
<text text-anchor="middle" x="105.3573" y="-23.7" font-family="Times,serif" font-size="14.00" fill="#000000"> a , b </text>
</g>
<!-- 1 -->
<g id="node7" class="node">
<title>1</title>
<path fill="none" stroke="#000000" d="M12,-109.5C12,-109.5 42,-109.5 42,-109.5 48,-109.5 54,-115.5 54,-121.5 54,-121.5 54,-133.5 54,-133.5 54,-139.5 48,-145.5 42,-145.5 42,-145.5 12,-145.5 12,-145.5 6,-145.5 0,-139.5 0,-133.5 0,-133.5 0,-121.5 0,-121.5 0,-115.5 6,-109.5 12,-109.5"/>
<text text-anchor="middle" x="15.8913" y="-123.4" font-family="Times,serif" font-size="14.00" fill="#000000">P1</text>
<polyline fill="none" stroke="#000000" points="31.7826,-109.7 31.7826,-145.5 "/>
<text text-anchor="middle" x="42.5326" y="-123.4" font-family="Times,serif" font-size="14.00" fill="#000000"> </text>
</g>
<!-- 1&#45;&gt;T1 -->
<g id="edge2" class="edge">
<title>1&#45;&gt;T1</title>
<path fill="none" stroke="#000000" d="M54.1217,-127.5C82.256,-127.5 126.4679,-127.5 158.0185,-127.5"/>
<polygon fill="#000000" stroke="#000000" points="158.1914,-131.0001 168.1913,-127.5 158.1913,-124.0001 158.1914,-131.0001"/>
<text text-anchor="middle" x="105.3573" y="-131.7" font-family="Times,serif" font-size="14.00" fill="#000000"> c </text>
</g>
<!-- 2 -->
<g id="node8" class="node">
<title>2</title>
<path fill="none" stroke="#000000" d="M12,-327.5C12,-327.5 42,-327.5 42,-327.5 48,-327.5 54,-333.5 54,-339.5 54,-339.5 54,-351.5 54,-351.5 54,-357.5 48,-363.5 42,-363.5 42,-363.5 12,-363.5 12,-363.5 6,-363.5 0,-357.5 0,-351.5 0,-351.5 0,-339.5 0,-339.5 0,-333.5 6,-327.5 12,-327.5"/>
<text text-anchor="middle" x="15.8913" y="-341.4" font-family="Times,serif" font-size="14.00" fill="#000000">P2</text>
<polyline fill="none" stroke="#000000" points="31.7826,-327.7 31.7826,-363.5 "/>
<text text-anchor="middle" x="42.5326" y="-341.4" font-family="Times,serif" font-size="14.00" fill="#000000"> </text>
</g>
<!-- 2&#45;&gt;T2 -->
<g id="edge3" class="edge">
<title>2&#45;&gt;T2</title>
<path fill="none" stroke="#000000" d="M54.1217,-345.5C78.8823,-345.5 116.0958,-345.5 146.1717,-345.5"/>
<polygon fill="#000000" stroke="#000000" points="146.4802,-349.0001 156.4802,-345.5 146.4801,-342.0001 146.4802,-349.0001"/>
<text text-anchor="middle" x="105.3573" y="-349.7" font-family="Times,serif" font-size="14.00" fill="#000000"> d </text>
</g>
<!-- 3 -->
<g id="node9" class="node">
<title>3</title>
<path fill="none" stroke="#000000" d="M12,-218.5C12,-218.5 42,-218.5 42,-218.5 48,-218.5 54,-224.5 54,-230.5 54,-230.5 54,-242.5 54,-242.5 54,-248.5 48,-254.5 42,-254.5 42,-254.5 12,-254.5 12,-254.5 6,-254.5 0,-248.5 0,-242.5 0,-242.5 0,-230.5 0,-230.5 0,-224.5 6,-218.5 12,-218.5"/>
<text text-anchor="middle" x="15.8913" y="-232.4" font-family="Times,serif" font-size="14.00" fill="#000000">P3</text>
<polyline fill="none" stroke="#000000" points="31.7826,-218.7 31.7826,-254.5 "/>
<text text-anchor="middle" x="42.5326" y="-232.4" font-family="Times,serif" font-size="14.00" fill="#000000"> </text>
</g>
<!-- 3&#45;&gt;T3 -->
<g id="edge4" class="edge">
<title>3&#45;&gt;T3</title>
<path fill="none" stroke="#000000" d="M54.1217,-236.5C79.1324,-236.5 116.8489,-236.5 147.0809,-236.5"/>
<polygon fill="#000000" stroke="#000000" points="147.4292,-240.0001 157.4291,-236.5 147.4291,-233.0001 147.4292,-240.0001"/>
<text text-anchor="middle" x="105.3573" y="-240.7" font-family="Times,serif" font-size="14.00" fill="#000000"> e , f </text>
</g>
<!-- 4&#45;&gt;T4 -->
<g id="edge5" class="edge">
<title>4&#45;&gt;T4</title>
<path fill="none" stroke="#000000" d="M406.1363,-123.5366C421.2081,-122.3139 440.1113,-122.4445 456.1142,-127.7 473.9021,-133.5417 490.9557,-145.4912 504.148,-156.6478"/>
<polygon fill="#000000" stroke="#000000" points="502.0209,-159.4386 511.8351,-163.4301 506.6521,-154.1896 502.0209,-159.4386"/>
<text text-anchor="middle" x="449.1142" y="-131.7" font-family="Times,serif" font-size="14.00" fill="#000000"> x </text>
</g>
<!-- 5&#45;&gt;T4 -->
<g id="edge6" class="edge">
<title>5&#45;&gt;T4</title>
<path fill="none" stroke="#000000" d="M406.3641,-226.5399C427.5234,-218.806 457.3735,-207.8955 482.3946,-198.75"/>
<polygon fill="#000000" stroke="#000000" points="483.8812,-201.9332 492.0719,-195.2129 481.4781,-195.3586 483.8812,-201.9332"/>
<text text-anchor="middle" x="449.1142" y="-215.7" font-family="Times,serif" font-size="14.00" fill="#000000"> y </text>
</g>
</g>
</svg>
