<?xml version="1.0" encoding="UTF-8" standalone="no"?>
<!DOCTYPE svg PUBLIC "-//W3C//DTD SVG 1.1//EN"
 "http://www.w3.org/Graphics/SVG/1.1/DTD/svg11.dtd">
<!-- Generated by graphviz version 2.40.1 (20161225.0304)
 -->
<!-- Title: g Pages: 1 -->
<svg width="817pt" height="371pt"
 viewBox="0.00 0.00 817.09 371.00" xmlns="http://www.w3.org/2000/svg" xmlns:xlink="http://www.w3.org/1999/xlink">
<g id="graph0" class="graph" transform="scale(1 1) rotate(0) translate(4 367)">
<title>g</title>
<polygon fill="#ffffff" stroke="transparent" points="-4,4 -4,-367 813.0918,-367 813.0918,4 -4,4"/>
<!-- T0 -->
<g id="node1" class="node">
<title>T0</title>
<path fill="#3f51b5" stroke="#ffffff" d="M201.8477,-125.5C201.8477,-125.5 152.0507,-125.5 152.0507,-125.5 146.0507,-125.5 140.0507,-119.5 140.0507,-113.5 140.0507,-113.5 140.0507,-101.5 140.0507,-101.5 140.0507,-95.5 146.0507,-89.5 152.0507,-89.5 152.0507,-89.5 201.8477,-89.5 201.8477,-89.5 207.8477,-89.5 213.8477,-95.5 213.8477,-101.5 213.8477,-101.5 213.8477,-113.5 213.8477,-113.5 213.8477,-119.5 207.8477,-125.5 201.8477,-125.5"/>
<text text-anchor="middle" x="176.9492" y="-103.3" font-family="Times,serif" font-size="14.00" fill="#ffffff">a b + 0 &gt;=</text>
</g>
<!-- 2 -->
<g id="node7" class="node">
<title>2</title>
<path fill="none" stroke="#000000" d="M380.938,-69.5C380.938,-69.5 410.938,-69.5 410.938,-69.5 416.938,-69.5 422.938,-75.5 422.938,-81.5 422.938,-81.5 422.938,-93.5 422.938,-93.5 422.938,-99.5 416.938,-105.5 410.938,-105.5 410.938,-105.5 380.938,-105.5 380.938,-105.5 374.938,-105.5 368.938,-99.5 368.938,-93.5 368.938,-93.5 368.938,-81.5 368.938,-81.5 368.938,-75.5 374.938,-69.5 380.938,-69.5"/>
<text text-anchor="middle" x="384.8293" y="-83.4" font-family="Times,serif" font-size="14.00" fill="#000000">P2</text>
<polyline fill="none" stroke="#000000" points="400.7206,-69.7 400.7206,-105.5 "/>
<text text-anchor="middle" x="411.4706" y="-83.4" font-family="Times,serif" font-size="14.00" fill="#000000"> </text>
</g>
<!-- T0&#45;&gt;2 -->
<g id="edge7" class="edge">
<title>T0&#45;&gt;2</title>
<path fill="none" stroke="#000000" d="M214.1084,-90.9907C225.3774,-86.7703 237.9429,-82.8266 249.8984,-80.7 286.5585,-74.179 329.1607,-77.3649 358.8556,-81.274"/>
<polygon fill="#000000" stroke="#000000" points="358.3997,-84.7442 368.7899,-82.6721 359.3753,-77.8125 358.3997,-84.7442"/>
<text text-anchor="middle" x="291.4182" y="-85.7" font-family="Times,serif" font-size="14.00" fill="#000000">[ a b + , a b + ]</text>
</g>
<!-- 4 -->
<g id="node9" class="node">
<title>4</title>
<path fill="none" stroke="#000000" d="M380.938,-217.5C380.938,-217.5 410.938,-217.5 410.938,-217.5 416.938,-217.5 422.938,-223.5 422.938,-229.5 422.938,-229.5 422.938,-241.5 422.938,-241.5 422.938,-247.5 416.938,-253.5 410.938,-253.5 410.938,-253.5 380.938,-253.5 380.938,-253.5 374.938,-253.5 368.938,-247.5 368.938,-241.5 368.938,-241.5 368.938,-229.5 368.938,-229.5 368.938,-223.5 374.938,-217.5 380.938,-217.5"/>
<text text-anchor="middle" x="384.8293" y="-231.4" font-family="Times,serif" font-size="14.00" fill="#000000">P4</text>
<polyline fill="none" stroke="#000000" points="400.7206,-217.7 400.7206,-253.5 "/>
<text text-anchor="middle" x="411.4706" y="-231.4" font-family="Times,serif" font-size="14.00" fill="#000000"> </text>
</g>
<!-- T0&#45;&gt;4 -->
<g id="edge8" class="edge">
<title>T0&#45;&gt;4</title>
<path fill="none" stroke="#000000" d="M207.8605,-125.5678C247.8421,-148.9373 317.3691,-189.5761 359.7638,-214.356"/>
<polygon fill="#000000" stroke="#000000" points="358.2357,-217.5169 368.6354,-219.5415 361.7682,-211.4735 358.2357,-217.5169"/>
<text text-anchor="middle" x="291.4182" y="-201.7" font-family="Times,serif" font-size="14.00" fill="#000000">[ a b &#45; , a b + ]</text>
</g>
<!-- T1 -->
<g id="node2" class="node">
<title>T1</title>
<path fill="#3f51b5" stroke="#ffffff" d="M201.8477,-293.5C201.8477,-293.5 152.0507,-293.5 152.0507,-293.5 146.0507,-293.5 140.0507,-287.5 140.0507,-281.5 140.0507,-281.5 140.0507,-269.5 140.0507,-269.5 140.0507,-263.5 146.0507,-257.5 152.0507,-257.5 152.0507,-257.5 201.8477,-257.5 201.8477,-257.5 207.8477,-257.5 213.8477,-263.5 213.8477,-269.5 213.8477,-269.5 213.8477,-281.5 213.8477,-281.5 213.8477,-287.5 207.8477,-293.5 201.8477,-293.5"/>
<text text-anchor="middle" x="176.9492" y="-271.3" font-family="Times,serif" font-size="14.00" fill="#ffffff">c 3 + 0 &gt;=</text>
</g>
<!-- T1&#45;&gt;4 -->
<g id="edge9" class="edge">
<title>T1&#45;&gt;4</title>
<path fill="none" stroke="#000000" d="M214.0977,-268.7145C254.3977,-261.3534 318.3644,-249.6694 358.6997,-242.3019"/>
<polygon fill="#000000" stroke="#000000" points="359.4563,-245.7217 368.6647,-240.4817 358.1985,-238.8356 359.4563,-245.7217"/>
<text text-anchor="middle" x="291.4182" y="-264.7" font-family="Times,serif" font-size="14.00" fill="#000000">[ c 1 + , c 1 &#45; ]</text>
</g>
<!-- T2 -->
<g id="node3" class="node">
<title>T2</title>
<path fill="#3f51b5" stroke="#ffffff" d="M587.3794,-105.5C587.3794,-105.5 557.3794,-105.5 557.3794,-105.5 551.3794,-105.5 545.3794,-99.5 545.3794,-93.5 545.3794,-93.5 545.3794,-81.5 545.3794,-81.5 545.3794,-75.5 551.3794,-69.5 557.3794,-69.5 557.3794,-69.5 587.3794,-69.5 587.3794,-69.5 593.3794,-69.5 599.3794,-75.5 599.3794,-81.5 599.3794,-81.5 599.3794,-93.5 599.3794,-93.5 599.3794,-99.5 593.3794,-105.5 587.3794,-105.5"/>
<text text-anchor="middle" x="572.3794" y="-83.3" font-family="Times,serif" font-size="14.00" fill="#ffffff">z 1 &gt;=</text>
</g>
<!-- 6 -->
<g id="node11" class="node">
<title>6</title>
<path fill="none" stroke="#000000" d="M767.0918,-69.5C767.0918,-69.5 797.0918,-69.5 797.0918,-69.5 803.0918,-69.5 809.0918,-75.5 809.0918,-81.5 809.0918,-81.5 809.0918,-93.5 809.0918,-93.5 809.0918,-99.5 803.0918,-105.5 797.0918,-105.5 797.0918,-105.5 767.0918,-105.5 767.0918,-105.5 761.0918,-105.5 755.0918,-99.5 755.0918,-93.5 755.0918,-93.5 755.0918,-81.5 755.0918,-81.5 755.0918,-75.5 761.0918,-69.5 767.0918,-69.5"/>
<text text-anchor="middle" x="770.9831" y="-83.4" font-family="Times,serif" font-size="14.00" fill="#000000">P6</text>
<polyline fill="none" stroke="#000000" points="786.8744,-69.7 786.8744,-105.5 "/>
<text text-anchor="middle" x="797.6244" y="-83.4" font-family="Times,serif" font-size="14.00" fill="#000000"> </text>
</g>
<!-- T2&#45;&gt;6 -->
<g id="edge10" class="edge">
<title>T2&#45;&gt;6</title>
<path fill="none" stroke="#000000" d="M599.7956,-87.5C636.9493,-87.5 703.4105,-87.5 744.9972,-87.5"/>
<polygon fill="#000000" stroke="#000000" points="745.0012,-91.0001 755.0012,-87.5 745.0011,-84.0001 745.0012,-91.0001"/>
<text text-anchor="middle" x="687.099" y="-91.7" font-family="Times,serif" font-size="14.00" fill="#000000">[ z 1 + ]</text>
</g>
<!-- T3 -->
<g id="node4" class="node">
<title>T3</title>
<path fill="#3f51b5" stroke="#ffffff" d="M607.3341,-314.5C607.3341,-314.5 537.4247,-314.5 537.4247,-314.5 531.4247,-314.5 525.4247,-308.5 525.4247,-302.5 525.4247,-302.5 525.4247,-290.5 525.4247,-290.5 525.4247,-284.5 531.4247,-278.5 537.4247,-278.5 537.4247,-278.5 607.3341,-278.5 607.3341,-278.5 613.3341,-278.5 619.3341,-284.5 619.3341,-290.5 619.3341,-290.5 619.3341,-302.5 619.3341,-302.5 619.3341,-308.5 613.3341,-314.5 607.3341,-314.5"/>
<text text-anchor="middle" x="572.3794" y="-292.3" font-family="Times,serif" font-size="14.00" fill="#ffffff">f e d + + 0 &lt;=</text>
</g>
<!-- 7 -->
<g id="node12" class="node">
<title>7</title>
<path fill="none" stroke="#000000" d="M767.0918,-278.5C767.0918,-278.5 797.0918,-278.5 797.0918,-278.5 803.0918,-278.5 809.0918,-284.5 809.0918,-290.5 809.0918,-290.5 809.0918,-302.5 809.0918,-302.5 809.0918,-308.5 803.0918,-314.5 797.0918,-314.5 797.0918,-314.5 767.0918,-314.5 767.0918,-314.5 761.0918,-314.5 755.0918,-308.5 755.0918,-302.5 755.0918,-302.5 755.0918,-290.5 755.0918,-290.5 755.0918,-284.5 761.0918,-278.5 767.0918,-278.5"/>
<text text-anchor="middle" x="770.9831" y="-292.4" font-family="Times,serif" font-size="14.00" fill="#000000">P7</text>
<polyline fill="none" stroke="#000000" points="786.8744,-278.7 786.8744,-314.5 "/>
<text text-anchor="middle" x="797.6244" y="-292.4" font-family="Times,serif" font-size="14.00" fill="#000000"> </text>
</g>
<!-- T3&#45;&gt;7 -->
<g id="edge11" class="edge">
<title>T3&#45;&gt;7</title>
<path fill="none" stroke="#000000" d="M619.1819,-296.5C657.0342,-296.5 709.625,-296.5 744.7047,-296.5"/>
<polygon fill="#000000" stroke="#000000" points="744.9937,-300.0001 754.9936,-296.5 744.9936,-293.0001 744.9937,-300.0001"/>
<text text-anchor="middle" x="687.099" y="-300.7" font-family="Times,serif" font-size="14.00" fill="#000000">[ e d + f + ]</text>
</g>
<!-- 0 -->
<g id="node5" class="node">
<title>0</title>
<path fill="none" stroke="#000000" d="M12,-109.5C12,-109.5 42,-109.5 42,-109.5 48,-109.5 54,-115.5 54,-121.5 54,-121.5 54,-133.5 54,-133.5 54,-139.5 48,-145.5 42,-145.5 42,-145.5 12,-145.5 12,-145.5 6,-145.5 0,-139.5 0,-133.5 0,-133.5 0,-121.5 0,-121.5 0,-115.5 6,-109.5 12,-109.5"/>
<text text-anchor="middle" x="15.8913" y="-123.4" font-family="Times,serif" font-size="14.00" fill="#000000">P0</text>
<polyline fill="none" stroke="#000000" points="31.7826,-109.7 31.7826,-145.5 "/>
<text text-anchor="middle" x="42.5326" y="-123.4" font-family="Times,serif" font-size="14.00" fill="#000000"> </text>
</g>
<!-- 0&#45;&gt;T0 -->
<g id="edge1" class="edge">
<title>0&#45;&gt;T0</title>
<path fill="none" stroke="#000000" d="M54.1547,-123.8782C75.2209,-121.0684 104.9319,-117.1056 129.8518,-113.7818"/>
<polygon fill="#000000" stroke="#000000" points="130.3945,-117.2405 139.844,-112.449 129.469,-110.3019 130.3945,-117.2405"/>
<text text-anchor="middle" x="97" y="-122.7" font-family="Times,serif" font-size="14.00" fill="#000000"> a </text>
</g>
<!-- 1 -->
<g id="node6" class="node">
<title>1</title>
<path fill="none" stroke="#000000" d="M12,-.5C12,-.5 42,-.5 42,-.5 48,-.5 54,-6.5 54,-12.5 54,-12.5 54,-24.5 54,-24.5 54,-30.5 48,-36.5 42,-36.5 42,-36.5 12,-36.5 12,-36.5 6,-36.5 0,-30.5 0,-24.5 0,-24.5 0,-12.5 0,-12.5 0,-6.5 6,-.5 12,-.5"/>
<text text-anchor="middle" x="15.8913" y="-14.4" font-family="Times,serif" font-size="14.00" fill="#000000">P1</text>
<polyline fill="none" stroke="#000000" points="31.7826,-.7 31.7826,-36.5 "/>
<text text-anchor="middle" x="42.5326" y="-14.4" font-family="Times,serif" font-size="14.00" fill="#000000"> </text>
</g>
<!-- 1&#45;&gt;T0 -->
<g id="edge2" class="edge">
<title>1&#45;&gt;T0</title>
<path fill="none" stroke="#000000" d="M54.1547,-34.6172C77.4073,-48.4185 111.1923,-68.471 137.441,-84.0505"/>
<polygon fill="#000000" stroke="#000000" points="135.9958,-87.2628 146.3816,-89.3571 139.5686,-81.2432 135.9958,-87.2628"/>
<text text-anchor="middle" x="97" y="-67.7" font-family="Times,serif" font-size="14.00" fill="#000000"> b </text>
</g>
<!-- 2&#45;&gt;T2 -->
<g id="edge4" class="edge">
<title>2&#45;&gt;T2</title>
<path fill="none" stroke="#000000" d="M423.1203,-87.5C453.0389,-87.5 501.3282,-87.5 534.8452,-87.5"/>
<polygon fill="#000000" stroke="#000000" points="535.1663,-91.0001 545.1662,-87.5 535.1662,-84.0001 535.1663,-91.0001"/>
<text text-anchor="middle" x="474.2953" y="-91.7" font-family="Times,serif" font-size="14.00" fill="#000000"> r , z </text>
</g>
<!-- 3 -->
<g id="node8" class="node">
<title>3</title>
<path fill="none" stroke="#000000" d="M12,-257.5C12,-257.5 42,-257.5 42,-257.5 48,-257.5 54,-263.5 54,-269.5 54,-269.5 54,-281.5 54,-281.5 54,-287.5 48,-293.5 42,-293.5 42,-293.5 12,-293.5 12,-293.5 6,-293.5 0,-287.5 0,-281.5 0,-281.5 0,-269.5 0,-269.5 0,-263.5 6,-257.5 12,-257.5"/>
<text text-anchor="middle" x="15.8913" y="-271.4" font-family="Times,serif" font-size="14.00" fill="#000000">P3</text>
<polyline fill="none" stroke="#000000" points="31.7826,-257.7 31.7826,-293.5 "/>
<text text-anchor="middle" x="42.5326" y="-271.4" font-family="Times,serif" font-size="14.00" fill="#000000"> </text>
</g>
<!-- 3&#45;&gt;T1 -->
<g id="edge3" class="edge">
<title>3&#45;&gt;T1</title>
<path fill="none" stroke="#000000" d="M54.1547,-275.5C75.1273,-275.5 104.668,-275.5 129.5192,-275.5"/>
<polygon fill="#000000" stroke="#000000" points="129.844,-279.0001 139.844,-275.5 129.844,-272.0001 129.844,-279.0001"/>
<text text-anchor="middle" x="97" y="-279.7" font-family="Times,serif" font-size="14.00" fill="#000000"> c </text>
</g>
<!-- 4&#45;&gt;T3 -->
<g id="edge5" class="edge">
<title>4&#45;&gt;T3</title>
<path fill="none" stroke="#000000" d="M423.1203,-244.8976C447.7181,-253.4016 484.7335,-266.1987 515.7477,-276.9211"/>
<polygon fill="#000000" stroke="#000000" points="514.9883,-280.3617 525.5831,-280.3214 517.2756,-273.746 514.9883,-280.3617"/>
<text text-anchor="middle" x="474.2953" y="-271.7" font-family="Times,serif" font-size="14.00" fill="#000000"> e , f </text>
</g>
<!-- 5 -->
<g id="node10" class="node">
<title>5</title>
<path fill="none" stroke="#000000" d="M380.938,-326.5C380.938,-326.5 410.938,-326.5 410.938,-326.5 416.938,-326.5 422.938,-332.5 422.938,-338.5 422.938,-338.5 422.938,-350.5 422.938,-350.5 422.938,-356.5 416.938,-362.5 410.938,-362.5 410.938,-362.5 380.938,-362.5 380.938,-362.5 374.938,-362.5 368.938,-356.5 368.938,-350.5 368.938,-350.5 368.938,-338.5 368.938,-338.5 368.938,-332.5 374.938,-326.5 380.938,-326.5"/>
<text text-anchor="middle" x="384.8293" y="-340.4" font-family="Times,serif" font-size="14.00" fill="#000000">P5</text>
<polyline fill="none" stroke="#000000" points="400.7206,-326.7 400.7206,-362.5 "/>
<text text-anchor="middle" x="411.4706" y="-340.4" font-family="Times,serif" font-size="14.00" fill="#000000"> </text>
</g>
<!-- 5&#45;&gt;T3 -->
<g id="edge6" class="edge">
<title>5&#45;&gt;T3</title>
<path fill="none" stroke="#000000" d="M423.1203,-337.1052C447.7181,-330.4135 484.7335,-320.3436 515.7477,-311.9064"/>
<polygon fill="#000000" stroke="#000000" points="516.8525,-315.2331 525.5831,-309.2307 515.015,-308.4786 516.8525,-315.2331"/>
<text text-anchor="middle" x="474.2953" y="-329.7" font-family="Times,serif" font-size="14.00" fill="#000000"> e , d </text>
</g>
</g>
</svg>
