<?xml version="1.0" encoding="UTF-8" standalone="no"?>
<!DOCTYPE svg PUBLIC "-//W3C//DTD SVG 1.1//EN"
 "http://www.w3.org/Graphics/SVG/1.1/DTD/svg11.dtd">
<!-- Generated by graphviz version 2.40.1 (20161225.0304)
 -->
<!-- Title: g Pages: 1 -->
<svg width="5851pt" height="1119pt"
 viewBox="0.00 0.00 5851.16 1118.87" xmlns="http://www.w3.org/2000/svg" xmlns:xlink="http://www.w3.org/1999/xlink">
<g id="graph0" class="graph" transform="scale(1 1) rotate(0) translate(4 1114.8653)">
<title>g</title>
<polygon fill="#ffffff" stroke="transparent" points="-4,4 -4,-1114.8653 5847.157,-1114.8653 5847.157,4 -4,4"/>
<!-- T0 -->
<g id="node1" class="node">
<title>T0</title>
<path fill="#3f51b5" stroke="#ffffff" d="M525.9998,-857.6628C525.9998,-857.6628 473.7816,-857.6628 473.7816,-857.6628 467.7816,-857.6628 461.7816,-851.6628 461.7816,-845.6628 461.7816,-845.6628 461.7816,-833.6628 461.7816,-833.6628 461.7816,-827.6628 467.7816,-821.6628 473.7816,-821.6628 473.7816,-821.6628 525.9998,-821.6628 525.9998,-821.6628 531.9998,-821.6628 537.9998,-827.6628 537.9998,-833.6628 537.9998,-833.6628 537.9998,-845.6628 537.9998,-845.6628 537.9998,-851.6628 531.9998,-857.6628 525.9998,-857.6628"/>
<text text-anchor="middle" x="499.8907" y="-835.4628" font-family="Times,serif" font-size="14.00" fill="#ffffff">date 31 &lt;=</text>
</g>
<!-- 1 -->
<g id="node5" class="node">
<title>1</title>
<path fill="#4caf50" stroke="#ffffff" d="M1542.6846,-875.6628C1542.6846,-875.6628 1572.6846,-875.6628 1572.6846,-875.6628 1578.6846,-875.6628 1584.6846,-881.6628 1584.6846,-887.6628 1584.6846,-887.6628 1584.6846,-899.6628 1584.6846,-899.6628 1584.6846,-905.6628 1578.6846,-911.6628 1572.6846,-911.6628 1572.6846,-911.6628 1542.6846,-911.6628 1542.6846,-911.6628 1536.6846,-911.6628 1530.6846,-905.6628 1530.6846,-899.6628 1530.6846,-899.6628 1530.6846,-887.6628 1530.6846,-887.6628 1530.6846,-881.6628 1536.6846,-875.6628 1542.6846,-875.6628"/>
<text text-anchor="middle" x="1546.5759" y="-889.5628" font-family="Times,serif" font-size="14.00" fill="#ffffff">P1</text>
<polyline fill="none" stroke="#ffffff" points="1562.4672,-875.8628 1562.4672,-911.6628 "/>
<text text-anchor="middle" x="1573.2172" y="-889.5628" font-family="Times,serif" font-size="14.00" fill="#ffffff"> </text>
</g>
<!-- T0&#45;&gt;1 -->
<g id="edge12" class="edge">
<title>T0&#45;&gt;1</title>
<path fill="none" stroke="#000000" d="M538.0432,-850.4939C549.495,-853.3212 562.1497,-856.0305 573.9452,-857.6628 939.9024,-908.305 1389.2719,-899.09 1520.2356,-894.9971"/>
<polygon fill="#000000" stroke="#000000" points="1520.6349,-898.4861 1530.5168,-894.6655 1520.4092,-891.4898 1520.6349,-898.4861"/>
<text text-anchor="middle" x="1034.3149" y="-902.8628" font-family="Times,serif" font-size="14.00" fill="#000000">[ productName , price ]</text>
</g>
<!-- 2 -->
<g id="node6" class="node">
<title>2</title>
<path fill="none" stroke="#000000" d="M1542.6846,-727.6628C1542.6846,-727.6628 1572.6846,-727.6628 1572.6846,-727.6628 1578.6846,-727.6628 1584.6846,-733.6628 1584.6846,-739.6628 1584.6846,-739.6628 1584.6846,-751.6628 1584.6846,-751.6628 1584.6846,-757.6628 1578.6846,-763.6628 1572.6846,-763.6628 1572.6846,-763.6628 1542.6846,-763.6628 1542.6846,-763.6628 1536.6846,-763.6628 1530.6846,-757.6628 1530.6846,-751.6628 1530.6846,-751.6628 1530.6846,-739.6628 1530.6846,-739.6628 1530.6846,-733.6628 1536.6846,-727.6628 1542.6846,-727.6628"/>
<text text-anchor="middle" x="1546.5759" y="-741.5628" font-family="Times,serif" font-size="14.00" fill="#000000">P2</text>
<polyline fill="none" stroke="#000000" points="1562.4672,-727.8628 1562.4672,-763.6628 "/>
<text text-anchor="middle" x="1573.2172" y="-741.5628" font-family="Times,serif" font-size="14.00" fill="#000000"> </text>
</g>
<!-- T0&#45;&gt;2 -->
<g id="edge13" class="edge">
<title>T0&#45;&gt;2</title>
<path fill="none" stroke="#000000" d="M511.2101,-821.6287C523.921,-803.2334 546.4159,-775.7551 573.9452,-763.8628 914.7558,-616.6377 1385.9268,-706.276 1520.4696,-736.7089"/>
<polygon fill="#000000" stroke="#000000" points="1519.7619,-740.1374 1530.2913,-738.9617 1521.3269,-733.3146 1519.7619,-740.1374"/>
<text text-anchor="middle" x="1034.3149" y="-768.8628" font-family="Times,serif" font-size="14.00" fill="#000000">date 21 &lt;= [ productName , price , date , operator , influencer , shopper , retailer ] [ productName , price 0.9 * , date , operator , influencer , shopper, retailer ] if else</text>
</g>
<!-- T1 -->
<g id="node2" class="node">
<title>T1</title>
<path fill="#3f51b5" stroke="#ffffff" d="M2034.5208,-763.6628C2034.5208,-763.6628 2004.5208,-763.6628 2004.5208,-763.6628 1998.5208,-763.6628 1992.5208,-757.6628 1992.5208,-751.6628 1992.5208,-751.6628 1992.5208,-739.6628 1992.5208,-739.6628 1992.5208,-733.6628 1998.5208,-727.6628 2004.5208,-727.6628 2004.5208,-727.6628 2034.5208,-727.6628 2034.5208,-727.6628 2040.5208,-727.6628 2046.5208,-733.6628 2046.5208,-739.6628 2046.5208,-739.6628 2046.5208,-751.6628 2046.5208,-751.6628 2046.5208,-757.6628 2040.5208,-763.6628 2034.5208,-763.6628"/>
</g>
<!-- 3 -->
<g id="node7" class="node">
<title>3</title>
<path fill="#4caf50" stroke="#ffffff" d="M3398.2628,-748.6628C3398.2628,-748.6628 3428.2628,-748.6628 3428.2628,-748.6628 3434.2628,-748.6628 3440.2628,-754.6628 3440.2628,-760.6628 3440.2628,-760.6628 3440.2628,-772.6628 3440.2628,-772.6628 3440.2628,-778.6628 3434.2628,-784.6628 3428.2628,-784.6628 3428.2628,-784.6628 3398.2628,-784.6628 3398.2628,-784.6628 3392.2628,-784.6628 3386.2628,-778.6628 3386.2628,-772.6628 3386.2628,-772.6628 3386.2628,-760.6628 3386.2628,-760.6628 3386.2628,-754.6628 3392.2628,-748.6628 3398.2628,-748.6628"/>
<text text-anchor="middle" x="3402.1541" y="-762.5628" font-family="Times,serif" font-size="14.00" fill="#ffffff">P3</text>
<polyline fill="none" stroke="#ffffff" points="3418.0454,-748.8628 3418.0454,-784.6628 "/>
<text text-anchor="middle" x="3428.7954" y="-762.5628" font-family="Times,serif" font-size="14.00" fill="#ffffff"> </text>
</g>
<!-- T1&#45;&gt;3 -->
<g id="edge14" class="edge">
<title>T1&#45;&gt;3</title>
<path fill="none" stroke="#000000" d="M2046.7649,-755.2239C2057.7283,-758.6011 2070.5816,-761.9769 2082.5208,-763.6628 2590.1486,-835.3421 3217.5984,-785.0119 3375.7421,-770.3324"/>
<polygon fill="#000000" stroke="#000000" points="3376.2638,-773.7989 3385.8926,-769.3789 3375.6091,-766.8296 3376.2638,-773.7989"/>
<text text-anchor="middle" x="2716.3918" y="-805.8628" font-family="Times,serif" font-size="14.00" fill="#000000">productCount count == date 21 &gt; &amp;&amp; flag False == &amp;&amp; [ influencer , influencerComission 0.01 + , productCount , influencerBalance , True ] [ influencer , influencerComission , productCount , influencerBalance , flag ] if else</text>
</g>
<!-- 4 -->
<g id="node8" class="node">
<title>4</title>
<path fill="#4caf50" stroke="#ffffff" d="M5801.157,-739.6628C5801.157,-739.6628 5831.157,-739.6628 5831.157,-739.6628 5837.157,-739.6628 5843.157,-745.6628 5843.157,-751.6628 5843.157,-751.6628 5843.157,-763.6628 5843.157,-763.6628 5843.157,-769.6628 5837.157,-775.6628 5831.157,-775.6628 5831.157,-775.6628 5801.157,-775.6628 5801.157,-775.6628 5795.157,-775.6628 5789.157,-769.6628 5789.157,-763.6628 5789.157,-763.6628 5789.157,-751.6628 5789.157,-751.6628 5789.157,-745.6628 5795.157,-739.6628 5801.157,-739.6628"/>
<text text-anchor="middle" x="5805.0483" y="-753.5628" font-family="Times,serif" font-size="14.00" fill="#ffffff">P4</text>
<polyline fill="none" stroke="#ffffff" points="5820.9396,-739.8628 5820.9396,-775.6628 "/>
<text text-anchor="middle" x="5831.6896" y="-753.5628" font-family="Times,serif" font-size="14.00" fill="#ffffff"> </text>
</g>
<!-- T1&#45;&gt;4 -->
<g id="edge15" class="edge">
<title>T1&#45;&gt;4</title>
<path fill="none" stroke="#000000" d="M2025.9667,-763.6636C2034.8782,-785.5017 2053.2585,-821.2994 2082.5208,-836.6628 3252.2841,-1450.8181 3733.9998,-840.5517 5055.1856,-841.6628 5365.395,-841.9237 5475.6972,-980.3927 5753.157,-841.6628 5776.6969,-829.8929 5793.723,-804.6819 5804.0954,-784.9339"/>
<polygon fill="#000000" stroke="#000000" points="5807.3376,-786.2741 5808.6522,-775.7611 5801.0686,-783.1597 5807.3376,-786.2741"/>
<text text-anchor="middle" x="4202.7242" y="-1075.8628" font-family="Times,serif" font-size="14.00" fill="#000000">count</text>
</g>
<!-- 5 -->
<g id="node9" class="node">
<title>5</title>
<path fill="none" stroke="#000000" d="M3398.2628,-633.6628C3398.2628,-633.6628 3428.2628,-633.6628 3428.2628,-633.6628 3434.2628,-633.6628 3440.2628,-639.6628 3440.2628,-645.6628 3440.2628,-645.6628 3440.2628,-657.6628 3440.2628,-657.6628 3440.2628,-663.6628 3434.2628,-669.6628 3428.2628,-669.6628 3428.2628,-669.6628 3398.2628,-669.6628 3398.2628,-669.6628 3392.2628,-669.6628 3386.2628,-663.6628 3386.2628,-657.6628 3386.2628,-657.6628 3386.2628,-645.6628 3386.2628,-645.6628 3386.2628,-639.6628 3392.2628,-633.6628 3398.2628,-633.6628"/>
<text text-anchor="middle" x="3402.1541" y="-647.5628" font-family="Times,serif" font-size="14.00" fill="#000000">P5</text>
<polyline fill="none" stroke="#000000" points="3418.0454,-633.8628 3418.0454,-669.6628 "/>
<text text-anchor="middle" x="3428.7954" y="-647.5628" font-family="Times,serif" font-size="14.00" fill="#000000"> </text>
</g>
<!-- T1&#45;&gt;5 -->
<g id="edge16" class="edge">
<title>T1&#45;&gt;5</title>
<path fill="none" stroke="#000000" d="M2025.6497,-727.5107C2034.3307,-705.0513 2052.573,-667.8271 2082.5208,-651.8628 2314.3759,-528.2673 3184.7102,-624.1373 3375.9522,-647.058"/>
<polygon fill="#000000" stroke="#000000" points="3375.7144,-650.5547 3386.0617,-648.2778 3376.553,-643.6051 3375.7144,-650.5547"/>
<text text-anchor="middle" x="2716.3918" y="-656.8628" font-family="Times,serif" font-size="14.00" fill="#000000">[ productName , price , date , operator , influencer , shopper , retailer ]</text>
</g>
<!-- T2 -->
<g id="node3" class="node">
<title>T2</title>
<path fill="#3f51b5" stroke="#ffffff" d="M5007.1856,-558.6628C5007.1856,-558.6628 4977.1856,-558.6628 4977.1856,-558.6628 4971.1856,-558.6628 4965.1856,-552.6628 4965.1856,-546.6628 4965.1856,-546.6628 4965.1856,-534.6628 4965.1856,-534.6628 4965.1856,-528.6628 4971.1856,-522.6628 4977.1856,-522.6628 4977.1856,-522.6628 5007.1856,-522.6628 5007.1856,-522.6628 5013.1856,-522.6628 5019.1856,-528.6628 5019.1856,-534.6628 5019.1856,-534.6628 5019.1856,-546.6628 5019.1856,-546.6628 5019.1856,-552.6628 5013.1856,-558.6628 5007.1856,-558.6628"/>
</g>
<!-- T2&#45;&gt;3 -->
<g id="edge17" class="edge">
<title>T2&#45;&gt;3</title>
<path fill="none" stroke="#000000" d="M4986.0014,-558.8149C4977.262,-581.3164 4958.958,-618.7579 4929.1856,-635.6628 4648.0988,-795.265 3772.493,-575.5171 3476.2628,-704.8628 3458.821,-712.4786 3443.4725,-727.2542 3432.2926,-740.4483"/>
<polygon fill="#000000" stroke="#000000" points="3429.4468,-738.4014 3425.8887,-748.3809 3434.8935,-742.7984 3429.4468,-738.4014"/>
<text text-anchor="middle" x="4202.7242" y="-709.8628" font-family="Times,serif" font-size="14.00" fill="#000000">productCount 10 == [ influencer , influencerComission 0.01 + , productCount 1 + , influencerBalance influencerComission price * + , flag ] [ influencer , influencerComission , productCount 1 + , influencerBalance influencerComission price * + , flag ] if else</text>
</g>
<!-- T2&#45;&gt;4 -->
<g id="edge18" class="edge">
<title>T2&#45;&gt;4</title>
<path fill="none" stroke="#000000" d="M4996.7815,-559.038C5004.272,-584.768 5021.7519,-630.8243 5055.1856,-652.6628 5185.6793,-737.8999 5604.6164,-674.6436 5753.157,-721.8628 5762.6779,-724.8894 5772.3543,-729.4833 5781.1737,-734.3808"/>
<polygon fill="#000000" stroke="#000000" points="5779.6111,-737.5214 5790.0116,-739.5415 5783.1409,-731.4765 5779.6111,-737.5214"/>
<text text-anchor="middle" x="5404.1713" y="-726.8628" font-family="Times,serif" font-size="14.00" fill="#000000">count productCount &lt;= [ productCount 1 + ] [ count ] if else</text>
</g>
<!-- 6 -->
<g id="node10" class="node">
<title>6</title>
<path fill="#4caf50" stroke="#ffffff" d="M5801.157,-475.6628C5801.157,-475.6628 5831.157,-475.6628 5831.157,-475.6628 5837.157,-475.6628 5843.157,-481.6628 5843.157,-487.6628 5843.157,-487.6628 5843.157,-499.6628 5843.157,-499.6628 5843.157,-505.6628 5837.157,-511.6628 5831.157,-511.6628 5831.157,-511.6628 5801.157,-511.6628 5801.157,-511.6628 5795.157,-511.6628 5789.157,-505.6628 5789.157,-499.6628 5789.157,-499.6628 5789.157,-487.6628 5789.157,-487.6628 5789.157,-481.6628 5795.157,-475.6628 5801.157,-475.6628"/>
<text text-anchor="middle" x="5805.0483" y="-489.5628" font-family="Times,serif" font-size="14.00" fill="#ffffff">P6</text>
<polyline fill="none" stroke="#ffffff" points="5820.9396,-475.8628 5820.9396,-511.6628 "/>
<text text-anchor="middle" x="5831.6896" y="-489.5628" font-family="Times,serif" font-size="14.00" fill="#ffffff"> </text>
</g>
<!-- T2&#45;&gt;6 -->
<g id="edge19" class="edge">
<title>T2&#45;&gt;6</title>
<path fill="none" stroke="#000000" d="M5019.4437,-537.3914C5030.5213,-536.1478 5043.4523,-534.8052 5055.1856,-533.8628 5332.4461,-511.5929 5667.5684,-498.7876 5778.4962,-494.9219"/>
<polygon fill="#000000" stroke="#000000" points="5778.9483,-498.4085 5788.8215,-494.5654 5778.7067,-491.4126 5778.9483,-498.4085"/>
<text text-anchor="middle" x="5404.1713" y="-538.8628" font-family="Times,serif" font-size="14.00" fill="#000000">[ shopper , shopperComission , shopperBalance shopperComission price * + ]</text>
</g>
<!-- 7 -->
<g id="node11" class="node">
<title>7</title>
<path fill="#4caf50" stroke="#ffffff" d="M5801.157,-267.6628C5801.157,-267.6628 5831.157,-267.6628 5831.157,-267.6628 5837.157,-267.6628 5843.157,-273.6628 5843.157,-279.6628 5843.157,-279.6628 5843.157,-291.6628 5843.157,-291.6628 5843.157,-297.6628 5837.157,-303.6628 5831.157,-303.6628 5831.157,-303.6628 5801.157,-303.6628 5801.157,-303.6628 5795.157,-303.6628 5789.157,-297.6628 5789.157,-291.6628 5789.157,-291.6628 5789.157,-279.6628 5789.157,-279.6628 5789.157,-273.6628 5795.157,-267.6628 5801.157,-267.6628"/>
<text text-anchor="middle" x="5805.0483" y="-281.5628" font-family="Times,serif" font-size="14.00" fill="#ffffff">P7</text>
<polyline fill="none" stroke="#ffffff" points="5820.9396,-267.8628 5820.9396,-303.6628 "/>
<text text-anchor="middle" x="5831.6896" y="-281.5628" font-family="Times,serif" font-size="14.00" fill="#ffffff"> </text>
</g>
<!-- T2&#45;&gt;7 -->
<g id="edge20" class="edge">
<title>T2&#45;&gt;7</title>
<path fill="none" stroke="#000000" d="M4995.8393,-522.3918C5004.6674,-480.1912 5028.4165,-377.9376 5055.1856,-356.8628 5168.9889,-267.2675 5642.1013,-278.7035 5778.9351,-284.0124"/>
<polygon fill="#000000" stroke="#000000" points="5778.8004,-287.5097 5788.9325,-284.413 5779.0807,-280.5154 5778.8004,-287.5097"/>
<text text-anchor="middle" x="5404.1713" y="-361.8628" font-family="Times,serif" font-size="14.00" fill="#000000">[ retailer , retailerComission , retailerBalance 1.0 operatorComission &#45; shopperComission &#45; influencerComission &#45; price * + ]</text>
</g>
<!-- 8 -->
<g id="node12" class="node">
<title>8</title>
<path fill="#4caf50" stroke="#ffffff" d="M5801.157,-119.6628C5801.157,-119.6628 5831.157,-119.6628 5831.157,-119.6628 5837.157,-119.6628 5843.157,-125.6628 5843.157,-131.6628 5843.157,-131.6628 5843.157,-143.6628 5843.157,-143.6628 5843.157,-149.6628 5837.157,-155.6628 5831.157,-155.6628 5831.157,-155.6628 5801.157,-155.6628 5801.157,-155.6628 5795.157,-155.6628 5789.157,-149.6628 5789.157,-143.6628 5789.157,-143.6628 5789.157,-131.6628 5789.157,-131.6628 5789.157,-125.6628 5795.157,-119.6628 5801.157,-119.6628"/>
<text text-anchor="middle" x="5805.0483" y="-133.5628" font-family="Times,serif" font-size="14.00" fill="#ffffff">P8</text>
<polyline fill="none" stroke="#ffffff" points="5820.9396,-119.8628 5820.9396,-155.6628 "/>
<text text-anchor="middle" x="5831.6896" y="-133.5628" font-family="Times,serif" font-size="14.00" fill="#ffffff"> </text>
</g>
<!-- T2&#45;&gt;8 -->
<g id="edge21" class="edge">
<title>T2&#45;&gt;8</title>
<path fill="none" stroke="#000000" d="M4993.9027,-522.3748C5000.8445,-450.3342 5027.7745,-188.9145 5055.1856,-164.8628 5163.7732,-69.583 5641.595,-117.1655 5779.0491,-133.1232"/>
<polygon fill="#000000" stroke="#000000" points="5778.7462,-136.6116 5789.0864,-134.3029 5779.5634,-129.6595 5778.7462,-136.6116"/>
<text text-anchor="middle" x="5404.1713" y="-169.8628" font-family="Times,serif" font-size="14.00" fill="#000000">[ operator , operatorComission , operatorBalance operatorComission price * + ]</text>
</g>
<!-- 0 -->
<g id="node4" class="node">
<title>0</title>
<path fill="#4caf50" stroke="#ffffff" d="M12,-821.6628C12,-821.6628 42,-821.6628 42,-821.6628 48,-821.6628 54,-827.6628 54,-833.6628 54,-833.6628 54,-845.6628 54,-845.6628 54,-851.6628 48,-857.6628 42,-857.6628 42,-857.6628 12,-857.6628 12,-857.6628 6,-857.6628 0,-851.6628 0,-845.6628 0,-845.6628 0,-833.6628 0,-833.6628 0,-827.6628 6,-821.6628 12,-821.6628"/>
<text text-anchor="middle" x="15.8913" y="-835.5628" font-family="Times,serif" font-size="14.00" fill="#ffffff">P0</text>
<polyline fill="none" stroke="#ffffff" points="31.7826,-821.8628 31.7826,-857.6628 "/>
<text text-anchor="middle" x="42.5326" y="-835.5628" font-family="Times,serif" font-size="14.00" fill="#ffffff"> </text>
</g>
<!-- 0&#45;&gt;T0 -->
<g id="edge1" class="edge">
<title>0&#45;&gt;T0</title>
<path fill="none" stroke="#000000" d="M54.1231,-839.6628C131.2859,-839.6628 352.8074,-839.6628 451.4737,-839.6628"/>
<polygon fill="#000000" stroke="#000000" points="451.7568,-843.1629 461.7568,-839.6628 451.7568,-836.1629 451.7568,-843.1629"/>
<text text-anchor="middle" x="257.9181" y="-843.8628" font-family="Times,serif" font-size="14.00" fill="#000000">productName,price,date,operator,influencer,shopper,retailer</text>
</g>
<!-- 1&#45;&gt;T0 -->
<g id="edge2" class="edge">
<title>1&#45;&gt;T0</title>
<path fill="none" stroke="#000000" d="M1545.0997,-875.4145C1533.8218,-860.8072 1515.8261,-841.4007 1494.6846,-832.8628 1320.3839,-762.4727 723.2458,-816.7053 548.3748,-834.5193"/>
<polygon fill="#000000" stroke="#000000" points="547.7841,-831.0614 538.1936,-835.5641 548.4987,-838.0249 547.7841,-831.0614"/>
<text text-anchor="middle" x="1034.3149" y="-837.8628" font-family="Times,serif" font-size="14.00" fill="#000000">productName,price</text>
</g>
<!-- 2&#45;&gt;T1 -->
<g id="edge3" class="edge">
<title>2&#45;&gt;T1</title>
<path fill="none" stroke="#000000" d="M1584.8504,-745.6628C1663.6172,-745.6628 1892.2121,-745.6628 1982.3514,-745.6628"/>
<polygon fill="#000000" stroke="#000000" points="1982.3893,-749.1629 1992.3893,-745.6628 1982.3892,-742.1629 1982.3893,-749.1629"/>
<text text-anchor="middle" x="1788.6027" y="-749.8628" font-family="Times,serif" font-size="14.00" fill="#000000">productName,price,date,operator,influencer,shopper,retailer</text>
</g>
<!-- 3&#45;&gt;T1 -->
<g id="edge4" class="edge">
<title>3&#45;&gt;T1</title>
<path fill="none" stroke="#000000" d="M3386.1841,-751.7595C3375.351,-746.5944 3362.5456,-741.4524 3350.2628,-738.8628 2848.0688,-632.9862 2215.388,-715.9803 2056.8351,-739.7827"/>
<polygon fill="#000000" stroke="#000000" points="2056.0256,-736.3654 2046.6642,-741.3267 2057.0763,-743.2861 2056.0256,-736.3654"/>
<text text-anchor="middle" x="2716.3918" y="-743.8628" font-family="Times,serif" font-size="14.00" fill="#000000">influencer,influencerComission,productCount,influencerBalance,flag</text>
</g>
<!-- 3&#45;&gt;T2 -->
<g id="edge6" class="edge">
<title>3&#45;&gt;T2</title>
<path fill="none" stroke="#000000" d="M3440.2964,-767.8391C3633.8611,-776.0254 4804.9599,-821.5233 4929.1856,-729.6628 4955.428,-710.2575 4977.2173,-616.7456 4986.857,-568.9382"/>
<polygon fill="#000000" stroke="#000000" points="4990.3302,-569.4157 4988.8324,-558.9273 4983.4627,-568.0605 4990.3302,-569.4157"/>
<text text-anchor="middle" x="4202.7242" y="-790.8628" font-family="Times,serif" font-size="14.00" fill="#000000">influencer,influencerComission,productCount,influencerBalance,flag</text>
</g>
<!-- 4&#45;&gt;T1 -->
<g id="edge5" class="edge">
<title>4&#45;&gt;T1</title>
<path fill="none" stroke="#000000" d="M5789.108,-766.0295C5685.3143,-796.4419 5305.8121,-891.9405 5055.1856,-746.6628 4987.2623,-707.2905 5001.7172,-664.1552 4965.1856,-594.6628 4947.457,-560.9386 4961.2888,-537.3813 4929.1856,-516.8628 4385.0829,-169.103 4121.877,-503.944 3476.2628,-516.8628 2856.4497,-529.2653 2583.1591,-207.0355 2082.5208,-572.6628 2058.5637,-590.1592 2036.2268,-673.2351 2025.7556,-717.592"/>
<polygon fill="#000000" stroke="#000000" points="2022.3168,-716.928 2023.4713,-727.4598 2029.1364,-718.5068 2022.3168,-716.928"/>
<text text-anchor="middle" x="4202.7242" y="-521.8628" font-family="Times,serif" font-size="14.00" fill="#000000">count</text>
</g>
<!-- 4&#45;&gt;T2 -->
<g id="edge7" class="edge">
<title>4&#45;&gt;T2</title>
<path fill="none" stroke="#000000" d="M5813.0789,-739.3645C5807.1427,-710.35 5791.1696,-654.3669 5753.157,-627.8628 5625.302,-538.7165 5208.2881,-587.879 5055.1856,-558.6628 5046.5924,-557.023 5037.4766,-554.7439 5028.9277,-552.3577"/>
<polygon fill="#000000" stroke="#000000" points="5029.797,-548.9656 5019.2177,-549.5392 5027.8455,-555.6882 5029.797,-548.9656"/>
<text text-anchor="middle" x="5404.1713" y="-632.8628" font-family="Times,serif" font-size="14.00" fill="#000000">count</text>
</g>
<!-- 5&#45;&gt;T2 -->
<g id="edge8" class="edge">
<title>5&#45;&gt;T2</title>
<path fill="none" stroke="#000000" d="M3434.8189,-633.61C3446.3539,-625.0584 3461.2494,-615.6801 3476.2628,-610.8628 3548.8417,-587.5748 4729.3098,-549.0144 4955.0417,-541.8332"/>
<polygon fill="#000000" stroke="#000000" points="4955.1771,-545.3307 4965.061,-541.5151 4954.9549,-538.3342 4955.1771,-545.3307"/>
<text text-anchor="middle" x="4202.7242" y="-615.8628" font-family="Times,serif" font-size="14.00" fill="#000000">productName,price,date,operator,influencer,shopper,retailer)</text>
</g>
<!-- 6&#45;&gt;T2 -->
<g id="edge9" class="edge">
<title>6&#45;&gt;T2</title>
<path fill="none" stroke="#000000" d="M5801.448,-475.6304C5789.85,-462.9339 5772.4536,-446.981 5753.157,-439.8628 5607.6373,-386.1831 5190.8468,-364.6729 5055.1856,-439.8628 5027.3888,-455.2691 5010.2368,-488.6169 5000.9815,-512.7452"/>
<polygon fill="#000000" stroke="#000000" points="4997.5847,-511.8478 4997.4905,-522.4423 5004.1709,-514.219 4997.5847,-511.8478"/>
<text text-anchor="middle" x="5404.1713" y="-444.8628" font-family="Times,serif" font-size="14.00" fill="#000000">shopper,shopperComission,shopperBalance</text>
</g>
<!-- 7&#45;&gt;T2 -->
<g id="edge10" class="edge">
<title>7&#45;&gt;T2</title>
<path fill="none" stroke="#000000" d="M5789.4509,-267.5722C5778.6664,-261.2962 5765.7968,-255.0393 5753.157,-251.8628 5602.7298,-214.0587 5175.9848,-154.5744 5055.1856,-251.8628 5014.7701,-284.4124 4998.8927,-445.7756 4994.0066,-512.1112"/>
<polygon fill="#000000" stroke="#000000" points="4990.5026,-512.0463 4993.2904,-522.2678 4997.4852,-512.5388 4990.5026,-512.0463"/>
<text text-anchor="middle" x="5404.1713" y="-256.8628" font-family="Times,serif" font-size="14.00" fill="#000000">retailer,retailerComission,retailerBalance</text>
</g>
<!-- 8&#45;&gt;T2 -->
<g id="edge11" class="edge">
<title>8&#45;&gt;T2</title>
<path fill="none" stroke="#000000" d="M5806.7439,-119.4089C5796.3546,-101.4821 5777.7864,-75.2208 5753.157,-63.8628 5612.3076,1.0905 5171.8236,38.3774 5055.1856,-63.8628 5021.1805,-93.6703 4999.6139,-414.452 4993.7846,-512.4146"/>
<polygon fill="#000000" stroke="#000000" points="4990.2868,-512.2775 4993.1956,-522.4652 4997.2748,-512.6872 4990.2868,-512.2775"/>
<text text-anchor="middle" x="5404.1713" y="-68.8628" font-family="Times,serif" font-size="14.00" fill="#000000">operator,operatorComission,operatorBalance</text>
</g>
</g>
</svg>
