<?xml version="1.0" encoding="UTF-8" standalone="no"?>
<!DOCTYPE svg PUBLIC "-//W3C//DTD SVG 1.1//EN"
 "http://www.w3.org/Graphics/SVG/1.1/DTD/svg11.dtd">
<!-- Generated by graphviz version 2.40.1 (20161225.0304)
 -->
<!-- Title: g Pages: 1 -->
<svg width="365pt" height="154pt"
 viewBox="0.00 0.00 365.43 154.00" xmlns="http://www.w3.org/2000/svg" xmlns:xlink="http://www.w3.org/1999/xlink">
<g id="graph0" class="graph" transform="scale(1 1) rotate(0) translate(4 150)">
<title>g</title>
<polygon fill="#ffffff" stroke="transparent" points="-4,4 -4,-150 361.4304,-150 361.4304,4 -4,4"/>
<!-- T0 -->
<g id="node1" class="node">
<title>T0</title>
<path fill="#3f51b5" stroke="#ffffff" d="M175,-90.5C175,-90.5 145,-90.5 145,-90.5 139,-90.5 133,-84.5 133,-78.5 133,-78.5 133,-66.5 133,-66.5 133,-60.5 139,-54.5 145,-54.5 145,-54.5 175,-54.5 175,-54.5 181,-54.5 187,-60.5 187,-66.5 187,-66.5 187,-78.5 187,-78.5 187,-84.5 181,-90.5 175,-90.5"/>
<text text-anchor="middle" x="160" y="-68.3" font-family="Times,serif" font-size="14.00" fill="#ffffff">a 4 &gt;=</text>
</g>
<!-- 2 -->
<g id="node4" class="node">
<title>2</title>
<path fill="none" stroke="#000000" d="M315.4304,-54.5C315.4304,-54.5 345.4304,-54.5 345.4304,-54.5 351.4304,-54.5 357.4304,-60.5 357.4304,-66.5 357.4304,-66.5 357.4304,-78.5 357.4304,-78.5 357.4304,-84.5 351.4304,-90.5 345.4304,-90.5 345.4304,-90.5 315.4304,-90.5 315.4304,-90.5 309.4304,-90.5 303.4304,-84.5 303.4304,-78.5 303.4304,-78.5 303.4304,-66.5 303.4304,-66.5 303.4304,-60.5 309.4304,-54.5 315.4304,-54.5"/>
<text text-anchor="middle" x="319.3217" y="-68.4" font-family="Times,serif" font-size="14.00" fill="#000000">P2</text>
<polyline fill="none" stroke="#000000" points="335.213,-54.7 335.213,-90.5 "/>
<text text-anchor="middle" x="345.963" y="-68.4" font-family="Times,serif" font-size="14.00" fill="#000000"> </text>
</g>
<!-- T0&#45;&gt;2 -->
<g id="edge3" class="edge">
<title>T0&#45;&gt;2</title>
<path fill="none" stroke="#000000" d="M187.0052,-72.5C215.5924,-72.5 260.9215,-72.5 292.9582,-72.5"/>
<polygon fill="#000000" stroke="#000000" points="293.2699,-76.0001 303.2699,-72.5 293.2699,-69.0001 293.2699,-76.0001"/>
<text text-anchor="middle" x="245.2152" y="-76.7" font-family="Times,serif" font-size="14.00" fill="#000000">[ a b + ]</text>
</g>
<!-- 0 -->
<g id="node2" class="node">
<title>0</title>
<path fill="none" stroke="#000000" d="M12,-109.5C12,-109.5 42,-109.5 42,-109.5 48,-109.5 54,-115.5 54,-121.5 54,-121.5 54,-133.5 54,-133.5 54,-139.5 48,-145.5 42,-145.5 42,-145.5 12,-145.5 12,-145.5 6,-145.5 0,-139.5 0,-133.5 0,-133.5 0,-121.5 0,-121.5 0,-115.5 6,-109.5 12,-109.5"/>
<text text-anchor="middle" x="15.8913" y="-123.4" font-family="Times,serif" font-size="14.00" fill="#000000">P0</text>
<polyline fill="none" stroke="#000000" points="31.7826,-109.7 31.7826,-145.5 "/>
<text text-anchor="middle" x="42.5326" y="-123.4" font-family="Times,serif" font-size="14.00" fill="#000000"> </text>
</g>
<!-- 0&#45;&gt;T0 -->
<g id="edge1" class="edge">
<title>0&#45;&gt;T0</title>
<path fill="none" stroke="#000000" d="M54.2355,-116.2372C74.2283,-107.9695 101.5979,-96.6512 123.4857,-87.5999"/>
<polygon fill="#000000" stroke="#000000" points="124.8975,-90.8036 132.8009,-83.7477 122.2224,-84.3349 124.8975,-90.8036"/>
<text text-anchor="middle" x="93.5" y="-104.7" font-family="Times,serif" font-size="14.00" fill="#000000">a</text>
</g>
<!-- 1 -->
<g id="node3" class="node">
<title>1</title>
<path fill="none" stroke="#000000" d="M12,-.5C12,-.5 42,-.5 42,-.5 48,-.5 54,-6.5 54,-12.5 54,-12.5 54,-24.5 54,-24.5 54,-30.5 48,-36.5 42,-36.5 42,-36.5 12,-36.5 12,-36.5 6,-36.5 0,-30.5 0,-24.5 0,-24.5 0,-12.5 0,-12.5 0,-6.5 6,-.5 12,-.5"/>
<text text-anchor="middle" x="15.8913" y="-14.4" font-family="Times,serif" font-size="14.00" fill="#000000">P1</text>
<polyline fill="none" stroke="#000000" points="31.7826,-.7 31.7826,-36.5 "/>
<text text-anchor="middle" x="42.5326" y="-14.4" font-family="Times,serif" font-size="14.00" fill="#000000"> </text>
</g>
<!-- 1&#45;&gt;T0 -->
<g id="edge2" class="edge">
<title>1&#45;&gt;T0</title>
<path fill="none" stroke="#000000" d="M54.0499,-15.3391C67.3797,-14.7724 83.4574,-15.6059 97,-20.7 111.8241,-26.2761 125.7209,-36.8682 136.6709,-47.0286"/>
<polygon fill="#000000" stroke="#000000" points="134.493,-49.7936 144.0945,-54.2727 139.3818,-44.7837 134.493,-49.7936"/>
<text text-anchor="middle" x="93.5" y="-25.7" font-family="Times,serif" font-size="14.00" fill="#000000">b</text>
</g>
</g>
</svg>
