<?xml version="1.0" encoding="UTF-8" standalone="no"?>
<!DOCTYPE svg PUBLIC "-//W3C//DTD SVG 1.1//EN"
 "http://www.w3.org/Graphics/SVG/1.1/DTD/svg11.dtd">
<!-- Generated by graphviz version 2.40.1 (20161225.0304)
 -->
<!-- Title: g Pages: 1 -->
<svg width="710pt" height="233pt"
 viewBox="0.00 0.00 709.76 232.50" xmlns="http://www.w3.org/2000/svg" xmlns:xlink="http://www.w3.org/1999/xlink">
<g id="graph0" class="graph" transform="scale(1 1) rotate(0) translate(4 228.5)">
<title>g</title>
<polygon fill="#ffffff" stroke="transparent" points="-4,4 -4,-228.5 705.7592,-228.5 705.7592,4 -4,4"/>
<!-- T0 -->
<g id="node1" class="node">
<title>T0</title>
<path fill="#3f51b5" stroke="#ffffff" d="M181.2146,-90.5C181.2146,-90.5 151.2146,-90.5 151.2146,-90.5 145.2146,-90.5 139.2146,-84.5 139.2146,-78.5 139.2146,-78.5 139.2146,-66.5 139.2146,-66.5 139.2146,-60.5 145.2146,-54.5 151.2146,-54.5 151.2146,-54.5 181.2146,-54.5 181.2146,-54.5 187.2146,-54.5 193.2146,-60.5 193.2146,-66.5 193.2146,-66.5 193.2146,-78.5 193.2146,-78.5 193.2146,-84.5 187.2146,-90.5 181.2146,-90.5"/>
<text text-anchor="middle" x="166.2146" y="-68.3" font-family="Times,serif" font-size="14.00" fill="#ffffff">a 2 &gt;=</text>
</g>
<!-- 1 -->
<g id="node5" class="node">
<title>1</title>
<path fill="none" stroke="#000000" d="M321.645,-109.5C321.645,-109.5 351.645,-109.5 351.645,-109.5 357.645,-109.5 363.645,-115.5 363.645,-121.5 363.645,-121.5 363.645,-133.5 363.645,-133.5 363.645,-139.5 357.645,-145.5 351.645,-145.5 351.645,-145.5 321.645,-145.5 321.645,-145.5 315.645,-145.5 309.645,-139.5 309.645,-133.5 309.645,-133.5 309.645,-121.5 309.645,-121.5 309.645,-115.5 315.645,-109.5 321.645,-109.5"/>
<text text-anchor="middle" x="325.5363" y="-123.4" font-family="Times,serif" font-size="14.00" fill="#000000">P1</text>
<polyline fill="none" stroke="#000000" points="341.4276,-109.7 341.4276,-145.5 "/>
<text text-anchor="middle" x="352.1776" y="-123.4" font-family="Times,serif" font-size="14.00" fill="#000000"> </text>
</g>
<!-- T0&#45;&gt;1 -->
<g id="edge5" class="edge">
<title>T0&#45;&gt;1</title>
<path fill="none" stroke="#000000" d="M193.2198,-81.2149C221.9313,-90.4805 267.5306,-105.1959 299.59,-115.5419"/>
<polygon fill="#000000" stroke="#000000" points="298.8928,-118.9946 309.4845,-118.735 301.0427,-112.3329 298.8928,-118.9946"/>
<text text-anchor="middle" x="251.4298" y="-111.7" font-family="Times,serif" font-size="14.00" fill="#000000">[ a 1 + ]</text>
</g>
<!-- 2 -->
<g id="node6" class="node">
<title>2</title>
<path fill="none" stroke="#000000" d="M321.645,-.5C321.645,-.5 351.645,-.5 351.645,-.5 357.645,-.5 363.645,-6.5 363.645,-12.5 363.645,-12.5 363.645,-24.5 363.645,-24.5 363.645,-30.5 357.645,-36.5 351.645,-36.5 351.645,-36.5 321.645,-36.5 321.645,-36.5 315.645,-36.5 309.645,-30.5 309.645,-24.5 309.645,-24.5 309.645,-12.5 309.645,-12.5 309.645,-6.5 315.645,-.5 321.645,-.5"/>
<text text-anchor="middle" x="325.5363" y="-14.4" font-family="Times,serif" font-size="14.00" fill="#000000">P2</text>
<polyline fill="none" stroke="#000000" points="341.4276,-.7 341.4276,-36.5 "/>
<text text-anchor="middle" x="352.1776" y="-14.4" font-family="Times,serif" font-size="14.00" fill="#000000"> </text>
</g>
<!-- T0&#45;&gt;2 -->
<g id="edge6" class="edge">
<title>T0&#45;&gt;2</title>
<path fill="none" stroke="#000000" d="M180.9275,-54.4781C192.5275,-41.7869 209.9246,-25.8361 229.2146,-18.7 251.3618,-10.5069 277.8796,-10.3689 299.0277,-12.3225"/>
<polygon fill="#000000" stroke="#000000" points="298.9132,-15.8314 309.2399,-13.4631 299.6902,-8.8747 298.9132,-15.8314"/>
<text text-anchor="middle" x="251.4298" y="-23.7" font-family="Times,serif" font-size="14.00" fill="#000000">[ a 2 + ]</text>
</g>
<!-- T1 -->
<g id="node2" class="node">
<title>T1</title>
<path fill="#3f51b5" stroke="#ffffff" d="M505.0942,-224.5C505.0942,-224.5 475.0942,-224.5 475.0942,-224.5 469.0942,-224.5 463.0942,-218.5 463.0942,-212.5 463.0942,-212.5 463.0942,-200.5 463.0942,-200.5 463.0942,-194.5 469.0942,-188.5 475.0942,-188.5 475.0942,-188.5 505.0942,-188.5 505.0942,-188.5 511.0942,-188.5 517.0942,-194.5 517.0942,-200.5 517.0942,-200.5 517.0942,-212.5 517.0942,-212.5 517.0942,-218.5 511.0942,-224.5 505.0942,-224.5"/>
<text text-anchor="middle" x="490.0942" y="-202.3" font-family="Times,serif" font-size="14.00" fill="#ffffff">b 0 &gt;=</text>
</g>
<!-- 3 -->
<g id="node7" class="node">
<title>3</title>
<path fill="none" stroke="#000000" d="M659.7592,-134.5C659.7592,-134.5 689.7592,-134.5 689.7592,-134.5 695.7592,-134.5 701.7592,-140.5 701.7592,-146.5 701.7592,-146.5 701.7592,-158.5 701.7592,-158.5 701.7592,-164.5 695.7592,-170.5 689.7592,-170.5 689.7592,-170.5 659.7592,-170.5 659.7592,-170.5 653.7592,-170.5 647.7592,-164.5 647.7592,-158.5 647.7592,-158.5 647.7592,-146.5 647.7592,-146.5 647.7592,-140.5 653.7592,-134.5 659.7592,-134.5"/>
<text text-anchor="middle" x="663.6505" y="-148.4" font-family="Times,serif" font-size="14.00" fill="#000000">P3</text>
<polyline fill="none" stroke="#000000" points="679.5418,-134.7 679.5418,-170.5 "/>
<text text-anchor="middle" x="690.2918" y="-148.4" font-family="Times,serif" font-size="14.00" fill="#000000"> </text>
</g>
<!-- T1&#45;&gt;3 -->
<g id="edge7" class="edge">
<title>T1&#45;&gt;3</title>
<path fill="none" stroke="#000000" d="M517.3422,-198.5321C549.2106,-189.2131 602.1258,-173.7395 637.707,-163.3349"/>
<polygon fill="#000000" stroke="#000000" points="639.0846,-166.5787 647.7003,-160.4126 637.1199,-159.86 639.0846,-166.5787"/>
<text text-anchor="middle" x="589.1513" y="-186.7" font-family="Times,serif" font-size="14.00" fill="#000000">[ b 1 + ]</text>
</g>
<!-- T2 -->
<g id="node3" class="node">
<title>T2</title>
<path fill="#3f51b5" stroke="#ffffff" d="M518.4927,-116.5C518.4927,-116.5 461.6957,-116.5 461.6957,-116.5 455.6957,-116.5 449.6957,-110.5 449.6957,-104.5 449.6957,-104.5 449.6957,-92.5 449.6957,-92.5 449.6957,-86.5 455.6957,-80.5 461.6957,-80.5 461.6957,-80.5 518.4927,-80.5 518.4927,-80.5 524.4927,-80.5 530.4927,-86.5 530.4927,-92.5 530.4927,-92.5 530.4927,-104.5 530.4927,-104.5 530.4927,-110.5 524.4927,-116.5 518.4927,-116.5"/>
<text text-anchor="middle" x="490.0942" y="-94.3" font-family="Times,serif" font-size="14.00" fill="#ffffff">c b + 10 &lt;=</text>
</g>
<!-- T2&#45;&gt;3 -->
<g id="edge8" class="edge">
<title>T2&#45;&gt;3</title>
<path fill="none" stroke="#000000" d="M530.6197,-110.3505C562.5745,-119.6948 606.7694,-132.6183 637.7716,-141.684"/>
<polygon fill="#000000" stroke="#000000" points="637.1624,-145.1524 647.7428,-144.5998 639.1271,-138.4338 637.1624,-145.1524"/>
<text text-anchor="middle" x="589.1513" y="-137.7" font-family="Times,serif" font-size="14.00" fill="#000000">[ c 1 + ]</text>
</g>
<!-- 0 -->
<g id="node4" class="node">
<title>0</title>
<path fill="none" stroke="#000000" d="M12,-54.5C12,-54.5 42,-54.5 42,-54.5 48,-54.5 54,-60.5 54,-66.5 54,-66.5 54,-78.5 54,-78.5 54,-84.5 48,-90.5 42,-90.5 42,-90.5 12,-90.5 12,-90.5 6,-90.5 0,-84.5 0,-78.5 0,-78.5 0,-66.5 0,-66.5 0,-60.5 6,-54.5 12,-54.5"/>
<text text-anchor="middle" x="15.8913" y="-68.4" font-family="Times,serif" font-size="14.00" fill="#000000">P0</text>
<polyline fill="none" stroke="#000000" points="31.7826,-54.7 31.7826,-90.5 "/>
<text text-anchor="middle" x="42.5326" y="-68.4" font-family="Times,serif" font-size="14.00" fill="#000000"> </text>
</g>
<!-- 0&#45;&gt;T0 -->
<g id="edge1" class="edge">
<title>0&#45;&gt;T0</title>
<path fill="none" stroke="#000000" d="M54.1725,-72.5C75.4445,-72.5 105.2667,-72.5 128.796,-72.5"/>
<polygon fill="#000000" stroke="#000000" points="129.1107,-76.0001 139.1107,-72.5 129.1106,-69.0001 129.1107,-76.0001"/>
<text text-anchor="middle" x="96.6073" y="-76.7" font-family="Times,serif" font-size="14.00" fill="#000000"> a </text>
</g>
<!-- 1&#45;&gt;T1 -->
<g id="edge2" class="edge">
<title>1&#45;&gt;T1</title>
<path fill="none" stroke="#000000" d="M363.7254,-141.4418C388.8483,-154.3757 426.4162,-173.7168 454.0635,-187.9504"/>
<polygon fill="#000000" stroke="#000000" points="452.5339,-191.0994 463.0269,-192.565 455.738,-184.8758 452.5339,-191.0994"/>
<text text-anchor="middle" x="406.645" y="-170.7" font-family="Times,serif" font-size="14.00" fill="#000000"> b </text>
</g>
<!-- 1&#45;&gt;T2 -->
<g id="edge3" class="edge">
<title>1&#45;&gt;T2</title>
<path fill="none" stroke="#000000" d="M363.8181,-116.4057C374.7718,-112.3823 387.6369,-108.2128 399.645,-105.7 412.298,-103.0522 426.1332,-101.3621 439.0925,-100.2878"/>
<polygon fill="#000000" stroke="#000000" points="439.5375,-103.7648 449.2586,-99.5517 439.0319,-96.7831 439.5375,-103.7648"/>
<text text-anchor="middle" x="406.645" y="-110.7" font-family="Times,serif" font-size="14.00" fill="#000000"> b </text>
</g>
<!-- 2&#45;&gt;T2 -->
<g id="edge4" class="edge">
<title>2&#45;&gt;T2</title>
<path fill="none" stroke="#000000" d="M363.7254,-32.6182C386.584,-44.5355 419.7455,-61.824 446.3628,-75.7008"/>
<polygon fill="#000000" stroke="#000000" points="444.9918,-78.9331 455.4771,-80.4525 448.2278,-72.726 444.9918,-78.9331"/>
<text text-anchor="middle" x="406.645" y="-62.7" font-family="Times,serif" font-size="14.00" fill="#000000"> c </text>
</g>
</g>
</svg>
